<?xml version="1.0" encoding="UTF-8"?>
<!-- Generated by @neplex/vectorizer (Using visioncortex VTracer) -->
<!-- Ink palette baked: silhouette boundaries only; original vector in source-vectors. -->
<svg xmlns="http://www.w3.org/2000/svg" width="292" height="295" viewBox="2 2 292 295" preserveAspectRatio="xMidYMid meet">
<path d="M0 0 C11.63 0.33 25.03 4.47 33.28 12.89 C35.59 15.64 37.72 18.45 39.81 21.38 C40.39 22.14 40.97 22.91 41.56 23.7 C45.53 29.23 47.78 34.91 49.81 41.38 C50.16 42.4 50.51 43.43 50.88 44.48 C57 63.66 56.45 83.63 53.81 103.38 C54.71 102.4 55.6 101.42 56.52 100.41 C88.15 66.02 88.15 66.02 110 64.88 C117.84 65.26 124.35 68.92 130.02 74.2 C138.35 84.33 139.84 99.42 139.06 112.02 C137.52 126.54 133 141.08 125 153.31 C124.11 154.7 123.21 156.09 122.32 157.48 C121.89 158.15 121.46 158.82 121.01 159.5 C119.98 161.11 118.98 162.75 117.99 164.39 C114.02 170.96 109.32 176.68 104.27 182.43 C102.13 185 100.48 187.5 98.81 190.38 C97.15 192.04 95.48 193.71 93.81 195.38 C90.37 199.51 87.07 203.76 83.77 208 C80.21 212.52 76.6 216.75 72.45 220.73 C70.81 222.37 70.81 222.37 68 225.81 C64.88 229.53 61.23 232.36 57.41 235.32 C54.07 237.96 50.92 240.79 47.77 243.64 C45.81 245.38 45.81 245.38 43.12 247.31 C36.56 253.17 33.49 261.09 30.4 269.14 C27.59 274.87 23.64 277.98 17.81 280.38 C11.2 282.43 4.68 283 -2.19 283.38 C-2.98 283.43 -3.77 283.48 -4.58 283.54 C-15.2 283.94 -28.24 282.34 -37.19 276.38 C-40.93 272.46 -42.16 268.81 -43.56 263.62 C-47.17 251.61 -52.75 245.4 -62.19 237.38 C-75.15 226.08 -87.06 214.31 -97.19 200.38 C-98.73 198.35 -100.27 196.33 -101.81 194.31 C-105.41 189.5 -108.79 184.58 -112.07 179.55 C-113.27 177.75 -114.49 175.96 -115.75 174.2 C-126.77 158.91 -135.45 141.9 -139.19 123.38 C-139.44 122.24 -139.69 121.11 -139.95 119.95 C-142.74 105.4 -141.19 90.4 -133.56 77.56 C-129.57 71.96 -123.72 67.55 -117.19 65.38 C-100.93 63.67 -89.03 71.74 -76.87 81.56 C-70.24 87.06 -65 92.97 -59.98 99.95 C-59.39 100.75 -58.8 101.55 -58.19 102.38 C-57.86 102.38 -57.53 102.38 -57.19 102.38 C-57.22 102.06 -57.22 102.06 -57.41 100.46 C-59.33 81.93 -57.91 64.14 -52.19 46.38 C-52.05 45.87 -52.05 45.87 -51.36 43.33 C-48.85 34.67 -44.44 27.66 -39.19 20.38 C-38.52 19.44 -37.85 18.51 -37.16 17.55 C-29.89 8.46 -17.97 2.13 -6.39 0.55 C-4.26 0.38 -2.13 0.19 0 0 Z " fill="#8c6140" transform="translate(149.1875,7.625)"/>
<path d="M0 0 C11.63 0.33 25.03 4.47 33.28 12.89 C35.59 15.64 37.72 18.45 39.81 21.38 C40.39 22.14 40.97 22.91 41.56 23.7 C45.53 29.23 47.78 34.91 49.81 41.38 C50.16 42.4 50.51 43.43 50.88 44.48 C57 63.66 56.45 83.63 53.81 103.38 C54.71 102.4 55.6 101.42 56.52 100.41 C88.15 66.02 88.15 66.02 110 64.88 C117.84 65.26 124.35 68.92 130.02 74.2 C138.35 84.33 139.84 99.42 139.06 112.02 C137.52 126.54 133 141.08 125 153.31 C124.11 154.7 123.21 156.09 122.32 157.48 C121.89 158.15 121.46 158.82 121.01 159.5 C119.98 161.11 118.98 162.75 117.99 164.39 C114.02 170.96 109.32 176.68 104.27 182.43 C102.13 185 100.48 187.5 98.81 190.38 C97.15 192.04 95.48 193.71 93.81 195.38 C90.37 199.51 87.07 203.76 83.77 208 C80.21 212.52 76.6 216.75 72.45 220.73 C70.81 222.37 70.81 222.37 68 225.81 C64.88 229.53 61.23 232.36 57.41 235.32 C54.07 237.96 50.92 240.79 47.77 243.64 C45.81 245.38 45.81 245.38 43.12 247.31 C36.56 253.17 33.49 261.09 30.4 269.14 C27.59 274.87 23.64 277.98 17.81 280.38 C11.2 282.43 4.68 283 -2.19 283.38 C-2.98 283.43 -3.77 283.48 -4.58 283.54 C-15.2 283.94 -28.24 282.34 -37.19 276.38 C-40.93 272.46 -42.16 268.81 -43.56 263.62 C-47.17 251.61 -52.75 245.4 -62.19 237.38 C-75.15 226.08 -87.06 214.31 -97.19 200.38 C-98.73 198.35 -100.27 196.33 -101.81 194.31 C-105.41 189.5 -108.79 184.58 -112.07 179.55 C-113.27 177.75 -114.49 175.96 -115.75 174.2 C-126.77 158.91 -135.45 141.9 -139.19 123.38 C-139.44 122.24 -139.69 121.11 -139.95 119.95 C-142.74 105.4 -141.19 90.4 -133.56 77.56 C-129.57 71.96 -123.72 67.55 -117.19 65.38 C-100.93 63.67 -89.03 71.74 -76.87 81.56 C-70.24 87.06 -65 92.97 -59.98 99.95 C-59.39 100.75 -58.8 101.55 -58.19 102.38 C-57.86 102.38 -57.53 102.38 -57.19 102.38 C-57.22 102.06 -57.22 102.06 -57.41 100.46 C-59.33 81.93 -57.91 64.14 -52.19 46.38 C-52.05 45.87 -52.05 45.87 -51.36 43.33 C-48.85 34.67 -44.44 27.66 -39.19 20.38 C-38.52 19.44 -37.85 18.51 -37.16 17.55 C-29.89 8.46 -17.97 2.13 -6.39 0.55 C-4.26 0.38 -2.13 0.19 0 0 Z M-22.13 21.87 C-30.45 29.63 -35.25 39.89 -39.19 50.38 C-39.34 50.74 -39.34 50.74 -40.09 52.57 C-51.4 82.18 -42.83 119.78 -34.25 148.98 C-32 156.79 -30.28 164.67 -28.62 172.62 C-28.32 174.07 -28.02 175.51 -27.71 176.99 C-25.61 187.08 -23.69 197.18 -22.19 207.38 C-25.54 204.02 -26.87 200.75 -28.56 196.44 C-29.18 194.88 -29.81 193.33 -30.43 191.78 C-30.73 191.02 -31.03 190.26 -31.34 189.48 C-32.42 186.8 -33.55 184.15 -34.69 181.5 C-38.91 171.35 -42.67 160.99 -46.13 150.57 C-51.35 134.93 -57.07 120.87 -68.19 108.38 C-69.08 107.34 -69.98 106.3 -70.9 105.23 C-81.26 93.55 -94.24 80.57 -110.56 79.06 C-115.07 79.45 -116.81 80.36 -120.19 83.38 C-128.18 94.02 -127.96 106.69 -126.19 119.38 C-121.14 143.35 -107.83 165.38 -92.76 184.38 C-90.78 186.9 -88.89 189.48 -87 192.06 C-74.7 208.42 -60.52 223.56 -44.92 236.84 C-37.38 243.51 -33 251.54 -30.69 261.31 C-29.48 266.11 -29.48 266.11 -26.81 268.5 C-20.2 270.7 -13.78 270.56 -6.88 270.56 C-5.77 270.57 -4.67 270.59 -3.53 270.6 C10.82 270.63 10.82 270.63 16.17 266.61 C18.05 264.05 19.05 261.67 20.12 258.69 C25.87 244.37 38.32 234.01 50.15 224.59 C61.06 215.52 69.84 204.51 78.37 193.27 C80.46 190.53 82.55 187.79 84.64 185.06 C85.76 183.6 86.87 182.14 87.99 180.68 C90.49 177.4 93 174.14 95.55 170.89 C111.63 150.39 126.67 126.52 124.81 99.38 C123.46 92.05 121.14 85.71 115.81 80.38 C108.21 77.84 101.81 80.2 94.81 83.38 C63.25 99.82 47.63 129.27 36.67 161.43 C34.13 168.74 31.2 175.87 28.19 183 C27.73 184.08 27.28 185.16 26.81 186.27 C24.31 192.1 21.66 197.8 18.72 203.43 C17.81 205.38 17.81 205.38 17.81 207.38 C17.15 207.38 16.49 207.38 15.81 207.38 C19.79 188.98 23.9 170.63 28.5 152.38 C28.69 151.62 28.88 150.86 29.08 150.08 C30.84 143.08 32.63 136.09 34.42 129.09 C36.6 120.58 38.71 112.11 39.81 103.38 C39.92 102.53 40.03 101.69 40.15 100.83 C42.74 76.57 42.56 48.94 27.81 28.38 C27.29 27.65 26.77 26.92 26.23 26.16 C19.88 18.14 11.68 14.86 1.69 13.53 C-6.97 13.06 -15.32 16.63 -22.13 21.87 Z " fill="#191d18" transform="translate(149.1875,7.625)"/>
<path d="M0 0 C16.61 17.15 18.19 40.63 18 63.1 C17.76 76.01 15.64 88.57 12.85 101.16 C12.6 102.34 12.35 103.52 12.09 104.73 C11.85 105.82 11.6 106.91 11.35 108.04 C11.13 109.01 10.91 109.97 10.69 110.97 C10.41 111.69 10.13 112.42 9.85 113.16 C9.35 113.33 9.35 113.33 6.85 114.16 C6.76 113.21 6.67 112.25 6.59 111.26 C4.27 89.35 -2.4 66.44 -19.15 51.16 C-19.81 50.5 -20.47 49.84 -21.15 49.16 C-23.54 48.81 -23.54 48.81 -26.15 49.16 C-43.03 61.9 -51.16 90.76 -55.3 110.34 C-55.52 111.36 -55.74 112.38 -55.96 113.43 C-56.14 114.35 -56.33 115.26 -56.52 116.2 C-56.62 116.53 -56.62 116.53 -57.15 118.16 C-57.81 118.16 -58.47 118.16 -59.15 118.16 C-70.59 86.35 -71.4 48.03 -57.78 17.04 C-51.9 5.29 -43.52 -3.21 -31.15 -7.84 C-20.63 -10.84 -8.17 -6.97 0 0 Z " fill="#cca578" transform="translate(172.15234375,29.8359375)"/>
<path d="M0 0 C22.35 8.33 40.22 28.23 50.63 49.23 C61.21 72.76 61.21 72.76 60.68 81.3 C56.31 77.63 52.1 73.83 47.93 69.93 C24.7 48.6 24.7 48.6 11.68 48.3 C9.22 56.62 8.26 64.15 8.43 72.8 C8.44 73.84 8.44 74.88 8.45 75.95 C8.52 83.1 9 90.18 9.68 97.3 C8.69 97.3 7.7 97.3 6.68 97.3 C4.64 94.49 2.8 91.71 1 88.74 C0.46 87.88 -0.07 87.02 -0.62 86.13 C-7.64 74.65 -13.99 63.1 -18.32 50.3 C-18.62 49.42 -18.93 48.53 -19.25 47.61 C-23.27 34.7 -24.27 19.69 -18.07 7.37 C-13.69 0.23 -8.23 -2.47 0 0 Z " fill="#cca578" transform="translate(44.31640625,87.6953125)"/>
<path d="M0 0 C5.92 4.8 8.46 11.49 9.31 18.88 C10.94 44.14 -1.84 66.56 -16.69 85.88 C-17.56 87.05 -18.44 88.22 -19.34 89.43 C-20.24 90.64 -21.15 91.85 -22.06 93.06 C-22.9 94.17 -23.73 95.28 -24.59 96.42 C-25.28 97.23 -25.97 98.04 -26.69 98.88 C-27.35 98.88 -28.01 98.88 -28.69 98.88 C-28.51 98.24 -28.32 97.61 -28.14 96.96 C-27.29 93.94 -26.48 90.91 -25.69 87.88 C-25.54 87.34 -25.54 87.34 -24.82 84.66 C-21.67 71.81 -20.85 58.38 -25.69 45.88 C-42.53 46.62 -58.2 63.03 -69.69 73.88 C-72 75.91 -74.33 77.9 -76.69 79.88 C-73.79 53.76 -56.8 30.63 -37.25 14.06 C-12.58 -5.27 -12.58 -5.27 0 0 Z " fill="#cca578" transform="translate(264.6875,88.125)"/>
<path d="M0 0 C3 2 3 2 4 6 C4.84 18.14 3.66 31.06 -2 42 C-2.99 42 -3.98 42 -5 42 C-7.73 27.7 -6.51 13.03 0 0 Z " fill="#191d18" transform="translate(146,218)"/>
<path d="M0 0 C0.99 0.33 1.98 0.66 3 1 C2.08 12.09 -3.2 23.95 -11 32 C-11.99 31.67 -12.98 31.34 -14 31 C-13.76 19.96 -7.71 7.71 0 0 Z " fill="#191d18" transform="translate(170,230)"/>
<path d="M0 0 C3.17 3.17 4.08 5.23 5.62 9.38 C6.05 10.5 6.48 11.62 6.91 12.77 C9.12 19.32 10.23 26.31 8 33 C4 31 4 31 2.77 28.1 C2.45 26.95 2.14 25.81 1.81 24.62 C1.49 23.48 1.17 22.34 0.83 21.16 C-0.43 16.36 -1.14 12.27 -1.12 7.31 C-1.13 6.15 -1.13 4.99 -1.13 3.8 C-1 1 -1 1 0 0 Z " fill="#191d18" transform="translate(121,228)"/>
<g data-ink-edge="true" fill="#211e1a"><path d="M123.452,325.281L63.215,280.739L28.96,247.419L-0.018,208.65L-23.319,167.156L-32.579,106.172L28.76,37.498L80.595,44.551L103.624,61.835L113.073,65.997L121.251,72.298L127.684,80.374L131.996,89.755L133.939,99.895L133.398,110.206L130.406,120.087L125.135,128.966L117.893,136.324L109.1,141.736L99.268,144.886L88.967,145.592L78.797,143.812L51.862,58.302L77.122,2.579L140.614,-31.409L206.603,-11.326L240.98,42.954L242.582,82.44L245.819,92.245L246.615,102.539L244.925,112.724L240.846,122.209L234.616,130.442L226.596,136.945L217.254,141.339L207.131,143.37L196.816,142.919L186.909,140.013L177.985,134.82L170.563,127.642L165.075,118.897L202.093,50.955L277.566,40.177L322.893,83.528L325.551,147.36L300.33,198.918L270.231,237.07L240.375,269.713L229.475,278.27L216.413,282.899L202.557,283.115L189.358,278.895L178.197,270.681L170.243,259.333L166.329,246.04L166.865,232.193L171.794,219.241L180.6,208.542L192.362,201.215L205.848,198.027L219.646,199.312L232.311,204.935L242.518,214.309L249.197,226.451L251.649,240.089L249.618,253.797L243.316,266.139L233.404,275.823L220.918,281.834L207.166,283.544L193.588,280.773L181.606,273.812L172.474,263.389L167.148,250.596L166.186,236.771L169.689,223.364L177.289,211.776L177.28,211.786L203.648,183.19L225.769,156.795L248,123.235L242.581,82.437L245.818,92.24L246.616,102.534L244.926,112.72L240.848,122.205L234.619,130.439L226.6,136.942L217.258,141.338L207.135,143.37L196.82,142.92L186.913,140.015L177.988,134.823L170.566,127.646L165.077,118.901L162.861,76.942L154.435,46.24L136.792,66.707L103.62,61.834L113.069,65.994L121.248,72.295L127.681,80.371L131.995,89.751L133.939,99.891L133.399,110.202L130.407,120.084L125.138,128.962L117.896,136.322L109.104,141.734L99.272,144.885L88.972,145.592L78.801,143.813L54.229,125.752L30.051,109.788L52.113,127.253L69.193,158.196L89.346,186.693L114.233,211.949L174.373,256.408L181.875,263.502L187.461,272.185L190.806,281.953L191.717,292.238L190.139,302.441L186.166,311.971L180.027,320.272L172.08,326.864L162.787,331.361L152.687,333.505L142.368,333.168L132.429,330.372L123.448,325.278Z"/><path d="M295.486,205.821L241.264,268.714L213.197,300.142L161.784,329.004L91.729,317.206L51.98,268.344L46.879,255.459L46.158,241.62L49.895,228.276L57.697,216.823L68.747,208.462L81.889,204.066L95.747,204.097L108.869,208.551L119.882,216.962L127.633,228.449L131.31,241.81L130.528,255.646L125.369,268.507L116.374,279.048L104.484,286.165L90.943,289.113L77.17,287.582L64.607,281.734L54.569,272.181L48.107,259.922L45.897,246.242L48.172,232.572L54.692,220.344L64.775,210.839L77.366,205.05L91.146,203.586L104.673,206.597L116.529,213.771L125.474,224.354L125.468,224.343L150.126,242.449L176.391,212.785L230.613,149.892L238.248,142.942L247.325,138.021L257.315,135.415L267.639,135.276L277.696,137.612L286.902,142.287L294.721,149.029L300.7,157.446L304.49,167.05L305.872,177.282L304.765,187.547L301.234,197.249L295.483,205.824Z"/></g>
</svg>
