<svg xmlns="http://www.w3.org/2000/svg" viewBox="-320 -320 640 640" width="640" height="640"><defs></defs><path data-vector-id="release-left-eye-0" data-ink-role="literal" d="M33.96 -45.3 L37.96 -41.74 L41.34 -38.18 L44.35 -34.43 L47.01 -30.5 L49.36 -26.41 L51.44 -22.14 L53.28 -17.7 L55.12 -12.56 L55.48 -5.38 L55.39 0.99 L54.81 7.16 L53.65 13.17 L51.83 19.03 L49.29 24.75 L45.96 30.33 L41.77 35.84 L37.44 40.27 L32.97 44.27 L28.22 47.9 L23.18 51.09 L17.81 53.77 L12.12 55.88 L6.09 57.33 L-0.26 58.05 L-6.39 58.03 L-12.06 57.77 L-17.55 57.14 L-22.9 56.02 L-28.12 54.27 L-33.23 51.8 L-38.21 48.52 L-43.31 44.17 L-47.42 38.49 L-50.49 32.98 L-52.77 27.37 L-54.32 21.67 L-55.24 15.86 L-55.64 9.92 L-55.62 3.82 L-55.28 -2.83 L-53.79 -9.28 L-51.68 -15.28 L-48.99 -20.96 L-45.77 -26.32 L-42.08 -31.33 L-37.95 -36.02 L-33.45 -40.37 L-28.44 -44.54 L-21.09 -48.76 L-13.44 -51.86 L-5.53 -53.83 L2.54 -54.64 L10.65 -54.24 L18.66 -52.58 L26.44 -49.63 Z" fill="#231f25" stroke="none" stroke-width="0" fill-rule="evenodd" stroke-linecap="round" stroke-linejoin="round" opacity="1"/><path data-vector-id="release-left-eye-1" data-ink-role="literal" d="M31.31 -41.63 C41.22 -33.49 46.64 -23.72 50.66 -11.67 C51.97 5.77 49.78 19.35 38.36 32.9 C27.86 44.26 15.42 52.7 -0.51 53.55 C-16.4 53.72 -28.01 52.51 -39.98 41.09 C-50.86 27.66 -51.97 14.63 -50.81 -2.2 C-48.03 -18.11 -38.48 -31.06 -25.86 -40.84 C-8.42 -52.47 13.68 -53.72 31.31 -41.63 Z" fill="#ffbf50" stroke="none" stroke-width="0" fill-rule="nonzero" stroke-linecap="round" stroke-linejoin="round" opacity="1"/></svg>