<?xml version="1.0" encoding="UTF-8"?>
<!-- Generated by @neplex/vectorizer (Using visioncortex VTracer) -->
<svg xmlns="http://www.w3.org/2000/svg" width="520" height="264" viewBox="2 2 520 264" preserveAspectRatio="xMidYMid meet">
<path d="M0 0 C0.87 -0 1.73 -0.01 2.63 -0.01 C45.14 -0.02 45.14 -0.02 60.38 12.31 C65.33 17.38 65.33 17.38 65.5 21.12 C65.46 21.85 65.42 22.57 65.38 23.31 C66.37 23.64 67.36 23.97 68.38 24.31 C69.61 26.79 69.53 28.51 69.59 31.27 C69.6 31.78 69.6 31.78 69.67 34.36 C69.69 35.46 69.72 36.56 69.75 37.69 C70.06 47.62 70.99 57.24 72.66 67.04 C73.34 71.13 73.89 75.19 74.38 79.31 C74.81 78.73 75.25 78.15 75.7 77.55 C81.67 70.21 88.44 66.29 97.38 63.31 C106.59 62.56 114.96 63.26 123.38 67.31 C124.37 68.3 125.36 69.29 126.38 70.31 C125.19 75.06 123.87 75.97 120.38 79.31 C119.08 80.83 117.79 82.35 116.5 83.88 C113.09 87.76 110.02 90.09 105.38 92.31 C106.28 93.28 107.19 94.25 108.12 95.25 C114.4 102.69 115.83 108.99 115.61 118.69 C115.38 121.31 115.38 121.31 114.38 122.31 C103.38 122.23 92.4 120.21 84.38 112.31 C81.24 108.75 78.27 105.08 75.38 101.31 C74.41 116.42 79.44 128.43 89.06 139.94 C95.66 147.06 103.57 152.32 112.38 156.31 C112.4 155.9 112.4 155.9 112.5 153.81 C114.34 146.47 119.62 141.75 125.45 137.25 C127.38 136.31 127.38 136.31 131.38 137.31 C132.79 139.02 132.79 139.02 134 141.12 C134.4 141.81 134.81 142.5 135.23 143.21 C136.32 145.22 137.35 147.26 138.38 149.31 C139 148.95 139.62 148.59 140.25 148.22 C151.31 142.43 163.5 143.1 175.38 146.31 C176.38 147.31 176.38 147.31 176.81 151.19 C176.72 158.16 173.28 164.35 168.45 169.27 C166.8 170.67 165.09 172 163.38 173.31 C163.05 173.97 162.71 174.63 162.38 175.31 C163.08 175.4 163.78 175.48 164.5 175.56 C171.75 177.45 178.01 183.51 181.91 189.78 C182.39 190.63 182.88 191.49 183.38 192.38 C186.89 198.56 190.95 202.1 197.38 205.31 C199.61 205.6 199.61 205.6 202.04 205.66 C202.94 205.69 203.83 205.72 204.75 205.75 C205.68 205.77 206.61 205.79 207.56 205.81 C225.95 206.26 238.5 211.93 251.38 225.31 C254.1 228.36 256.08 230.99 257 235.06 C256.38 237.31 256.38 237.31 254.44 239 C240.59 244.93 224.18 243.59 210.38 238.31 C210.04 238.14 210.04 238.14 208.37 237.29 C202.14 234.16 197.02 233.85 190.12 234.12 C188.2 234.18 186.28 234.23 184.36 234.27 C183.52 234.3 182.68 234.33 181.82 234.36 C179.23 234.31 176.89 233.89 174.38 233.31 C174.81 233.98 175.24 234.64 175.69 235.32 C176.24 236.21 176.8 237.09 177.38 238 C177.65 238.44 177.65 238.44 179.06 240.64 C180.5 243.56 180.97 245.11 180.38 248.31 C175.81 253.34 167.69 252.87 161.38 253.31 C151.69 253.42 142.07 251.8 132.5 250.44 C131.35 250.28 130.19 250.11 129 249.95 C113.72 247.67 113.72 247.67 107.97 243.62 C103.76 241.5 99.49 242.22 94.88 242.44 C83.62 242.69 74.71 241.26 66 233.62 C64.8 232.86 63.61 232.1 62.38 231.31 C59 233.56 59 233.56 57.29 235.38 C55.15 237.54 52.98 238.99 50.38 240.56 C49.59 241.04 48.81 241.52 48 242.02 C42.35 244.8 37.13 245.59 30.88 245.56 C29.63 245.57 28.38 245.57 27.09 245.58 C23.37 245.31 23.37 245.31 19.72 244.23 C13.93 242.64 10.52 244.58 5.38 247.31 C-4.02 252.3 -13.51 252.15 -23.8 249.49 C-26.48 248.55 -29.05 247.5 -31.62 246.31 C-32.37 245.99 -33.12 245.67 -33.89 245.34 C-35.88 244.38 -35.88 244.38 -38.62 242.31 C-38.94 240 -38.94 240 -37.62 237.31 C-35.71 234.9 -33.67 232.62 -31.62 230.31 C-31.62 229.65 -31.62 228.99 -31.62 228.31 C-32.22 227.76 -32.82 227.2 -33.44 226.62 C-37.18 222.67 -38.62 218.72 -38.62 213.31 C-44.27 217.08 -48.53 221.33 -53 226.38 C-59.21 233.3 -65.21 237.87 -74.62 239.31 C-80.9 239.63 -86.82 239.84 -92.88 238.06 C-93.33 237.94 -93.33 237.94 -95.62 237.31 C-96.28 238.63 -96.94 239.95 -97.62 241.31 C-99.66 242.91 -99.66 242.91 -102.12 244.38 C-102.92 244.86 -103.71 245.35 -104.53 245.85 C-113.58 250.13 -123.14 251.3 -133 252.5 C-134.41 252.67 -135.82 252.85 -137.27 253.02 C-145.29 253.95 -153.24 254.68 -161.31 254.69 C-162.1 254.69 -162.89 254.69 -163.7 254.69 C-171.26 254.54 -171.26 254.54 -174.62 252.31 C-175.64 249.49 -175.64 249.49 -175.62 246.31 C-171.59 238.7 -164.1 232.81 -157.62 227.31 C-161.18 227.86 -162.49 228.2 -165.31 230.62 C-174.45 238.04 -184.16 238.24 -195.62 237.31 C-198.3 236.67 -200.97 236.01 -203.62 235.31 C-209.48 234.68 -214.72 235.21 -220.38 236.81 C-231.47 239.84 -243.23 239.51 -253.62 234.31 C-255.04 230.88 -254.68 229.45 -253.25 226 C-246.15 214.85 -234.04 209.32 -221.62 206.31 C-219.25 205.85 -216.88 205.39 -214.5 204.94 C-208.47 203.7 -204.59 201.9 -199.62 198.31 C-198.97 197.98 -198.97 197.98 -195.62 196.31 C-195.62 195.65 -195.62 194.99 -195.62 194.31 C-193 192.91 -190.37 191.6 -187.69 190.31 C-180.98 186.95 -176.36 183.56 -171.63 177.62 C-168.51 174.03 -164.71 171.69 -160.62 169.31 C-161.19 168.92 -161.76 168.53 -162.35 168.13 C-169.74 162.78 -174.71 156.89 -178.25 148.44 C-178.04 147.41 -177.84 146.38 -177.62 145.31 C-170.77 141.38 -162.85 140.17 -155.06 140.19 C-153.95 140.18 -152.83 140.18 -151.68 140.18 C-148.62 140.31 -148.62 140.31 -144.62 141.31 C-144.67 140.66 -144.72 140 -144.77 139.33 C-145.07 131.71 -143.7 125.3 -140.62 118.31 C-139.97 117.65 -139.31 116.99 -138.62 116.31 C-130.6 117.04 -120.96 122.48 -115.62 128.31 C-113.1 132.55 -110.81 136.89 -108.62 141.31 C-99.7 133.12 -93.03 125.32 -87.62 114.31 C-87.18 113.43 -86.74 112.56 -86.28 111.65 C-74.19 86.5 -68.85 60.09 -68.05 32.33 C-67.84 26.53 -67.84 26.53 -65.62 24.31 C-64.63 24.31 -63.65 24.31 -62.62 24.31 C-62.56 23.28 -62.5 22.25 -62.44 21.19 C-61.42 16.34 -60.28 14.68 -56.62 11.31 C-39.93 0.43 -19.26 0.06 0 0 Z " fill="#0e0302" transform="translate(260.625,6.6875)"/>
<path d="M0 0 C0.66 0 1.32 0 2 0 C2.86 1.87 2.86 1.87 3.75 4.44 C6.08 10.59 9.53 15.57 13.36 20.88 C21.83 33.35 23.35 48.84 20.67 63.38 C19.99 66.04 19.08 68.48 18 71 C18.66 71 19.32 71 20 71 C20.94 69.13 20.94 69.13 22 66 C22.26 65.33 22.52 64.66 22.79 63.97 C26.48 53.58 25.78 42.58 23.24 31.98 C23.2 31.65 23.2 31.65 23 30 C23.33 29.84 23.33 29.84 25 29 C35.02 33.97 39.89 40.91 43.51 51.14 C44.96 54.9 46.63 58.43 48.41 62.04 C52.45 70.21 55.78 77.87 57 87 C57.17 87.96 57.34 88.93 57.52 89.92 C57.83 92.96 57.86 95.07 57 98 C54.72 100.65 52.28 102.71 49.55 104.88 C43.83 109.64 41.34 116.11 39 123 C37.63 122.13 36.28 121.23 34.94 120.31 C34.18 119.81 33.43 119.31 32.65 118.8 C31 117 31 117 31.04 114.67 C32.18 111.51 33.68 108.86 35.44 106 C37.64 102.4 39.55 98.97 41 95 C40.34 95 39.68 95 39 95 C38.89 95.33 38.89 95.33 38.31 97 C36.39 101.39 33.27 104.54 30 108 C29.29 108.9 28.58 109.8 27.85 110.73 C23.93 113.85 20.47 113.56 15.69 113.31 C14.85 113.29 14.02 113.27 13.15 113.24 C11.1 113.19 9.05 113.1 7 113 C7.59 128.61 7.59 128.61 11 136 C11.33 136.99 11.66 137.98 12 139 C9.94 140.81 9.94 140.81 7 142 C3.44 141.43 1.63 140.66 -0.88 138.06 C-4.57 127.99 -0.57 118.56 3 109 C3.33 108.01 3.66 107.02 4 106 C3.47 106.77 2.93 107.55 2.38 108.34 C-3.68 116.82 -10.04 122.72 -18.69 128.44 C-22.29 131.22 -24.55 134.16 -27.25 137.79 C-31.81 143.55 -37.5 147.85 -44.69 149.69 C-57.64 150.91 -57.64 150.91 -62 148 C-60.33 140.87 -56.95 135.12 -53 129 C-58.7 130.74 -60.9 133.97 -63.68 139.09 C-63.95 139.63 -63.95 139.63 -65.31 142.38 C-69.48 150.2 -73.69 155.8 -82.18 159.16 C-88.66 161.08 -95.33 162.04 -102 163 C-103.39 163.21 -104.78 163.42 -106.21 163.63 C-116.85 165.06 -127.29 165.21 -138 165 C-138 162 -138 162 -136.46 160.18 C-135.75 159.51 -135.04 158.84 -134.31 158.16 C-133.53 157.41 -132.75 156.66 -131.95 155.89 C-131.12 155.1 -130.29 154.31 -129.44 153.5 C-120.3 144.57 -113.46 136.45 -110 124 C-104.82 105.86 -95.1 90.67 -78.45 81.09 C-70.97 77.77 -63.94 77.66 -55.91 77.61 C-46.59 77.37 -39.65 74.34 -32.85 67.97 C-25.12 59.72 -21.72 50.15 -19.69 39.19 C-17.25 27.25 -11.04 17.56 -3.92 7.84 C-2 5 -2 5 -0.86 2.13 C-0.72 1.78 -0.72 1.78 0 0 Z " fill="#7c4331" transform="translate(231,90)"/>
<path d="M0 0 C0.43 -0.01 0.43 -0.01 2.63 -0.05 C6.94 -0.05 10.49 0.2 14.51 1.82 C18.16 3.28 20.5 3.58 24.38 3.56 C29.65 3.88 29.65 3.88 32.25 5.75 C33.81 7.56 33.81 7.56 36.25 11.31 C36.83 12.14 37.4 12.96 38 13.81 C39.25 16.31 39.25 16.31 40.25 19.94 C41.25 23.31 41.25 23.31 44.25 26.31 C47.74 32.98 48.82 40.3 50.06 47.62 C51.67 56.86 54.61 64.14 59.25 72.31 C60.68 75.09 62.06 77.89 63.44 80.69 C64.07 81.95 64.7 83.22 65.36 84.52 C66.33 86.47 67.3 88.42 68.24 90.39 C70.18 94.41 72.24 97.93 75.06 101.38 C75.69 102.15 76.31 102.92 76.96 103.72 C82.45 109.92 87.9 114.63 94.94 119 C102.15 123.61 107.9 128.46 113.67 134.82 C118.02 139.03 122.9 141.27 129.02 141.35 C130.07 141.31 131.12 141.27 132.2 141.23 C132.78 141.22 132.78 141.22 135.71 141.16 C138.13 141.09 140.55 141.02 142.97 140.92 C151.78 140.77 158.66 142.08 165.29 148.2 C168.53 151.61 170.85 155.28 173.12 159.38 C176.65 165.49 181.43 169.66 187.92 172.47 C192.31 173.58 196.54 173.7 201.06 173.81 C215.89 174.19 226.73 177.42 237.44 187.94 C238.03 188.51 238.62 189.09 239.22 189.68 C240.86 191.35 240.86 191.35 243.25 194.31 C242.92 195.3 242.59 196.29 242.25 197.31 C239.16 197.89 236.38 198.17 233.25 198.31 C232.71 198.34 232.71 198.34 229.96 198.47 C214.28 198.87 202.2 193.94 189.25 185.31 C189.58 186.63 189.91 187.95 190.25 189.31 C188.29 191.27 184.78 190.58 182.19 190.62 C170.35 190.54 158.88 188.53 149.25 181.31 C148.58 180.93 147.9 180.55 147.21 180.15 C141 176.35 139.27 171.35 136.67 164.73 C133.32 156.67 128.8 152.48 121.25 148.31 C121.69 148.82 122.12 149.33 122.57 149.86 C128.77 157.42 132.95 165.54 136.19 174.75 C138.4 180.44 142.08 182.67 147.42 185.44 C156.24 190.06 162.71 196.39 167.25 205.31 C166.59 206.3 165.93 207.29 165.25 208.31 C151.8 210.35 141.54 207.76 130.25 200.31 C126.99 197.87 123.88 195.43 121.25 192.31 C121.25 191.65 121.25 190.99 121.25 190.31 C119.93 189.98 118.61 189.65 117.25 189.31 C117.25 190.96 117.25 192.61 117.25 194.31 C113.19 192.28 112.6 191.72 110.44 188.06 C105.94 181.09 100.99 177.62 93.69 173.94 C85.28 169.55 81.44 164.2 78.25 155.31 C77.56 152.37 77.56 152.37 77.25 150.31 C76.18 150.48 75.11 150.64 74 150.81 C57.46 152.81 57.46 152.81 51.25 148.31 C47.89 145.23 47.07 142.81 46.44 138.44 C45.61 133.3 43.61 131.27 39.82 127.9 C38.25 126.31 38.25 126.31 37.12 123.19 C37.28 119.67 38.05 118.05 40.25 115.31 C43.86 113.51 46.33 112.85 50.25 112.31 C49.51 111.24 48.76 110.17 48 109.06 C42.35 100.06 40.29 89.97 39.88 79.5 C39.09 64.43 36.83 44.18 28.25 31.31 C28.27 31.71 28.27 31.71 28.36 33.7 C28.56 41.82 28 49.6 25.25 57.31 C24.59 57.31 23.93 57.31 23.25 57.31 C23.17 55.99 23.08 54.67 23 53.31 C22.44 48.2 20.71 44.81 18.25 40.31 C18.05 39.78 18.05 39.78 17.06 37.06 C14.69 32.16 11.47 28.16 8.11 23.89 C6.25 21.31 6.25 21.31 6.25 19.31 C0.07 17.29 -6.61 15.75 -12.89 18.12 C-17.94 20.91 -20.64 24.58 -23.52 29.52 C-23.93 30.11 -24.33 30.7 -24.75 31.31 C-25.41 31.31 -26.07 31.31 -26.75 31.31 C-28.39 23.59 -27.78 18.59 -23.64 11.83 C-17.2 3.24 -10.73 -0.04 0 0 Z " fill="#b6683f" transform="translate(266.75,44.6875)"/>
<path d="M0 0 C2.57 0.02 5.14 0.02 7.71 0.01 C26.59 0.04 48.91 0.52 63.51 14.21 C65.12 17.64 65.21 19.59 64.51 23.34 C58.72 31.27 47.86 34.82 38.51 36.34 C33.2 36.66 29.1 36.32 24.01 34.84 C12.89 31.85 1.23 32.15 -9.49 36.34 C-9.82 36.67 -10.15 37 -10.49 37.34 C-11.65 37.48 -12.8 37.62 -13.99 37.77 C-15.15 37.96 -16.3 38.14 -17.49 38.34 C-17.66 38.67 -17.66 38.67 -18.49 40.34 C-17.83 40.34 -17.17 40.34 -16.49 40.34 C-17.78 43.69 -19.25 46.81 -20.97 49.97 C-23.64 55.26 -24.84 60.42 -25.93 66.21 C-28.48 78.39 -32.6 89.26 -41.49 98.34 C-42.15 98.34 -42.81 98.34 -43.49 98.34 C-43.66 99 -43.66 99 -44.49 102.34 C-45.11 103.72 -45.75 105.1 -46.41 106.47 C-48.6 111.29 -49.75 116.11 -50.87 121.27 C-52.63 128.83 -54.69 135.11 -59.49 141.34 C-60.34 142.47 -61.18 143.6 -62.06 144.77 C-64.41 147.25 -66.43 148.85 -69.49 150.34 C-70.15 150.34 -70.81 150.34 -71.49 150.34 C-71.49 149.02 -71.49 147.7 -71.49 146.34 C-72.3 147.31 -73.1 148.27 -73.93 149.27 C-78.47 153.24 -83.26 152.94 -89.07 153.08 C-95.02 153.23 -99.98 154.18 -105.49 156.34 C-106.01 156.53 -106.01 156.53 -108.62 157.52 C-108.93 157.66 -108.93 157.66 -110.49 158.34 C-109.13 148.54 -100.56 140.27 -93.01 134.41 C-84.3 127.23 -80.14 116.74 -75.82 106.6 C-75.41 105.66 -75.01 104.73 -74.59 103.76 C-74.24 102.91 -73.88 102.06 -73.51 101.18 C-73.34 100.88 -73.34 100.88 -72.49 99.34 C-71.83 99.34 -71.17 99.34 -70.49 99.34 C-67.57 109.74 -67.59 119.52 -72.49 129.34 C-72.49 130.33 -72.49 131.32 -72.49 132.34 C-61.62 116.61 -56.71 100.18 -54.49 81.34 C-55.15 81.34 -55.81 81.34 -56.49 81.34 C-56.97 83.68 -57.44 86.03 -57.86 88.38 C-58.88 93.14 -60.19 98.02 -62.49 102.34 C-63.48 102.34 -64.47 102.34 -65.49 102.34 C-69.58 93.63 -68.28 85.67 -65.64 76.85 C-61.4 62.62 -60.09 47.99 -60.05 33.18 C-60 30.51 -60 30.51 -59.49 26.34 C-58.17 26.01 -56.85 25.68 -55.49 25.34 C-55.49 23.1 -55.5 20.85 -55.58 18.61 C-55.49 16.34 -55.49 16.34 -54.18 13.65 C-39.29 0.83 -18.72 -0.18 0 0 Z " fill="#915037" transform="translate(257.493408203125,9.663818359375)"/>
<path d="M0 0 C5.4 2.96 7.67 7 10.88 12.12 C11.76 13.28 12.65 14.44 13.56 15.62 C16.4 19.92 18.09 24.33 19.88 29.12 C20.04 29.45 20.04 29.45 20.88 31.12 C21.01 34.13 20.92 37.12 20.88 40.12 C21.53 40.12 22.19 40.12 22.88 40.12 C24.56 31.04 25.12 22.36 24.88 13.12 C34.32 21.59 36.2 40.98 37.88 53.12 C38.02 55.83 38.15 58.54 38.25 61.25 C38.87 73.13 41.05 87.3 49.88 96.12 C49.19 96.25 48.5 96.37 47.79 96.49 C46.89 96.66 45.99 96.83 45.06 97 C44.17 97.16 43.28 97.32 42.36 97.49 C39.88 98.12 39.88 98.12 36.88 100.12 C35.81 103.55 35.54 105.37 37 108.69 C38.88 111.13 38.88 111.13 41.44 113.31 C44.45 116.78 44.65 119.32 45.36 123.75 C46.08 127.06 47.39 128.86 49.88 131.12 C53.6 132.95 56.56 133.37 60.69 133.31 C61.73 133.31 62.78 133.3 63.86 133.3 C66.54 133.14 68.84 132.7 71.44 132.06 C72.57 132.08 73.71 132.1 74.88 132.12 C76.5 135.94 76.5 135.94 77.12 138.44 C78.87 144.65 82.18 150.43 87.69 153.94 C89.07 154.69 90.47 155.42 91.88 156.12 C101.69 161.15 107.19 166.71 112.88 176.12 C113.53 176.46 114.19 176.78 114.88 177.12 C114.88 175.47 114.88 173.82 114.88 172.12 C118.88 173.12 118.88 173.12 121.25 176.19 C126.3 182.47 134.43 186.35 141.81 189.29 C142.15 189.43 142.15 189.43 143.88 190.12 C143.88 190.46 143.88 190.78 143.88 191.12 C136.91 191.36 130.31 190.47 123.44 189.38 C122.36 189.22 121.28 189.06 120.16 188.9 C112.87 187.75 105.56 186.36 99.84 181.34 C96.57 179.32 93.05 180.23 89.38 180.62 C78.77 181.47 69.97 180.62 61.5 173.62 C59.92 172.16 58.4 170.65 56.88 169.12 C56.99 166.21 57.51 163.49 58.04 160.62 C58.01 160.21 58.01 160.21 57.88 158.12 C53.92 155.49 49.19 155.73 44.56 155.5 C43.84 155.46 43.84 155.46 40.2 155.27 C39.65 155.25 39.65 155.25 36.88 155.12 C37.36 152.38 37.96 149.89 38.92 147.27 C41.55 138.61 40.29 128.71 37.88 120.12 C33.78 120.6 29.88 121.12 25.88 122.12 C24.88 118.75 23.93 115.41 23.23 111.97 C20.87 101.14 15.96 92.17 10.72 82.49 C8.53 78.43 6.61 74.37 4.94 70.06 C1.43 61.27 -4.54 57.27 -12.12 52.12 C-21.67 45.44 -29.28 37.69 -31.81 25.94 C-32.97 11.82 -32.97 11.82 -30.12 6.12 C-29.79 8.77 -29.47 11.41 -29.12 14.12 C-26.8 11.8 -25.2 9.85 -23.38 7.19 C-17.03 -1.27 -9.78 -2.08 0 0 Z " fill="#7c4331" transform="translate(269.125,61.875)"/>
<path d="M0 0 C0.97 0.29 1.94 0.58 2.94 0.88 C4.71 4.42 5.25 6.05 5.56 9.81 C5.6 10.23 5.6 10.23 5.79 12.34 C5.94 14.88 5.94 14.88 5.8 17.56 C5.85 18.33 5.89 19.09 5.94 19.88 C6.76 20.56 7.59 21.24 8.44 21.94 C11.79 25.88 11.71 28.54 11.48 33.6 C10.27 40.89 7.31 46.95 1.56 51.62 C-2.06 52.88 -2.06 52.88 -6.09 52.42 C-7.4 52.57 -8.71 52.72 -10.06 52.88 C-11.66 55.92 -12.47 58.11 -13.25 61.38 C-15.21 68.84 -17.45 75.26 -23.06 80.88 C-26.44 81.31 -26.44 81.31 -30.06 80.88 C-33.24 77.52 -35.21 73.89 -37.19 69.75 C-38.69 66.62 -40.13 63.77 -42.06 60.88 C-46.19 60.19 -46.19 60.19 -50.06 59.88 C-49.9 60.53 -49.9 60.53 -49.06 63.88 C-50.79 66.21 -50.79 66.21 -53.25 68.69 C-56.1 71.67 -58.52 74.31 -60.38 78 C-60.93 78.95 -61.49 79.9 -62.06 80.88 C-63.38 80.88 -64.7 80.88 -66.06 80.88 C-66.1 81.66 -66.15 82.44 -66.19 83.25 C-68.84 94.23 -77.92 104.79 -87.16 110.93 C-95.97 115.58 -104.29 116.04 -114.06 115.94 C-114.93 115.93 -115.8 115.93 -116.7 115.92 C-118.82 115.91 -120.94 115.89 -123.06 115.88 C-123.06 112.88 -123.06 112.88 -121.52 111.06 C-121.17 110.72 -121.17 110.72 -119.37 109.03 C-118.98 108.66 -118.98 108.66 -117.02 106.77 C-116.6 106.37 -116.6 106.37 -114.5 104.38 C-105.36 95.45 -98.53 87.33 -95.06 74.88 C-89.88 56.74 -80.16 41.55 -63.51 31.96 C-56.03 28.65 -49 28.53 -40.98 28.48 C-31.64 28.24 -24.74 25.2 -17.91 18.87 C-14.8 15.51 -12.43 11.77 -10.06 7.88 C-4.92 -0.2 -4.92 -0.2 0 0 Z " fill="#939223" transform="translate(216.0625,139.125)"/>
<path d="M0 0 C2.57 0.02 5.14 0.02 7.71 0.01 C26.59 0.04 48.91 0.52 63.51 14.21 C65.12 17.64 65.21 19.59 64.51 23.34 C58.72 31.27 47.86 34.82 38.51 36.34 C33.2 36.66 29.1 36.32 24.01 34.84 C13.7 32.07 2.99 32.12 -7.07 35.65 C-19.6 39.19 -36.07 34.7 -47.49 29.34 C-51.07 27.17 -53.17 25.83 -55.49 22.34 C-55.94 18.88 -55.81 16.93 -54.18 13.84 C-39.91 0.56 -18.43 -0.18 0 0 Z " fill="#f8bd5a" transform="translate(257.493408203125,9.663818359375)"/>
<path d="M0 0 C-1.62 3.25 -3.33 6.1 -5.31 9.12 C-11.11 18.24 -14.76 26.83 -17.69 37.27 C-19.04 41.12 -20.35 43.9 -23 47 C-25.63 47.74 -25.63 47.74 -28.56 47.88 C-34.96 48.61 -38.54 51.06 -43.43 55.12 C-48.81 59.05 -53.84 59.27 -60.38 59.25 C-61.81 59.26 -63.24 59.26 -64.71 59.27 C-69.19 58.99 -72.75 58.4 -77 57 C-77.5 54.38 -77.5 54.38 -77 52 C-81.53 53.76 -85.89 55.8 -90.28 57.88 C-95.35 59.97 -99.98 60.16 -105.44 60.19 C-106.08 60.19 -106.08 60.19 -109.31 60.23 C-112.93 60 -115.67 59.43 -119 58 C-119.33 57.34 -119.66 56.68 -120 56 C-114.5 47.55 -104.68 42.21 -95 40 C-92.31 39.51 -89.63 39.03 -86.94 38.56 C-76.51 36.65 -70.82 32.94 -62.75 26.13 C-58.37 22.74 -53.67 20 -48 20 C-47.34 18.68 -46.68 17.36 -46 16 C-39.6 7.25 -31.06 1.33 -20.62 -1.69 C-13.28 -2.56 -7.11 -1.8 0 0 Z " fill="#9d593a" transform="translate(133,179)"/>
<path d="M0 0 C0.33 0 0.66 0 1 0 C1.5 1.51 1.95 3.03 2.38 4.56 C3.62 8.87 5.14 12.92 7 17 C5.51 17.5 5.51 17.5 -2 20 C-1 24 -1 24 1.06 25.31 C1.38 25.59 1.38 25.59 3 27 C3.04 29.33 3.04 31.67 3 34 C6 37 6 37 9.81 37.31 C14 37 14 37 16.94 35.79 C20 35 20 35 22.67 36.13 C28.83 41 31.03 44.56 32.44 52.27 C33.16 55.75 34.2 57.78 37 60 C39.55 59.95 39.55 59.95 42 59 C42.93 56.5 42.93 56.5 43.31 53.44 C43.45 52.43 43.59 51.41 43.74 50.37 C43.82 49.59 43.91 48.81 44 48 C52.67 48.69 52.67 48.69 55.79 51.77 C56.77 53.18 57.72 54.6 58.65 56.04 C62.48 61.62 68.86 63.14 75 65 C75.16 64.5 75.16 64.5 76 62 C76.29 62.64 76.29 62.64 77.75 65.88 C78.12 66.69 78.49 67.51 78.87 68.35 C80 71 80 71 80.91 73.65 C83.37 80.73 86.4 83.62 93.17 87.12 C101.99 91.75 108.46 98.08 113 107 C112.34 107.99 111.68 108.98 111 110 C97.55 112.04 87.29 109.45 76 102 C72.74 99.56 69.63 97.12 67 94 C67 93.34 67 92.68 67 92 C66.34 91.84 66.34 91.84 63 91 C63 92.65 63 94.3 63 96 C58.94 93.97 58.35 93.41 56.19 89.75 C51.69 82.77 46.74 79.31 39.44 75.62 C31.03 71.24 27.19 65.89 24 57 C23.31 54.06 23.31 54.06 23 52 C22.46 52.08 22.46 52.08 19.75 52.5 C3.21 54.5 3.21 54.5 -3 50 C-6.36 46.92 -7.18 44.5 -7.81 40.12 C-8.64 34.99 -10.64 32.96 -14.43 29.59 C-16 28 -16 28 -17.12 24.88 C-16.97 21.35 -16.2 19.74 -14 17 C-10.23 15.12 -8.32 14.67 -4.25 14.38 C-3.76 14.34 -3.76 14.34 -1.27 14.15 C-0.52 14.1 0.23 14.05 1 14 C0.92 13.64 0.92 13.64 0.5 11.8 C-0.21 7.82 -0.06 4.04 0 0 Z " fill="#939223" transform="translate(321,143)"/>
<path d="M0 0 C1.95 1.01 3.91 2.02 5.86 3.03 C9.98 4.9 13.51 5.08 17.95 4.92 C18.53 4.91 18.53 4.91 21.46 4.84 C23.88 4.78 26.3 4.7 28.72 4.61 C37.53 4.45 44.41 5.77 51.04 11.88 C54.28 15.3 56.6 18.97 58.88 23.06 C62.4 29.18 67.18 33.35 73.67 36.16 C78.06 37.27 82.29 37.39 86.81 37.5 C101.64 37.88 112.48 41.1 123.19 51.62 C123.78 52.2 124.37 52.77 124.97 53.37 C126.61 55.04 126.61 55.04 129 58 C128.67 58.99 128.34 59.98 128 61 C124.91 61.58 122.13 61.86 119 62 C117.91 62.05 116.83 62.11 115.71 62.16 C100.03 62.56 87.95 57.63 75 49 C75.16 49.66 75.16 49.66 76 53 C74.04 54.96 70.53 54.26 67.94 54.31 C56.1 54.23 44.63 52.22 35 45 C34.33 44.62 33.65 44.23 32.96 43.84 C26.75 40.04 25.02 35.03 22.42 28.42 C19.07 20.36 14.55 16.17 7 12 C6.67 12.66 6.34 13.32 6 14 C0.98 11.27 0.98 11.27 -1 9 C-1.34 5.69 -0.74 3.3 0 0 Z " fill="#9d593a" transform="translate(381,181)"/>
<path d="M0 0 C7.35 1.87 10.9 6.69 15.18 12.59 C20.36 18.99 26.04 23.53 33 27.88 C48.17 37.76 48.17 37.76 52.19 44.06 C52.47 46.77 52.27 49.12 51.96 51.81 C52.19 54.06 52.19 54.06 53.98 55.81 C55.58 56.81 57.21 57.78 58.86 58.7 C62.15 60.62 64.09 62.91 66.19 66.06 C67 69.44 67 69.44 67.19 72.06 C58.02 70.4 52.96 67.65 47.19 60.06 C46.86 59.4 46.53 58.74 46.19 58.06 C43.9 57.21 43.9 57.21 41.12 56.44 C40.21 56.18 39.29 55.92 38.34 55.65 C37.63 55.46 36.92 55.26 36.19 55.06 C36.25 56.28 36.31 57.5 36.38 58.75 C36.19 62.98 36.07 64.98 33.19 68.06 C29.89 68.23 28.55 67.38 26.06 65.25 C24.16 62.01 23.69 59.83 23 56.19 C21.66 50.26 19.48 47.43 14.45 44.07 C12.19 43.06 12.19 43.06 9.12 43.62 C8.16 44.1 7.19 44.57 6.19 45.06 C-0.8 45.7 -0.8 45.7 -4.31 43.5 C-5.81 41.06 -5.81 41.06 -5.75 37.56 C-5.76 36.99 -5.76 36.99 -5.81 34.06 C-7.44 32.68 -9.1 31.34 -10.81 30.06 C-10.48 28.74 -10.15 27.42 -9.81 26.06 C-5.75 24.81 -5.75 24.81 -1.81 24.06 C-2.17 23.29 -2.53 22.52 -2.91 21.72 C-7.77 10.79 -7.77 10.79 -6.81 4.06 C-5.24 0.04 -4.35 0.07 0 0 Z " fill="#c5c729" transform="translate(328.8125,135.9375)"/>
<path d="M0 0 C0.66 0 1.32 0 2 0 C2 2.31 2 4.62 2 7 C2.66 7 3.32 7 4 7 C5.4 9.44 6.66 11.85 7.88 14.38 C8.23 15.11 8.59 15.85 8.96 16.62 C9.66 18.09 10.36 19.56 11.06 21.04 C11.8 22.59 12.6 24.11 13.41 25.62 C18.91 36.72 16.87 51.9 13.39 63.32 C11.33 68.77 8.81 73.92 6.09 79.05 C3.48 83.98 1.07 89 -1.36 94.01 C-6.23 102.89 -13.43 105.88 -22.45 109.66 C-25.18 111.09 -26.94 112.72 -29 115 C-28.57 109.04 -27.83 102.81 -24 98 C-20.13 97.62 -20.13 97.62 -16 98 C-9.67 95.64 -7.87 92.27 -5.14 86.34 C-3.37 81.17 -2.85 76.37 -4 71 C-6.5 68.31 -6.5 68.31 -9 66 C-9.19 61.75 -9.19 61.75 -9.07 59.42 C-8.95 55.22 -9.63 52 -11 48 C-13.88 46.81 -13.88 46.81 -17 47 C-18.32 47.66 -19.64 48.32 -21 49 C-18.84 31.35 -12.74 18.31 -2.38 3.96 C-1 2 -1 2 0 0 Z " fill="#915037" transform="translate(230,93)"/>
<path d="M0 0 C0.5 0.74 0.99 1.49 1.5 2.25 C0.45 6.46 -0.41 7.53 -3.31 10.56 C-5.91 13.36 -8.02 15.9 -9.75 19.31 C-10.04 19.8 -10.04 19.8 -11.5 22.25 C-12.82 22.25 -14.14 22.25 -15.5 22.25 C-15.54 23.03 -15.58 23.82 -15.62 24.62 C-18.28 35.61 -27.36 46.17 -36.6 52.31 C-45.4 56.95 -53.73 57.41 -63.5 57.31 C-64.37 57.31 -65.24 57.3 -66.14 57.3 C-68.26 57.29 -70.38 57.27 -72.5 57.25 C-72.5 54.25 -72.5 54.25 -70.96 52.43 C-70.6 52.1 -70.6 52.1 -68.81 50.41 C-68.03 49.66 -67.25 48.91 -66.45 48.14 C-66.04 47.75 -66.04 47.75 -63.94 45.75 C-56.38 38.38 -49.89 31.5 -46.06 21.5 C-43.83 16.85 -40.48 14.42 -36.5 11.25 C-35.72 10.56 -34.94 9.88 -34.14 9.17 C-26.46 2.57 -9.86 -6.9 0 0 Z " fill="#b6683f" transform="translate(165.5,197.75)"/>
<path d="M0 0 C2.57 0.02 5.14 0.02 7.71 0.01 C26.59 0.04 48.91 0.52 63.51 14.21 C65.12 17.64 65.21 19.59 64.51 23.34 C58.72 31.27 47.86 34.82 38.51 36.34 C31.29 36.78 24.29 36.01 17.51 33.34 C17.18 32.35 16.85 31.36 16.51 30.34 C17.69 30.18 18.87 30.02 20.09 29.86 C39.83 27.02 39.83 27.02 46.51 20.34 C46.63 18.02 46.63 18.02 45.51 15.34 C30.39 3.36 4.65 4.73 -13.55 6.83 C-29.46 9.34 -29.46 9.34 -35.49 14.34 C-36.85 16.84 -36.85 16.84 -37.49 19.34 C-33.78 24.98 -27.76 26.75 -21.49 28.34 C-14.86 29.58 -8.18 30.47 -1.49 31.34 C-1.49 32 -1.49 32.66 -1.49 33.34 C-13.8 39.61 -27.85 35.88 -40.49 32.34 C-46.43 30 -51.87 27.77 -55.49 22.34 C-55.94 18.88 -55.81 16.93 -54.18 13.84 C-39.91 0.56 -18.43 -0.18 0 0 Z " fill="#f8bd5a" transform="translate(257.493408203125,9.663818359375)"/>
<path d="M0 0 C2.88 0.69 2.88 0.69 3.88 1.69 C4.55 7.26 4.2 11.58 1.56 16.56 C1.01 17.92 0.45 19.28 -0.12 20.69 C2.19 22.88 2.19 22.88 4.88 24.69 C5.14 28.9 4.14 30.38 1.38 33.56 C-3.31 36.4 -5.71 36.15 -11.12 35.69 C-11.78 35.52 -11.78 35.52 -15.12 34.69 C-17.07 35.64 -19.01 36.61 -20.91 37.66 C-23.27 38.75 -25.25 39.09 -27.81 39.44 C-32.36 40.76 -32.69 40.86 -34.88 44.62 C-35.25 45.34 -35.63 46.05 -36.02 46.78 C-37.6 49.5 -39.22 50.55 -42.12 51.69 C-45.31 52.19 -45.31 52.19 -48.12 51.69 C-49.56 49.44 -49.56 49.44 -50.12 46.69 C-49.8 45.37 -49.47 44.05 -49.12 42.69 C-53.77 44.01 -57.19 45.92 -61.12 48.69 C-64.49 50.86 -67.63 52.29 -71.44 53.5 C-76.18 55.14 -79.6 57.23 -83.37 60.52 C-85.12 61.69 -85.12 61.69 -89.12 61.69 C-87.66 51.49 -78.59 43.15 -71.12 36.69 C-61.45 29.7 -52.71 28.36 -41.04 28.3 C-31.7 28.05 -24.81 25.01 -17.97 18.68 C-14.86 15.33 -12.5 11.58 -10.12 7.69 C-4.92 -0.49 -4.92 -0.49 0 0 Z " fill="#c5c729" transform="translate(216.125,139.3125)"/>
<path d="M0 0 C4.74 1.83 9.21 4.06 13.73 6.38 C15.86 7.43 18.02 8.44 20.2 9.38 C27.1 12.43 30.25 15.23 34.17 21.62 C36.88 25.15 40.22 26.53 44.16 28.45 C51.65 32.53 59.81 39.89 63 48 C62.34 48.99 61.68 49.98 61 51 C47.55 53.04 37.29 50.45 26 43 C22.74 40.56 19.63 38.12 17 35 C17 34.34 17 33.68 17 33 C15.68 32.67 14.36 32.34 13 32 C13 33.65 13 35.3 13 37 C8.94 34.97 8.35 34.41 6.19 30.75 C3.3 26.2 0.21 23.34 -4 20 C-4.99 19.01 -5.98 18.02 -7 17 C-6.2 16.73 -5.39 16.46 -4.56 16.19 C-2 14 -2 14 -1.48 11.46 C-1.33 9.51 -1.21 7.55 -1.14 5.59 C-1 3 -1 3 0 0 Z " fill="#b6683f" transform="translate(371,202)"/>
<path d="M0 0 C3.19 1.2 5.99 2.56 8.88 4.38 C17.09 9.03 26.72 10.81 36 12 C34.97 14.92 33.9 17.14 32.05 19.65 C29.66 23.56 28.83 26.96 27.88 31.44 C21.14 62.57 21.14 62.57 10 70 C9.69 71.24 9.38 72.47 9.06 73.75 C7.99 78.03 6.89 80.68 4 84 C2.68 83.67 1.36 83.34 0 83 C-0.6 77.97 0.48 74.01 2 69.25 C4.05 61.47 4.38 54.09 4.38 46.06 C4.38 44.91 4.38 43.76 4.38 42.58 C4.17 26.17 4.17 26.17 1 23 C0.05 17.82 -0.11 12.82 -0.06 7.56 C-0.05 6.14 -0.04 4.72 -0.04 3.25 C-0.02 2.18 -0.01 1.11 0 0 Z " fill="#b6683f" transform="translate(199,37)"/>
<path d="M0 0 C3.17 -0.53 3.17 -0.53 7.4 -0.57 C8.15 -0.57 8.91 -0.58 9.68 -0.59 C11.28 -0.59 12.88 -0.59 14.48 -0.58 C16.9 -0.56 19.31 -0.6 21.73 -0.63 C31.42 -0.68 39.62 0 47.03 6.88 C50.28 10.29 52.59 13.96 54.88 18.06 C58.4 24.18 63.18 28.35 69.67 31.16 C74.06 32.27 78.29 32.39 82.81 32.5 C98.36 32.9 109.14 36.48 120.16 47.79 C122 50 122 50 122 52 C117.36 50.79 113.16 49.43 109 47 C109 46.34 109 45.68 109 45 C106.69 44.44 106.69 44.44 104 44 C103.5 43.84 103.5 43.84 101 43 C98.67 42.96 96.33 42.96 94 43 C90.36 43 87.09 42.66 83.5 42.12 C82.38 41.96 81.25 41.8 80.09 41.63 C77 41 77 41 73 39 C72.2 39.12 71.39 39.25 70.56 39.38 C68 39 68 39 66.64 37.26 C65.76 35.81 64.92 34.34 64.11 32.85 C63 31 63 31 61 30 C61 31.32 61 32.64 61 34 C50.95 30.2 41.69 25.17 33.91 17.75 C29.34 13.56 24.13 11.58 18.32 9.79 C15.93 8.98 13.72 7.97 11.44 6.88 C7.25 4.94 3.59 4.33 -1 4 C-0.67 2.68 -0.34 1.36 0 0 Z " fill="#b6683f" transform="translate(385,186)"/>
<path d="M0 0 C0.91 0.5 1.81 0.99 2.75 1.5 C9.29 4.31 16.8 3.57 23.56 1.94 C24.7 1.96 25.83 1.98 27 2 C28.62 5.81 28.62 5.81 29.25 8.32 C30.99 14.53 34.3 20.31 39.81 23.81 C41.19 24.57 42.59 25.3 44 26 C53.82 31.03 59.32 36.58 65 46 C65.66 46.33 66.32 46.66 67 47 C67 45.35 67 43.7 67 42 C71 43 71 43 73.38 46.06 C78.42 52.34 86.55 56.23 93.93 59.17 C94.62 59.44 95.3 59.72 96 60 C96 60.33 96 60.66 96 61 C87.83 61.43 82.86 59.79 76.75 54.44 C76.11 53.84 75.46 53.24 74.8 52.62 C73 51 73 51 70 49 C70.64 49.95 71.28 50.9 71.94 51.88 C74 55 74 55 75 57 C69.66 56.54 65.43 56.11 61 53 C59.88 51.4 58.8 49.77 57.75 48.12 C54.05 42.59 50.34 39.98 44 38 C40.67 37.39 37.34 36.94 33.98 36.51 C27.5 35.4 23.47 32.01 19.4 27 C17.9 24.86 16.71 22.68 15.5 20.38 C13.33 16.23 10.67 13.92 7 11 C6.67 9.68 6.34 8.36 6 7 C4.68 7.33 3.36 7.66 2 8 C0.68 7.34 -0.64 6.68 -2 6 C-1 2 -1 2 0 0 Z " fill="#915037" transform="translate(317,192)"/>
<path d="M0 0 C0.44 0.38 0.44 0.38 2.69 2.31 C14.35 11.77 30.5 12.62 45 14 C45 14.33 45 14.66 45 15 C43.87 15.12 42.73 15.25 41.56 15.38 C40.39 15.58 39.21 15.79 38 16 C37.67 16.66 37.34 17.32 37 18 C37.66 18 38.32 18 39 18 C37.72 21.36 36.24 24.48 34.53 27.63 C31.85 32.93 30.66 38.08 29.56 43.88 C26.91 56.53 22.44 66.12 14 76 C12.67 72.02 13.65 69.9 15 66 C15.33 65.67 15.33 65.67 17 64 C17.57 62.12 18.06 60.22 18.5 58.31 C19.26 55.05 20.05 51.83 20.99 48.62 C22.09 44.69 22.87 40.75 23.69 36.75 C25.35 29.12 28.24 23.19 33 17 C32.01 17.04 31.03 17.09 30.01 17.13 C18.04 16.74 6.8 11.55 -3 5 C-2.72 8.71 -2.42 12.42 -2.12 16.12 C-2.05 17.17 -1.97 18.22 -1.89 19.3 C-1.46 24.5 -0.94 29.11 1 34 C1.93 37.71 2.12 40.51 2.1 44.3 C2.09 45.5 2.09 46.71 2.09 47.95 C2.08 49.2 2.07 50.46 2.06 51.75 C2.06 53.02 2.05 54.29 2.05 55.6 C2.04 58.73 2.02 61.87 2 65 C1.67 65 1.34 65 1 65 C1 63.02 1 61.04 1 59 C0.34 59 -0.32 59 -1 59 C-1.48 61.34 -1.94 63.69 -2.37 66.04 C-3.38 70.81 -4.7 75.69 -7 80 C-7.99 80 -8.98 80 -10 80 C-14.09 71.3 -12.79 63.34 -10.15 54.52 C-5.9 40.28 -4.6 25.66 -4.55 10.84 C-4.5 8.17 -4.5 8.17 -4 4 C-2.68 3.67 -1.36 3.34 0 3 C0 2.01 0 1.02 0 0 Z " fill="#7c4331" transform="translate(202,32)"/>
<path d="M0 0 C0.86 -0.01 1.73 -0.02 2.62 -0.04 C6.9 -0.02 10.45 0.28 14.44 1.88 C18.09 3.34 20.44 3.65 24.31 3.62 C29.59 3.94 29.59 3.94 32.18 5.81 C33.75 7.62 33.75 7.62 36.19 11.38 C36.76 12.2 37.34 13.02 37.94 13.88 C39.19 16.37 39.19 16.37 40.19 20 C41.19 23.38 41.19 23.38 44.19 26.38 C45.32 28.93 45.32 28.93 46.31 31.81 C46.65 32.76 46.98 33.71 47.32 34.68 C48.64 38.79 49.31 42.33 49.25 46.62 C49.24 47.52 49.23 48.41 49.22 49.33 C49.21 50 49.2 50.68 49.19 51.38 C48.53 51.38 47.87 51.38 47.19 51.38 C45.08 48.35 43.11 45.28 41.17 42.15 C38.34 37.72 35.44 34.58 31.19 31.38 C26.57 27.84 23.32 24.06 19.85 19.46 C16.61 15.39 13.15 12.85 8.19 11.38 C3.68 11.16 -0.82 11.38 -5.33 11.54 C-5.79 11.55 -5.79 11.55 -8.1 11.6 C-8.93 11.63 -9.77 11.65 -10.62 11.68 C-12.81 11.38 -12.81 11.38 -15.81 8.38 C-15.81 5.88 -15.81 5.88 -14.81 3.38 C-10.27 -0.43 -5.62 -0.07 0 0 Z " fill="#c5c729" transform="translate(266.8125,44.625)"/>
<path d="M0 0 C0.99 0 1.98 0 3 0 C3.11 1.24 3.22 2.48 3.33 3.75 C3.49 5.5 3.65 7.25 3.81 9 C3.9 9.94 3.98 10.89 4.07 11.86 C4.55 16.87 5.1 21.87 5.8 26.86 C7.84 41.32 8.36 55.4 8 70 C7.01 70 6.02 70 5 70 C1.77 64.6 0.21 59.43 -0.94 53.25 C-2.43 45.95 -4 38.39 -8 32 C-8.99 32 -9.98 32 -11 32 C-11 31.34 -11 30.68 -11 30 C-11.99 29.67 -12.98 29.34 -14 29 C-14.7 26.84 -15.39 24.67 -16.04 22.49 C-17.37 19.05 -19.43 16.52 -21.79 13.73 C-23 12 -23 12 -23 9 C-20.22 7.97 -20.22 7.97 -16.5 7.06 C-3.69 3.69 -3.69 3.69 0 0 Z " fill="#9d593a" transform="translate(321,39)"/>
<path d="M0 0 C2.09 9.52 1.27 18.42 -3.65 26.82 C-7.1 31.49 -11.24 35.33 -15.42 39.35 C-18.55 42.4 -21.37 45.36 -23.85 48.97 C-24.56 49.97 -25.27 50.97 -26 52 C-26.66 52 -27.32 52 -28 52 C-29.66 40.13 -31.36 26.71 -25 16 C-24.6 15.3 -24.2 14.59 -23.79 13.87 C-19.5 7.33 -8.21 -2.74 0 0 Z " fill="#c5c729" transform="translate(304,188)"/>
<path d="M0 0 C0.66 0 1.32 0 2 0 C2.81 5.51 3.15 10.03 2.02 15.49 C0.8 22.34 0.9 28.94 1.06 35.88 C1.21 47.7 0.61 57.97 -4 69 C-6.5 68.06 -6.5 68.06 -9 66 C-9.19 61.88 -9.19 61.88 -9.07 59.49 C-8.95 55.26 -9.62 52.03 -11 48 C-13.88 46.81 -13.88 46.81 -17 47 C-18.32 47.66 -19.64 48.32 -21 49 C-18.84 31.35 -12.74 18.31 -2.38 3.96 C-1 2 -1 2 0 0 Z " fill="#b6683f" transform="translate(230,93)"/>
<path d="M0 0 C0.66 0 1.32 0 2 0 C4.65 9.41 5.35 19.31 0.86 28.28 C-1.13 31.59 -2.76 33.84 -6 36 C-5.84 36.66 -5.84 36.66 -5 40 C-7.05 42.73 -7.05 42.73 -9.88 45.62 C-14.95 50.9 -14.95 50.9 -16 53 C-19.44 53.87 -22.9 54.48 -26.39 55.12 C-29.96 55.99 -32.76 57.3 -36 59 C-36.66 59 -37.32 59 -38 59 C-36.64 49.2 -28.07 40.93 -20.52 35.08 C-11.8 27.89 -7.65 17.4 -3.33 7.27 C-2.92 6.33 -2.52 5.39 -2.1 4.43 C-1.74 3.57 -1.39 2.72 -1.02 1.84 C-0.85 1.54 -0.85 1.54 0 0 Z " fill="#915037" transform="translate(185,109)"/>
<path d="M0 0 C4.2 1.63 8.17 3.54 12.18 5.6 C14.12 6.56 16.08 7.46 18.07 8.31 C25.02 11.38 28.22 14.19 32.17 20.62 C34.88 24.15 38.21 25.53 42.15 27.44 C48.8 31.08 54.62 36.84 59 43 C59 43.99 59 44.98 59 46 C55.69 45.6 53.71 44.83 50.8 43.1 C46.94 40.97 43.43 39.8 39.19 38.62 C21.61 33.29 11.48 22.24 2.54 6.42 C0 1.43 0 1.43 0 0 Z " fill="#d27f45" transform="translate(373,203)"/>
<path d="M0 0 C0.16 0.16 0.16 0.16 1 1 C0.54 11.81 -6.14 20.18 -13 28 C-13.56 28.64 -14.11 29.28 -14.68 29.94 C-22.66 38.51 -32.97 43.47 -44 47 C-44.66 47 -45.32 47 -46 47 C-45 42.99 -44.69 42.33 -41.87 39.71 C-41.23 39.11 -40.59 38.5 -39.93 37.87 C-39.25 37.23 -38.57 36.6 -37.88 35.94 C-30.87 29.15 -25.1 22.48 -21.56 13.25 C-18.75 7.4 -13.97 4.04 -8.31 1.06 C-5.27 0.09 -3.15 -0.37 0 0 Z " fill="#d27f45" transform="translate(141,206)"/>
<path d="M0 0 C5.34 4.32 9.55 10.14 11.21 16.79 C11.36 18.94 11.44 21.08 11.46 23.23 C11.49 24.34 11.52 25.46 11.54 26.6 C11.06 31.3 9.19 33.82 5.9 37.11 C2.74 39.09 0.89 39.13 -2.79 38.79 C-2.79 38.13 -2.79 37.47 -2.79 36.79 C-2.04 36.52 -1.3 36.26 -0.54 35.98 C3.37 34.29 5.34 31.55 7.21 27.79 C7.75 18.98 5.95 11.76 0.21 4.79 C-3.78 1.42 -6.86 -0.1 -12.1 -0.71 C-15.79 -0.21 -15.79 -0.21 -18.79 2.79 C-18.27 2.75 -18.27 2.75 -15.66 2.54 C-11.02 2.84 -9.31 3.8 -5.79 6.79 C-0.89 12.6 0.8 17.14 0.21 24.79 C-1.35 27.29 -1.35 27.29 -3.79 28.79 C-7.34 29.48 -9.64 29.4 -12.88 27.69 C-21 22.04 -23.17 15.33 -24.88 5.88 C-24.76 1.92 -23.53 0.56 -20.79 -2.21 C-14.24 -6.32 -6.15 -3.68 0 0 Z " fill="#351d0e" transform="translate(274.78515625,68.20703125)"/>
<path d="M0 0 C0.66 0.33 1.32 0.66 2 1 C1.78 1.34 1.78 1.34 0.64 3.05 C-5.96 13.22 -10.4 22.55 -13.69 34.27 C-15.04 38.12 -16.35 40.9 -19 44 C-21.63 44.74 -21.63 44.74 -24.56 44.88 C-30.96 45.61 -34.54 48.06 -39.43 52.12 C-43.84 55.34 -47.98 56.27 -53.38 56.12 C-54.25 56.11 -55.12 56.09 -56.02 56.07 C-56.68 56.05 -57.33 56.02 -58 56 C-55.61 53.61 -53.33 52.71 -50.25 51.31 C-44.6 48.53 -41.66 46.08 -38 41 C-37.54 40.4 -37.08 39.8 -36.61 39.18 C-34.73 36.69 -33.14 34.35 -32 31.44 C-29.92 26.36 -26.82 23.19 -21.88 21 C-17.45 18.71 -16.93 17.41 -15 13 C-13.34 11.66 -11.68 10.32 -10 9 C-9.67 7.68 -9.34 6.36 -9 5 C-7.19 3.77 -7.19 3.77 -5 2.81 C-1 1 -1 1 0 0 Z " fill="#7c4331" transform="translate(129,182)"/>
<path d="M0 0 C-2.34 8.79 -6 14.27 -13.56 19.44 C-19.21 22.01 -24.65 22.18 -30.81 22.25 C-32.14 22.28 -33.47 22.3 -34.83 22.33 C-35.88 22.22 -36.92 22.11 -38 22 C-39.41 17.78 -37.98 16.13 -36.06 12.19 C-28.7 -2.1 -14.99 -5.71 0 0 Z " fill="#d5d62d" transform="translate(431,159)"/>
<path d="M0 0 C7.68 3.41 13.98 9.36 18.19 16.62 C20.19 25.04 18.33 30.21 14.52 37.75 C12.81 40.25 12.81 40.25 8.81 42.25 C8.46 41.57 8.11 40.89 7.75 40.2 C4.61 34.28 1.23 28.81 -2.77 23.44 C-6.07 18.34 -5.65 12.1 -5.19 6.25 C-3.33 0.38 -3.33 0.38 0 0 Z " fill="#d5d62d" transform="translate(127.1875,129.75)"/>
<path d="M0 0 C0.66 0.99 1.32 1.98 2 3 C-1.69 12.22 -7.09 18.33 -15.93 22.84 C-23.45 25.68 -31.48 25.97 -39 23 C-37.66 17.63 -34.71 14.97 -31 11 C-30.72 10.68 -30.72 10.68 -29.3 9.07 C-21.17 0.24 -11.86 -1.63 0 0 Z " fill="#c5c729" transform="translate(320,222)"/>
<path d="M0 0 C0.33 0.82 0.65 1.65 0.99 2.5 C3 5 3 5 5.08 5.35 C7.79 5.35 10.48 5.24 13.19 5.06 C22.2 4.51 27.69 5.19 34.71 11.4 C35.45 12.24 36.18 13.08 36.94 13.94 C37.69 14.77 38.44 15.61 39.21 16.46 C42.42 21.01 42.12 25.38 42.06 30.81 C42.05 31.97 42.04 33.14 42.04 34.33 C42.02 35.21 42.01 36.09 42 37 C41.34 37 40.68 37 40 37 C39.11 35.24 39.11 35.24 38.19 32.88 C36.35 28.58 34.39 25.3 31 22 C29.02 21.29 27.02 20.61 25 20 C22 16.8 22 16.8 22 14 C15.82 11.98 9.14 10.44 2.86 12.8 C-2.19 15.6 -4.89 19.27 -7.77 24.21 C-8.18 24.8 -8.58 25.39 -9 26 C-9.66 26 -10.32 26 -11 26 C-12.68 18.11 -11.85 13.34 -7.74 6.41 C-3.12 0 -3.12 0 0 0 Z " fill="#d27f45" transform="translate(251,50)"/>
<path d="M0 0 C0 4.37 -2.16 5.81 -5.06 9 C-6 10.05 -6.94 11.1 -7.91 12.19 C-14.75 18.42 -21.14 18.4 -29.94 18.19 C-31 18.17 -32.07 18.16 -33.17 18.15 C-35.78 18.11 -38.39 18.06 -41 18 C-37.23 8.3 -31.32 2.58 -22 -1.94 C-13.86 -4.1 -7.62 -3.27 0 0 Z " fill="#c5c729" transform="translate(378,78)"/>
<path d="M0 0 C7.98 0.37 13.57 2.04 19.75 7.38 C26.91 15.72 28.34 23.32 28 34 C24 32 24 32 20.88 29.62 C18 27.5 15.23 26.23 11.88 25 C6.16 22.82 3.23 20.17 0.19 14.81 C-1.27 10.13 -1.49 5.87 -1 1 C-0.67 0.67 -0.34 0.34 0 0 Z " fill="#c5c729" transform="translate(244,207)"/>
<path d="M0 0 C6.04 4.32 10.74 9.52 13.5 16.5 C13.5 17.49 13.5 18.48 13.5 19.5 C12.88 19.34 12.25 19.18 11.61 19.02 C8.96 18.58 6.59 18.41 3.92 18.36 C3.07 18.34 2.22 18.32 1.34 18.3 C-0.42 18.27 -2.17 18.25 -3.93 18.25 C-11.59 18.03 -16.2 15.49 -21.81 10.4 C-22.37 9.75 -22.93 9.11 -23.5 8.44 C-24.08 7.79 -24.66 7.14 -25.25 6.46 C-26.5 4.5 -26.5 4.5 -26.5 0.5 C-18.78 -2.62 -7.77 -3.43 0 0 Z " fill="#d5d62d" transform="translate(117.5,154.5)"/>
<path d="M0 0 C1.32 0.66 1.32 0.66 8 4 C7.34 4.33 7.34 4.33 4 6 C3.67 6.99 3.34 7.98 3 9 C4.05 8.88 5.1 8.75 6.19 8.62 C11.7 8.6 15.99 11.09 20.83 13.5 C23.48 14.75 25.87 15.62 28.69 16.38 C35.31 18.41 40.22 23.56 45.33 28.05 C49.59 31.16 54.46 32.91 59.31 34.93 C60.2 35.61 61.08 36.29 62 37 C61.41 40.73 61.41 40.73 60 44 C54.77 43.45 50.56 41.57 45.94 39.19 C45.24 38.84 44.55 38.5 43.83 38.15 C38.68 35.54 34.47 32.91 30.94 28.31 C29 26 29 26 25 25 C25 25.66 25 26.32 25 27 C21.11 25.06 20.44 24.56 18.25 21.19 C15.1 16.76 11.73 14.61 7 12 C6.67 12.66 6.34 13.32 6 14 C0.98 11.27 0.98 11.27 -1 9 C-1.34 5.69 -0.74 3.3 0 0 Z " fill="#9d593a" transform="translate(381,181)"/>
<path d="M0 0 C0.66 0 1.32 0 2 0 C3.01 10.75 2.88 20.15 0.37 30.64 C0 33 0 33 1 36 C0.62 36.11 0.62 36.11 -1.28 36.67 C-4.7 38.34 -5.62 40.04 -7.5 43.31 C-12.43 51.41 -12.43 51.41 -16 54 C-19.81 54.31 -19.81 54.31 -23 54 C-23 54.66 -23 55.32 -23 56 C-24.32 56.66 -25.64 57.32 -27 58 C-27.33 56.68 -27.66 55.36 -28 54 C-27.05 52.63 -26.04 51.3 -25 50 C-24.55 48.92 -24.11 47.85 -23.65 46.74 C-22.04 43.08 -20.21 40.18 -17.88 36.94 C-17.48 36.37 -17.48 36.37 -15.48 33.52 C-13.85 31.2 -12.21 28.9 -10.55 26.61 C-5.17 18.82 -2.55 12.16 -0.75 3.01 C-0.51 2.02 -0.26 1.02 0 0 Z " fill="#915037" transform="translate(263,147)"/>
<path d="M0 0 C2.19 0.12 2.19 0.12 5 1 C5.68 1.87 6.36 2.73 7.06 3.62 C13.7 11.25 24.08 15.13 33.07 19.42 C36 21 36 21 39 24 C41.56 24.44 41.56 24.44 44 24 C44.66 22.68 45.32 21.36 46 20 C49.06 20 49.06 20 52 21 C52.17 21.66 52.17 21.66 53 25 C52.01 24.67 51.02 24.34 50 24 C50.17 24.66 50.17 24.66 51 28 C49.04 29.96 45.53 29.26 42.94 29.31 C31.1 29.23 19.63 27.22 10 20 C9.66 19.79 9.66 19.79 7.93 18.73 C1.91 14.87 -0.96 9.82 -3 3 C-2.67 2.34 -2.34 1.68 -2 1 C-1.34 1.33 -0.68 1.66 0 2 C0 1.34 0 0.68 0 0 Z " fill="#7c4331" transform="translate(406,206)"/>
<path d="M0 0 C2.25 2.56 2.25 2.56 2.44 5.12 C-0.21 10.56 -5.3 12.6 -10.75 14.56 C-16.82 16.16 -22.49 16.79 -28.75 16.56 C-28.75 17.22 -28.75 17.88 -28.75 18.56 C-34.69 18.89 -40.63 19.22 -46.75 19.56 C-46.75 18.9 -46.75 18.24 -46.75 17.56 C-47.57 17.51 -48.39 17.46 -49.24 17.41 C-73.88 15.76 -73.88 15.76 -82.5 8.12 C-83.75 5.56 -83.75 5.56 -83.5 3.06 C-78.18 -4.54 -69.33 -5.91 -60.75 -7.44 C-60.23 -7.53 -60.23 -7.53 -57.6 -8 C-38.98 -10.1 -16.21 -10.54 0 0 Z M-78.75 2.56 C-78.69 5.06 -78.69 5.06 -77.75 7.56 C-66.49 17.41 -43.62 16.15 -29.52 15.3 C-20.17 14.53 -9.73 13.33 -2.75 6.56 C-2.69 4 -2.69 4 -3.75 1.56 C-10.98 -5.19 -24.21 -6.15 -33.75 -6.44 C-34.98 -6.48 -36.22 -6.52 -37.49 -6.56 C-69.11 -7.07 -69.11 -7.07 -78.75 2.56 Z " fill="#d27f45" transform="translate(302.75,23.4375)"/>
<path d="M0 0 C5.28 1.8 10.63 4.41 14 9 C14 9.99 14 10.98 14 12 C6.59 16.66 -1.41 18.24 -10 17 C-14.82 15.74 -19.53 14.23 -24 12 C-22.98 7.91 -22.72 7.35 -19.69 4.88 C-19.09 4.38 -18.5 3.88 -17.89 3.37 C-12.15 -0.79 -6.81 -0.83 0 0 Z " fill="#c5c729" transform="translate(254,235)"/>
<path d="M0 0 C2.31 2.31 2.68 3.77 3.56 6.88 C3.81 7.74 4.06 8.6 4.32 9.49 C5.53 13.93 6.12 17.7 6.1 22.3 C6.09 23.5 6.09 24.71 6.09 25.95 C6.08 27.2 6.07 28.46 6.06 29.75 C6.06 31.02 6.05 32.29 6.05 33.6 C6.04 36.73 6.02 39.87 6 43 C5.67 43 5.34 43 5 43 C5 41.02 5 39.04 5 37 C4.34 37 3.68 37 3 37 C2.52 39.34 2.06 41.69 1.63 44.04 C0.62 48.81 -0.7 53.69 -3 58 C-3.99 58 -4.98 58 -6 58 C-10.03 49.43 -8.87 41.53 -6.22 32.85 C-4.08 25.75 -2.8 18.64 -1.69 11.31 C-1.52 10.19 -1.35 9.08 -1.17 7.92 C-0.77 5.28 -0.38 2.64 0 0 Z " fill="#7c4331" transform="translate(198,54)"/>
<path d="M0 0 C0.5 0.33 0.5 0.33 3 2 C3 2.66 3 3.32 3 4 C3.93 3.75 4.86 3.51 5.81 3.25 C9 3 9 3 11 4.69 C11.17 5.07 11.17 5.07 12 7 C11.34 8.32 10.68 9.64 10 11 C10.66 11.66 11.32 12.32 12 13 C14.68 12.76 17.35 12.43 20 12 C19.34 11.34 18.68 10.68 18 10 C18.35 6.56 19.05 4.93 21 2 C23.47 18.44 24.41 34.38 24 51 C23.01 51 22.02 51 21 51 C17.77 45.6 16.21 40.43 15.06 34.25 C13.57 26.95 12 19.39 8 13 C7.01 13 6.02 13 5 13 C5 12.34 5 11.68 5 11 C4.01 10.67 3.02 10.34 2 10 C1.27 7.71 1.27 7.71 0.81 4.94 C0.73 4.48 0.73 4.48 0.33 2.15 C0.22 1.44 0.11 0.73 0 0 Z " fill="#915037" transform="translate(305,58)"/>
<path d="M0 0 C18.45 -0.81 18.45 -0.81 26.81 6.44 C31.05 11.4 32.51 14.33 32 21 C31 22 31 22 26.94 22.31 C20.52 22.18 16.17 20.16 11.68 15.68 C10.11 13.95 8.57 12.19 7.05 10.41 C5 8 5 8 1.94 5.06 C0 3 0 3 0 0 Z " fill="#d5d62d" transform="translate(338,100)"/>
<path d="M0 0 C0.99 0 1.98 0 3 0 C7.65 7.07 9.63 15.76 11 24 C11.18 24.97 11.35 25.95 11.53 26.95 C11.84 29.98 11.86 32.08 11 35 C8.67 37.77 6.24 39.91 3.38 42.12 C1 44 1 44 -1 47 C-2.32 46.67 -3.64 46.34 -5 46 C-4.81 44.84 -4.61 43.67 -4.41 42.48 C-2.11 28.39 0.18 14.31 0 0 Z " fill="#915037" transform="translate(277,153)"/>
<path d="M0 0 C4.01 2.04 4.24 2.76 5.56 6.81 C5.21 6.66 5.21 6.66 3.44 5.9 C-2.55 3.5 -7.01 1.93 -13.44 3.81 C-16.56 5.56 -16.56 5.56 -18.44 8.81 C-18.52 16.91 -16.46 23.53 -11.44 29.81 C-7.37 33.17 -3.54 34.59 1.56 35.81 C0.9 36.8 0.24 37.79 -0.44 38.81 C-6.75 38.81 -12.75 35.27 -17.31 31.1 C-20.23 27.89 -22.17 25.21 -22.44 20.81 C-27.19 21.56 -27.19 21.56 -29.44 23.81 C-31.84 18.91 -32.95 15.28 -32.44 9.81 C-31.78 8.49 -31.12 7.17 -30.44 5.81 C-30.11 8.45 -29.78 11.09 -29.44 13.81 C-27.11 11.49 -25.51 9.54 -23.69 6.88 C-17.49 -1.39 -9.58 -3.02 0 0 Z " fill="#9d593a" transform="translate(269.4375,62.1875)"/>
<path d="M0 0 C1.32 0 2.64 0 4 0 C3.39 5.94 2.35 11.65 -2 16 C-2.27 16.95 -2.54 17.9 -2.81 18.88 C-4.24 22.63 -5.81 23.63 -9 26 C-9.69 26.9 -10.38 27.8 -11.09 28.73 C-14.72 32.81 -18.74 35.45 -23.31 38.38 C-24.15 38.92 -24.98 39.47 -25.85 40.03 C-27.89 41.36 -29.95 42.68 -32 44 C-32.16 43.5 -32.16 43.5 -33 41 C-29.98 35.49 -25.24 31.22 -20.56 27.12 C-12.72 20.19 -7.51 12.36 -3 3 C-2.01 2.01 -1.02 1.02 0 0 Z " fill="#b6683f" transform="translate(182,120)"/>
<path d="M0 0 C5.99 0.09 5.99 0.09 9 1 C11.56 4.56 11.56 4.56 13 8 C12.34 8.29 11.67 8.58 10.99 8.88 C10.11 9.29 9.22 9.7 8.31 10.12 C7.88 10.32 7.88 10.32 5.68 11.32 C-0.29 15.06 -3.13 20.78 -6 27 C-8.42 32.24 -10.99 36.78 -15 41 C-15.66 41 -16.32 41 -17 41 C-16.12 33.38 -16.12 33.38 -15 30 C-15.99 30.33 -16.98 30.66 -18 31 C-17.61 29.49 -17.18 28 -16.75 26.5 C-16.52 25.66 -16.29 24.83 -16.05 23.97 C-15.7 23.32 -15.36 22.67 -15 22 C-13.68 22 -12.36 22 -11 22 C-10 19.82 -10 19.82 -9 17 C-7.72 15.23 -6.39 13.5 -5 11.81 C-4.3 10.95 -3.6 10.09 -2.88 9.21 C-1 7 -1 7 1 5 C0.62 2.38 0.62 2.38 0 0 Z " fill="#915037" transform="translate(165,198)"/>
<path d="M0 0 C0.66 0.33 1.32 0.66 2 1 C0.99 5.02 0.05 5.96 -3.5 8.31 C-7 10 -7 10 -9 10 C-9 10.66 -9 11.32 -9 12 C-16.45 17.79 -24.94 17.96 -34 17 C-37.45 15.97 -37.45 15.97 -40 15 C-32.91 5.88 -18.95 4.96 -8.3 2.66 C-7.37 2.46 -6.45 2.26 -5.49 2.05 C-4.65 1.87 -3.81 1.69 -2.94 1.51 C-1 1 -1 1 0 0 Z " fill="#9d593a" transform="translate(54,222)"/>
<path d="M0 0 C-0.31 3.05 -0.54 4.57 -2.83 6.69 C-9.69 10.74 -16.28 12.6 -24.06 14.12 C-42.93 17.93 -42.93 17.93 -48 23 C-48.99 22.67 -49.98 22.34 -51 22 C-42.99 10.68 -30.9 6.84 -17.88 4.5 C-16.55 4.28 -15.23 4.07 -13.87 3.84 C-9.06 2.8 -4.89 0 0 0 Z " fill="#d27f45" transform="translate(64,213)"/>
<path d="M0 0 C3.12 3.27 5.04 6.68 7.25 10.6 C9.23 13.61 11.75 14.92 14.75 16.88 C17.98 20.82 20.96 24.87 22.83 29.63 C23.75 31.88 23.75 31.88 25.75 32.88 C26.08 31.56 26.41 30.23 26.75 28.88 C26.75 32.17 26.75 35.47 26.75 38.88 C26.09 38.88 25.43 38.88 24.75 38.88 C22.64 35.85 20.68 32.78 18.73 29.65 C15.9 25.22 13 22.08 8.75 18.88 C4.13 15.34 0.89 11.56 -2.59 6.96 C-6.73 1.76 -11.23 -0.77 -17.8 -1.54 C-19.04 -1.61 -20.28 -1.68 -21.56 -1.75 C-22.82 -1.82 -24.07 -1.9 -25.36 -1.98 C-26.32 -2.03 -27.27 -2.07 -28.25 -2.12 C-28.25 -3.12 -28.25 -4.1 -28.25 -5.12 C-18.45 -8.72 -8.31 -5.43 0 0 Z " fill="#a0a226" transform="translate(289.25,57.125)"/>
<path d="M0 0 C0.66 0 1.32 0 2 0 C4.72 9.16 3.48 19.32 0.68 28.25 C-1.68 37.81 -0.04 48.21 3.19 57.38 C4 60 4 60 3 64 C-3.38 56.07 -8 47.4 -8 37 C-7.16 31.59 -6.13 26.06 -4 21 C-3.34 21 -2.68 21 -2 21 C-1.67 17.53 -1.67 17.53 0 0 Z " fill="#5e3321" transform="translate(297,87)"/>
<path d="M0 0 C8.23 0.14 13.76 1.62 19.87 7.32 C23.01 10.69 25.53 13.88 26.79 18.38 C19.82 16.53 13.43 13.99 6.85 11.01 C1.68 8.7 -3.51 6.87 -8.95 5.3 C-11.21 4.38 -11.21 4.38 -13.21 1.38 C-10.72 -1.11 -3.51 0.01 0 0 Z " fill="#c5c729" transform="translate(412.207763671875,185.6171875)"/>
<path d="M0 0 C0.33 0 0.66 0 1 0 C0.73 5.27 0.45 10.54 0.13 15.81 C0.02 17.6 -0.06 19.38 -0.15 21.16 C-0.31 23.56 -0.31 23.56 -1 27 C-2.32 27.33 -3.64 27.66 -5 28 C-5 26.68 -5 25.36 -5 24 C-5.95 24.99 -6.9 25.98 -7.88 27 C-11.84 30.47 -14.94 30.53 -20.06 30.21 C-20.7 30.14 -21.34 30.07 -22 30 C-19.77 25.54 -17.03 22.75 -13.58 19.22 C-13.06 18.49 -12.54 17.75 -12 17 C-12.33 15.68 -12.66 14.36 -13 13 C-10.12 10.69 -10.12 10.69 -7 9 C-6.67 9.33 -6.34 9.66 -6 10 C-5.58 9.28 -5.16 8.56 -4.72 7.81 C-4.17 6.88 -3.63 5.96 -3.06 5 C-2.79 4.54 -2.79 4.54 -1.41 2.19 C-0.94 1.47 -0.48 0.74 0 0 Z " fill="#7c4331" transform="translate(191,132)"/>
<path d="M0 0 C0.99 0.33 1.98 0.66 3 1 C5.64 6.47 6.63 9.99 5 16 C2.15 23.56 2.15 23.56 0 27 C-3.57 27 -4.13 26.42 -6.69 24.06 C-9.49 21.07 -10.03 19.89 -11 15.69 C-10.55 9.29 -5.39 5.19 -1 1 C-0.67 0.67 -0.34 0.34 0 0 Z " fill="#c5c729" transform="translate(388,150)"/>
<path d="M0 0 C0 4.07 -1.57 5.63 -4.21 8.6 C-6 10 -6 10 -9.75 10.12 C-13 9 -13 9 -15 6 C-17.86 6.11 -17.86 6.11 -21.31 6.75 C-22.44 6.95 -23.57 7.15 -24.74 7.36 C-27.49 7.9 -30.25 8.44 -33 9 C-31.64 3.69 -28.54 1.8 -24 -1 C-15.84 -4.72 -7.95 -3.41 0 0 Z " fill="#c5c729" transform="translate(378,78)"/>
<path d="M0 0 C20.23 -0.74 20.23 -0.74 28 4 C29.01 4.58 30.02 5.16 31.06 5.75 C35.05 8.8 38.74 12.17 42 16 C42 16.66 42 17.32 42 18 C37.36 16.79 33.16 15.43 29 13 C29 12.34 29 11.68 29 11 C26.92 10.46 26.92 10.46 24 10 C15.88 8.46 8.31 6.97 1 3 C0.67 2.01 0.34 1.02 0 0 Z " fill="#d27f45" transform="translate(465,220)"/>
<path d="M0 0 C1.81 2.38 3.32 4.6 4.75 7.25 C8.23 12.27 14.05 14.38 19.41 16.91 C23.29 19.17 25.5 21.28 28 25 C27.12 27.94 27.12 27.94 25 30 C20.91 30 17.53 27.93 14 26 C12.03 24.03 12.34 20.65 12 18 C11.6 18.04 11.6 18.04 9.56 18.25 C8.72 18.17 7.87 18.09 7 18 C6.67 16.68 6.34 15.36 6 14 C4.68 14 3.36 14 2 14 C0.98 12.34 -0.02 10.68 -1 9 C-2.32 8.67 -3.64 8.34 -5 8 C-5.33 7.01 -5.66 6.02 -6 5 C-5.67 4.34 -5.34 3.68 -5 3 C-2.44 2.88 -2.44 2.88 0 3 C0 2.01 0 1.02 0 0 Z " fill="#9d593a" transform="translate(346,203)"/>
<path d="M0 0 C4.45 0.6 6.17 2.22 9.25 5.44 C11.4 9.46 12.91 12.84 12.25 17.44 C10.25 19.44 10.25 19.44 7.5 19.88 C3.21 19.3 1.33 17.37 -1.75 14.44 C-2.41 15.1 -3.07 15.76 -3.75 16.44 C-6.75 10.69 -6.75 10.69 -6.75 8.44 C-6.09 8.44 -5.43 8.44 -4.75 8.44 C-4.79 7.49 -4.83 6.54 -4.88 5.56 C-4.71 1.49 -4.02 0.64 0 0 Z " fill="#5e3321" transform="translate(258.75,73.5625)"/>
<path d="M0 0 C-0.64 8.19 -2.42 15.02 -7 22 C-6.34 22.33 -5.68 22.66 -5 23 C-5.28 23.31 -5.28 23.31 -6.68 24.86 C-7.04 25.27 -7.04 25.27 -8.88 27.31 C-9.59 28.11 -10.31 28.91 -11.05 29.74 C-13 32 -13 32 -15 35 C-15.66 35 -16.32 35 -17 35 C-17.86 29.12 -18.13 23.44 -18.06 17.5 C-18.06 17.09 -18.06 17.09 -18.05 15.01 C-18.04 13.01 -18.02 11 -18 9 C-17.67 9 -17.34 9 -17 9 C-17 14.28 -17 19.56 -17 25 C-16.34 25 -15.68 25 -15 25 C-14.9 24.29 -14.9 24.29 -14.38 20.69 C-13.47 15.55 -6.39 0 0 0 Z " fill="#a0a226" transform="translate(293,205)"/>
<path d="M0 0 C0.66 0 1.32 0 2 0 C2.33 3.3 2.66 6.6 3 10 C2.22 10 1.43 10 0.62 10 C-0.24 10.33 -1.11 10.66 -2 11 C-2.46 12.88 -2.92 14.75 -3.33 16.64 C-4.56 21 -6.84 24.85 -9 28.81 C-9.45 29.66 -9.9 30.5 -10.37 31.37 C-12.14 34.68 -13.92 37.87 -16 41 C-16.66 41 -17.32 41 -18 41 C-19.23 26.3 -10.16 15.18 -2.14 3.69 C-1 2 -1 2 0 0 Z " fill="#d27f45" transform="translate(230,93)"/>
<path d="M0 0 C4.68 2.34 5.09 3.52 7.25 8.12 C7.85 9.38 8.44 10.63 9.06 11.91 C9.37 12.58 9.68 13.24 10.01 13.93 C11.03 16.06 12.09 18.17 13.16 20.27 C13.52 20.98 13.88 21.68 14.25 22.41 C14.6 23.1 14.95 23.79 15.31 24.5 C17.57 28.94 19.55 33.23 21 38 C13.78 36.4 11.16 31.47 7.28 25.66 C2 17.18 0.34 9.96 0 0 Z " fill="#d27f45" transform="translate(315,101)"/>
<path d="M0 0 C4.34 2.17 6.02 4.26 9 8 C9.99 8.99 10.98 9.98 12 11 C12.33 8.36 12.66 5.72 13 3 C13.33 3 13.66 3 14 3 C14.81 11.14 12.61 17.23 8 24 C7.34 24.33 7.34 24.33 4 26 C3.02 24.23 2.04 22.46 1.06 20.69 C0.52 19.7 -0.03 18.72 -0.59 17.7 C-2 15 -2 15 -3 12 C-2.34 11.67 -1.68 11.34 -1 11 C-0.59 8.5 -0.59 8.5 -0.38 5.44 C-0.3 4.43 -0.23 3.41 -0.15 2.37 C-0.1 1.59 -0.05 0.81 0 0 Z " fill="#a0a226" transform="translate(132,146)"/>
<path d="M0 0 C0 0.99 0 1.98 0 3 C-5.55 7.05 -11.84 9.46 -18.44 11.21 C-22.4 12.43 -26.04 14.28 -29.75 16.11 C-30.12 16.26 -30.12 16.26 -32 17 C-32.66 16.67 -33.32 16.34 -34 16 C-30.21 8.42 -23.62 4.19 -16.07 0.9 C-10.75 -0.66 -5.48 -0.39 0 0 Z " fill="#c5c729" transform="translate(123,178)"/>
<path d="M0 0 C0.66 0.33 1.32 0.66 2 1 C1.54 1.71 1.08 2.43 0.61 3.16 C-0 4.12 -0.62 5.08 -1.25 6.06 C-1.57 6.56 -1.57 6.56 -3.19 9.09 C-4.63 11.4 -5.93 13.71 -7.19 16.12 C-9 19 -9 19 -13 20 C-13.15 20.4 -13.15 20.4 -13.92 22.4 C-15 25 -15 25 -17.39 26.48 C-18.33 26.86 -19.28 27.23 -20.25 27.62 C-21.23 28.03 -22.21 28.44 -23.22 28.86 C-24.14 29.24 -25.06 29.61 -26 30 C-28.01 30.99 -30.01 31.98 -32 33 C-30.82 28.3 -29.38 26.45 -26 23 C-24 21.94 -24 21.94 -21.88 21 C-17.45 18.71 -16.93 17.41 -15 13 C-13.34 11.66 -11.68 10.32 -10 9 C-9.67 7.68 -9.34 6.36 -9 5 C-7.19 3.77 -7.19 3.77 -5 2.81 C-1 1 -1 1 0 0 Z " fill="#915037" transform="translate(129,182)"/>
<path d="M0 0 C0.44 0.38 0.44 0.38 2.69 2.31 C14.35 11.77 30.5 12.62 45 14 C45 14.33 45 14.66 45 15 C43.87 15.12 42.73 15.25 41.56 15.38 C40.39 15.58 39.21 15.79 38 16 C37.67 16.66 37.34 17.32 37 18 C37.66 18 38.32 18 39 18 C38.67 19.32 38.34 20.64 38 22 C34.44 22.25 34.44 22.25 31 22 C31.66 20.35 32.32 18.7 33 17 C32.01 17.04 31.03 17.09 30.01 17.13 C17.9 16.74 6.98 11.45 -3 5 C-2.67 11.27 -2.34 17.54 -2 24 C-5.12 20.88 -4.37 17.12 -4.38 12.94 C-4.4 12.1 -4.42 11.26 -4.45 10.39 C-4.46 7.96 -4.46 7.96 -4 4 C-2.68 3.67 -1.36 3.34 0 3 C0 2.01 0 1.02 0 0 Z " fill="#9d593a" transform="translate(202,32)"/>
<path d="M0 0 C7.5 3.2 11.65 8.74 15 16 C16.51 22.04 17.15 26.87 14.19 32.38 C12 35 12 35 9 38 C7.68 38 6.36 38 5 38 C5 38.66 5 39.32 5 40 C6.32 40.33 7.64 40.66 9 41 C0.38 40.38 0.38 40.38 -3 37 C-2.28 36.9 -1.56 36.8 -0.81 36.7 C0.12 36.55 1.04 36.4 2 36.25 C2.93 36.11 3.86 35.97 4.81 35.83 C5.53 35.55 6.26 35.28 7 35 C7 33.68 7 32.36 7 31 C7.8 30.9 8.61 30.79 9.44 30.69 C10.28 30.46 11.13 30.23 12 30 C13.91 24.28 12.58 19.27 10 14 C4.49 5.37 4.49 5.37 -1 4 C-1.33 4.66 -1.66 5.32 -2 6 C-4.07 5.76 -4.07 5.76 -6.56 5.12 C-6.98 5.02 -6.98 5.02 -9.07 4.51 C-9.7 4.34 -10.34 4.17 -11 4 C-10.67 3.01 -10.34 2.02 -10 1 C-6.53 -0.73 -3.83 -0.38 0 0 Z " fill="#7c4331" transform="translate(267,67)"/>
<path d="M0 0 C6.42 -0.2 11.78 0.42 18 2 C17 5 17 5 13.68 6.94 C12.27 7.64 10.86 8.32 9.44 9 C8.75 9.34 8.05 9.69 7.34 10.04 C-0.25 13.75 -7.66 16.36 -16 17.69 C-16.77 17.82 -17.55 17.95 -18.35 18.08 C-20.23 18.39 -22.12 18.7 -24 19 C-24 18.34 -24 17.68 -24 17 C-17.69 13.35 -10.66 11.18 -3.74 8.98 C-0.19 7.71 2.78 5.96 6 4 C6.66 4 7.32 4 8 4 C8 3.01 8 2.02 8 1 C5.36 1 2.72 1 0 1 C0 0.67 0 0.34 0 0 Z " fill="#939223" transform="translate(115,177)"/>
<path d="M0 0 C0.42 0.12 0.42 0.12 2.57 0.7 C5.02 0.58 5.02 0.58 7.38 0.27 C8.76 0.08 10.14 -0.11 11.57 -0.3 C11.57 0.36 11.57 1.02 11.57 1.7 C10.07 3.14 10.07 3.14 8.13 4.7 C4.67 7.5 4.67 7.5 3.57 9.7 C6.21 10.03 8.85 10.36 11.57 10.7 C7.83 14.44 1.63 13.67 -3.43 13.7 C-7.75 12.77 -7.75 12.77 -10.43 11.7 C-9.46 7.79 -8.69 6.37 -6.18 3.39 C-5.89 3.03 -5.89 3.03 -4.42 1.21 C-2.43 -0.3 -2.43 -0.3 0 0 Z " fill="#a0a226" transform="translate(291.43359375,233.296875)"/>
<path d="M0 0 C7.03 0.33 12.44 1.5 18 6 C24 12.85 27.12 18.22 27.25 27.44 C27.28 28.55 27.3 29.66 27.33 30.81 C26.84 35.51 24.97 38.03 21.69 41.31 C18.52 43.3 16.67 43.34 13 43 C13 42.34 13 41.68 13 41 C13.74 40.73 14.49 40.46 15.25 40.19 C19.16 38.5 21.12 35.76 23 32 C23.53 23.19 21.73 15.97 16 9 C10.93 4.82 6.51 3.35 0 3 C0 2.01 0 1.02 0 0 Z " fill="#0e0302" transform="translate(259,64)"/>
<path d="M0 0 C3.08 -0.31 4.49 -0.41 6.95 1.57 C14 10.15 14 10.15 14 16 C14.66 16 15.32 16 16 16 C15.67 10.72 15.34 5.44 15 0 C16.98 1.32 18.96 2.64 21 4 C20.67 4.5 20.67 4.5 19 7 C18.67 6.34 18.34 5.68 18 5 C18.02 5.39 18.02 5.39 18.11 7.39 C18.31 15.5 17.75 23.29 15 31 C14.34 31 13.68 31 13 31 C12.92 29.68 12.83 28.36 12.75 27 C12.19 21.89 10.46 18.49 8 14 C7.53 12.82 7.05 11.65 6.56 10.44 C4.77 6.5 2.6 3.45 0 0 Z " fill="#b6683f" transform="translate(277,71)"/>
<path d="M0 0 C-2.17 3.36 -4.16 6.16 -7 9 C-5.68 9.31 -4.36 9.62 -3 9.94 C-1.68 10.29 -0.36 10.64 1 11 C1 11.33 1 11.66 1 12 C-3.64 12.89 -8.09 13.19 -12.81 13.25 C-14.14 13.28 -15.47 13.3 -16.83 13.33 C-17.88 13.22 -18.92 13.11 -20 13 C-21.21 9.36 -20.67 8.67 -19.06 5.31 C-18.68 4.5 -18.3 3.7 -17.91 2.86 C-17.76 2.56 -17.76 2.56 -17 1 C-16.67 1.99 -16.34 2.98 -16 4 C-13.03 2.88 -10.67 1.78 -8 0 C-4.67 -0.92 -3.34 -1.11 0 0 Z " fill="#a0a226" transform="translate(413,168)"/>
<path d="M0 0 C3.67 0.37 7.25 1.04 10.88 1.69 C11.91 1.79 12.94 1.89 14 2 C14.33 1.34 14.66 0.68 15 0 C18.42 4.39 20.58 7.29 21 13 C20.28 12.84 19.55 12.68 18.8 12.52 C16.21 12.04 13.77 11.8 11.14 11.68 C10.25 11.64 9.36 11.6 8.45 11.56 C7.54 11.52 6.63 11.48 5.69 11.44 C4.76 11.39 3.82 11.35 2.87 11.31 C0.58 11.2 -1.71 11.1 -4 11 C-0.71 9.36 1.48 8.59 5 8 C3.75 4.26 2.37 3.81 -1 2 C-0.67 1.34 -0.34 0.68 0 0 Z " fill="#a0a226" transform="translate(110,161)"/>
<path d="M0 0 C0.66 0.66 1.32 1.32 2 2 C1.67 3.32 1.34 4.64 1 6 C-4.22 8.52 -8.14 9.37 -14 9 C-14 8.34 -14 7.68 -14 7 C-11.41 6.38 -8.82 6.04 -6.19 5.66 C-5.47 5.44 -4.74 5.22 -4 5 C-4 4.01 -4 3.02 -4 2 C-14.06 -1.29 -27.99 -1.82 -38 2 C-38 2.99 -38 3.98 -38 5 C-36.03 5.66 -36.03 5.66 -33.5 6.06 C-30.97 6.47 -30.97 6.47 -29 7 C-29 7.66 -29 8.32 -29 9 C-37.21 8.4 -37.21 8.4 -40.62 6.69 C-41.08 6.13 -41.53 5.57 -42 5 C-41.67 3.68 -41.34 2.36 -41 1 C-29.13 -5.41 -12.41 -4.61 0 0 Z " fill="#d27f45" transform="translate(282,24)"/>
<path d="M0 0 C0.99 0.33 1.98 0.66 3 1 C1.59 5.94 -0.83 8.09 -5 11 C-10.68 13.88 -15.53 15.56 -22 15 C-18.76 8.52 -14.31 6.48 -7.75 3.81 C-1.08 1.08 -1.08 1.08 0 0 Z " fill="#c5c729" transform="translate(88,196)"/>
<path d="M0 0 C9.09 4.24 9.09 4.24 12 8 C12 8.99 12 9.98 12 11 C4.41 15.78 -3.24 16.7 -12 16 C-12 15.67 -12 15.34 -12 15 C-11.63 14.98 -11.63 14.98 -9.73 14.85 C-9.24 14.81 -9.24 14.81 -6.75 14.62 C-5.78 14.56 -4.8 14.49 -3.8 14.41 C-1 14 -1 14 3 12 C2.67 11.34 2.34 10.68 2 10 C-0.07 9.37 -0.07 9.37 -2.56 8.88 C-2.98 8.79 -2.98 8.79 -5.07 8.37 C-5.7 8.25 -6.34 8.12 -7 8 C-5.74 4.23 -4.34 3.92 -1 2 C-0.67 1.34 -0.34 0.68 0 0 Z " fill="#a0a226" transform="translate(256,236)"/>
<path d="M0 0 C4.01 4.01 4.12 10.6 4.12 16.06 C4.08 17.36 4.04 18.66 4 20 C-0.01 17.99 -3.38 15.63 -7 13 C-7.99 12.34 -8.98 11.68 -10 11 C-9.01 11 -8.02 11 -7 11 C-7.54 10.05 -8.07 9.1 -8.62 8.12 C-9.08 7.09 -9.53 6.06 -10 5 C-9.34 4.34 -8.68 3.68 -8 3 C-7.5 3.1 -7.5 3.1 -5 3.62 C-4.5 3.69 -4.5 3.69 -2 4 C-1.34 2.68 -0.68 1.36 0 0 Z " fill="#939223" transform="translate(268,221)"/>
<path d="M0 0 C0.33 0.99 0.66 1.98 1 3 C0.02 4.35 -0.98 5.68 -2 7 C-2.84 9.66 -2.84 9.66 -3.5 12.5 C-4.42 16.47 -5.53 18.8 -8 22 C-9.12 24.62 -10.07 27.27 -11.04 29.95 C-11.35 30.63 -11.67 31.3 -12 32 C-12.66 32 -13.32 32 -14 32 C-14 31.34 -14 30.68 -14 30 C-14.99 30 -15.98 30 -17 30 C-17.7 31.99 -18.37 33.99 -19 36 C-19.66 36 -20.32 36 -21 36 C-21 33.03 -21 30.06 -21 27 C-20.63 27.07 -20.63 27.07 -18.75 27.44 C-17.84 27.29 -16.94 27.15 -16 27 C-13.52 23.53 -12.13 20.5 -11.06 16.38 C-9.79 12.34 -8.04 10.9 -5 8 C-3.21 5.4 -1.62 2.72 0 0 Z " fill="#915037" transform="translate(219,93)"/>
<path d="M0 0 C1.62 3.24 0.13 5.88 -0.92 9.21 C-3.91 16.93 -8.95 23.51 -14 30 C-15.33 26.02 -14.35 23.9 -13 20 C-12.34 19.34 -11.68 18.68 -11 18 C-10.51 16.08 -10.08 14.13 -9.69 12.19 C-8.49 7.12 -7.36 4.16 -3 1 C-2.01 0.67 -1.02 0.34 0 0 Z " fill="#7c4331" transform="translate(230,78)"/>
<path d="M0 0 C7.2 6.36 8.4 16.92 10 26 C8.68 25.34 7.36 24.68 6 24 C5.39 21.18 5.39 21.18 5.25 17.88 C5.22 17.33 5.22 17.33 5.08 14.55 C5.07 14.13 5.07 14.13 5 12 C4.34 12 3.68 12 3 12 C3.06 13.06 3.12 14.12 3.18 15.21 C3.22 16.59 3.27 17.96 3.31 19.38 C3.37 20.74 3.43 22.11 3.49 23.52 C3.33 24.67 3.17 25.82 3 27 C0.67 28.54 0.67 28.54 -2 29 C-2.99 28.67 -3.98 28.34 -5 28 C-5.58 25.97 -5.58 25.97 -5.81 23.5 C-5.9 22.69 -5.99 21.87 -6.08 21.03 C-6.05 20.36 -6.03 19.69 -6 19 C-5.34 18.67 -4.68 18.34 -4 18 C-4 20.97 -4 23.94 -4 27 C-3.34 27 -2.68 27 -2 27 C-0.31 17.92 0.25 9.23 0 0 Z " fill="#9d593a" transform="translate(294,75)"/>
<path d="M0 0 C0.66 0.66 1.32 1.32 2 2 C1.93 5.86 1.49 7.51 -1.26 10.27 C-9.56 16.01 -15.84 18.75 -26 18 C-26.99 17.01 -27.98 16.02 -29 15 C-25 13 -25 13 -21.88 13.12 C-14.86 12.9 -8 10 -3 5 C-1.19 2.25 -1.19 2.25 0 0 Z " fill="#939223" transform="translate(91,197)"/>
<path d="M0 0 C0.66 0.99 1.32 1.98 2 3 C5.31 2.72 8.37 2.3 11.62 1.69 C12.07 1.61 12.07 1.61 14.34 1.21 C16.57 0.82 18.78 0.41 21 0 C20.96 2.23 20.96 2.23 20 5 C17.5 6.69 15.25 8.01 12.56 9.31 C11.87 9.67 11.17 10.03 10.46 10.4 C5.34 13 5.34 13 3 13 C3 10.36 3 7.72 3 5 C0.69 5.33 -1.62 5.66 -4 6 C-2.68 4.02 -1.36 2.04 0 0 Z " fill="#b6683f" transform="translate(89,192)"/>
<path d="M0 0 C0.66 0 1.32 0 2 0 C5.16 10.78 3.27 22.84 -1 33 C-1.33 33 -1.66 33 -2 33 C-2 31.35 -2 29.7 -2 28 C-2.66 28.33 -3.32 28.66 -4 29 C-4.85 31.72 -4.85 31.72 -5.62 35.06 C-5.76 35.61 -5.76 35.61 -6.41 38.41 C-6.61 39.26 -6.8 40.12 -7 41 C-7.66 40.67 -8.32 40.34 -9 40 C-8.61 37.27 -8.61 37.27 -7.75 33.81 C-7.48 32.68 -7.2 31.56 -6.92 30.39 C-5.19 24.01 -5.19 24.01 -4 21 C-3.34 21 -2.68 21 -2 21 C-1.67 17.53 -1.67 17.53 0 0 Z " fill="#7c4331" transform="translate(297,87)"/>
<path d="M0 0 C0.66 0 1.32 0 2 0 C2.16 2.15 2.33 4.3 2.49 6.45 C3.99 13.93 8.21 17.13 14.19 21.3 C17.37 23.23 20.33 24.35 24 25 C23.34 25.99 22.68 26.98 22 28 C15.72 28 9.67 24.48 5.16 20.29 C0.09 14.62 -1.42 10.54 -1 3 C-0.67 2.01 -0.34 1.02 0 0 Z " fill="#b6683f" transform="translate(247,73)"/>
<path d="M0 0 C0.5 0.33 0.5 0.33 3 2 C3 2.66 3 3.32 3 4 C3.93 3.75 4.86 3.51 5.81 3.25 C9 3 9 3 11 4.69 C11.17 5.07 11.17 5.07 12 7 C11.34 8.32 10.68 9.64 10 11 C10.99 11.99 11.98 12.98 13 14 C13.69 18.19 13.69 18.19 14 22 C14.66 22 15.32 22 16 22 C17.12 25 17.12 25 18 28 C17.34 28.33 17.34 28.33 14 30 C13.82 29.36 13.64 28.72 13.45 28.06 C10.42 17.64 10.42 17.64 8 13 C7.01 13 6.02 13 5 13 C5 12.34 5 11.68 5 11 C4.01 10.67 3.02 10.34 2 10 C1.27 7.71 1.27 7.71 0.81 4.94 C0.73 4.48 0.73 4.48 0.33 2.15 C0.22 1.44 0.11 0.73 0 0 Z " fill="#915037" transform="translate(305,58)"/>
<path d="M0 0 C1.32 0 2.64 0 4 0 C4 0.66 4 1.32 4 2 C6.13 2.47 8.27 2.94 10.41 3.37 C14.62 4.39 18.41 6.22 22.31 8.06 C30.55 11.89 30.55 11.89 35 13 C35.33 12.34 35.66 11.68 36 11 C36.99 13.31 37.98 15.62 39 18 C32.02 16.15 25.64 13.6 19.06 10.63 C13.89 8.32 8.69 6.49 3.26 4.92 C1 4 1 4 -1 1 C-0.67 0.67 -0.34 0.34 0 0 Z " fill="#939223" transform="translate(400,186)"/>
<path d="M0 0 C0.33 0 0.66 0 1 0 C1 8.25 1 16.5 1 25 C0.01 25 -0.98 25 -2 25 C-5.53 19.22 -6.96 13.66 -8 7 C-6.87 6.96 -5.73 6.92 -4.56 6.88 C-3.97 6.73 -3.97 6.73 -1 6 C-0.06 2.94 -0.06 2.94 0 0 Z " fill="#7c4331" transform="translate(328,84)"/>
<path d="M0 0 C0 0.33 0 0.66 0 1 C2.31 1.33 4.62 1.66 7 2 C7 2.33 7 2.66 7 3 C6.17 3 5.33 3.01 4.47 3.01 C-5.29 3.34 -10.51 5.83 -17.56 12.38 C-18.04 12.91 -18.51 13.45 -19 14 C-21.06 12.12 -21.06 12.12 -23 10 C-22.67 9.34 -22.34 8.68 -22 8 C-22.66 8 -23.32 8 -24 8 C-23.67 7.01 -23.34 6.02 -23 5 C-20.67 4.63 -18.34 4.3 -16 4 C-13.65 3.04 -11.31 2.05 -9 1 C-5.69 0.17 -3.34 -0.09 0 0 Z " fill="#0e0302" transform="translate(263,42)"/>
<path d="M0 0 C0 3 0 3 -1 5 C-0.22 4.81 0.57 4.63 1.38 4.44 C4 4 4 4 6 5 C4 9 4 9 1 13 C5.29 13 9.58 13 14 13 C14 13.33 14 13.66 14 14 C6.41 14 -1.18 14 -9 14 C-6.73 8.33 -4.31 4.31 0 0 Z " fill="#939223" transform="translate(346,82)"/>
<path d="M0 0 C2.56 -0.05 5.12 -0.09 7.69 -0.12 C9.11 -0.15 10.54 -0.17 12.01 -0.2 C15.6 -0.02 17.86 0.33 21 2 C21 2.33 21 2.66 21 3 C20.64 3.04 20.64 3.04 18.81 3.25 C16 4 16 4 13.5 6.56 C11 9 11 9 8.5 9.62 C4.87 8.72 3.34 6.86 1 4 C0.67 2.68 0.34 1.36 0 0 Z " fill="#a0a226" transform="translate(338,100)"/>
<path d="M0 0 C0.47 0.64 0.95 1.28 1.44 1.94 C3 4 3 4 7 6 C0.95 6.89 -4.89 7.12 -11 7.06 C-11.87 7.06 -12.74 7.05 -13.64 7.05 C-15.76 7.04 -17.88 7.02 -20 7 C-20 6.01 -20 5.02 -20 4 C-19.34 3.67 -18.68 3.34 -18 3 C-18 3.66 -18 4.32 -18 5 C-17.48 4.78 -17.48 4.78 -14.82 3.65 C-13.46 3.09 -12.09 2.52 -10.69 1.94 C-9.33 1.37 -7.97 0.8 -6.57 0.21 C-3 -1 -3 -1 0 0 Z " fill="#9d593a" transform="translate(113,248)"/>
<path d="M0 0 C4 1 4 1 6.38 4.06 C11.42 10.34 19.55 14.23 26.93 17.17 C27.62 17.44 28.3 17.72 29 18 C29 18.33 29 18.66 29 19 C20.85 19.43 15.88 17.82 9.81 12.44 C9.18 11.84 8.55 11.24 7.89 10.62 C6 9 6 9 2 7 C0.75 3.38 0.75 3.38 0 0 Z " fill="#915037" transform="translate(384,234)"/>
<path d="M0 0 C0.75 2.38 0.75 2.38 1 5 C1.66 5.66 2.32 6.32 3 7 C2.2 6.92 1.39 6.84 0.56 6.75 C-0.28 6.83 -1.13 6.91 -2 7 C-2.33 8.32 -2.66 9.64 -3 11 C-5.88 11.44 -5.88 11.44 -9 11 C-9.99 10.01 -10.98 9.02 -12 8 C-12 5.5 -12 5.5 -11 3 C-7.51 0.11 -4.49 -0.82 0 0 Z " fill="#b2b528" transform="translate(263,45)"/>
<path d="M0 0 C6.24 -0.37 10.17 0.59 15.75 3.38 C17.02 4 18.3 4.63 19.61 5.27 C20.73 5.84 21.85 6.41 23 7 C26.9 8.95 29.72 9.51 34 10 C34 10.33 34 10.66 34 11 C21.21 11.64 10.8 7.79 0 1 C0 0.67 0 0.34 0 0 Z " fill="#7c4331" transform="translate(461,232)"/>
<path d="M0 0 C6.27 0 12.54 0 19 0 C19 0.33 19 0.66 19 1 C14.71 1 10.42 1 6 1 C9.87 4.87 10.81 5.57 15.75 6.75 C16.73 6.99 17.72 7.23 18.73 7.48 C19.48 7.65 20.23 7.82 21 8 C20.67 8.5 20.67 8.5 19 11 C15.48 10.74 15.48 10.74 11.19 9.88 C9.78 9.6 8.37 9.33 6.92 9.05 C3.4 8.11 0.97 7.06 -2 5 C-1.34 4.67 -0.68 4.34 0 4 C0 2.68 0 1.36 0 0 Z " fill="#b6683f" transform="translate(459,219)"/>
<path d="M0 0 C0.99 0.99 1.98 1.98 3 3 C5.69 4.19 5.69 4.19 8 5 C7.58 6.67 7.14 8.34 6.69 10 C6.44 10.93 6.2 11.86 5.95 12.81 C5.64 13.53 5.32 14.26 5 15 C2 15 2 15 -1.25 12.81 C-4 10 -4 10 -4.06 7.5 C-2.92 4.82 -1.6 2.43 0 0 Z " fill="#5e3321" transform="translate(266,197)"/>
<path d="M0 0 C0.33 0 0.66 0 1 0 C1 5.28 1 10.56 1 16 C1.66 16 2.32 16 3 16 C3.66 14.68 4.32 13.36 5 12 C9 14 9 14 11 16 C9.72 17.67 8.42 19.34 7.12 21 C6.41 21.93 5.69 22.86 4.95 23.81 C4.3 24.53 3.66 25.26 3 26 C2.34 26 1.68 26 1 26 C0.14 20.12 -0.13 14.44 -0.06 8.5 C-0.06 8.09 -0.06 8.09 -0.05 6.01 C-0.04 4.01 -0.02 2 0 0 Z " fill="#939223" transform="translate(275,214)"/>
<path d="M0 0 C0.33 1.32 0.66 2.64 1 4 C-1.61 6.67 -4.15 7.5 -7.77 8.17 C-8.21 8.25 -8.21 8.25 -10.46 8.69 C-11.38 8.85 -12.3 9.02 -13.25 9.19 C-14.19 9.36 -15.12 9.54 -16.09 9.72 C-18.39 10.16 -20.69 10.58 -23 11 C-23 10.34 -23 9.68 -23 9 C-15.88 4.88 -7.81 2.44 0 0 Z " fill="#939223" transform="translate(114,185)"/>
<path d="M0 0 C1.33 0 2.67 0 4 0 C4.08 2.06 4.14 4.12 4.19 6.19 C4.22 7.34 4.26 8.48 4.29 9.67 C3.87 14.48 2.04 16.96 -1.31 20.31 C-4.48 22.3 -6.33 22.34 -10 22 C-10 21.34 -10 20.68 -10 20 C-9.26 19.73 -8.51 19.46 -7.75 19.19 C-3.84 17.5 -1.88 14.76 0 11 C0.07 9.13 0.08 7.25 0.06 5.38 C0.06 4.87 0.06 4.87 0.04 2.34 C0.02 1.57 0.01 0.79 0 0 Z " fill="#351d0e" transform="translate(282,85)"/>
<path d="M0 0 C0.99 0 1.98 0 3 0 C5.18 3.27 6.03 5.29 5.88 9.25 C5 12 5 12 2 14 C0.18 12.66 0.18 12.66 -1.69 10.62 C-2.31 9.96 -2.93 9.29 -3.57 8.6 C-4.04 8.07 -4.52 7.54 -5 7 C-4.36 6.22 -3.72 5.43 -3.06 4.62 C-1 2 -1 2 0 0 Z " fill="#a0a226" transform="translate(384,164)"/>
<path d="M0 0 C6.93 0.33 13.86 0.66 21 1 C21 1.33 21 1.66 21 2 C19.87 2.12 18.73 2.25 17.56 2.38 C16.97 2.48 16.97 2.48 14 3 C13.67 3.66 13.34 4.32 13 5 C13.66 5 14.32 5 15 5 C14.67 6.32 14.34 7.64 14 9 C10.44 9.25 10.44 9.25 7 9 C7.66 7.35 8.32 5.7 9 4 C7.89 4.08 6.77 4.16 5.62 4.25 C4.43 4.17 3.23 4.09 2 4 C1.34 2.68 0.68 1.36 0 0 Z " fill="#915037" transform="translate(226,45)"/>
<path d="M0 0 C2.44 0 2.44 0 5 1 C6.12 4.94 6.12 4.94 6 9 C3.81 10.44 3.81 10.44 1 11 C-0.32 11.33 -1.64 11.66 -3 12 C-3.66 11.01 -4.32 10.02 -5 9 C-2.81 4.41 -2.81 4.41 0 3 C0 2.01 0 1.02 0 0 Z " fill="#9d593a" transform="translate(340,194)"/>
<path d="M0 0 C0.56 0.33 0.56 0.33 3.38 2 C4.57 2.66 5.77 3.32 7 4 C10 3 10 3 12 0 C13 4 13 4 13 7 C9.71 8.1 8.29 7.8 5 7 C5 10 5 10 6 14 C3.36 13.67 0.72 13.34 -2 13 C-1.01 12.34 -0.02 11.68 1 11 C0.74 7.44 0.13 4.39 -1 1 C-0.67 0.67 -0.34 0.34 0 0 Z " fill="#a0a226" transform="translate(255,218)"/>
<path d="M0 0 C2.32 2.85 3.92 5.48 5 9 C4.67 9.99 4.34 10.98 4 12 C-0.62 9.69 -5.24 7.38 -10 5 C-9.01 4.01 -8.02 3.02 -7 2 C-3.31 2.31 -3.31 2.31 0 3 C0 2.01 0 1.02 0 0 Z " fill="#939223" transform="translate(396,205)"/>
<path d="M0 0 C1.5 2.56 1.5 2.56 2 5 C-2.36 7.18 -3.47 7.18 -8 6 C-8.66 5.34 -9.32 4.68 -10 4 C-10 2.68 -10 1.36 -10 0 C-6.56 -1.72 -3.64 -0.8 0 0 Z " fill="#d5d62d" transform="translate(364,88)"/>
<path d="M0 0 C0.99 0.33 1.98 0.66 3 1 C2.67 1.16 2.67 1.16 1 2 C1.82 6.23 2.6 9.4 5 13 C5.33 18.35 5.33 18.35 4 21 C-0.03 19.66 -0.88 17.58 -3 14 C-3 13.34 -3 12.68 -3 12 C-2.34 11.67 -1.68 11.34 -1 11 C-0.59 8.5 -0.59 8.5 -0.38 5.44 C-0.3 4.43 -0.23 3.41 -0.15 2.37 C-0.1 1.59 -0.05 0.81 0 0 Z " fill="#b2b528" transform="translate(132,146)"/>
<path d="M0 0 C4.31 -0.09 8.62 -0.14 12.94 -0.19 C13.55 -0.2 13.55 -0.2 16.67 -0.26 C17.84 -0.27 19.01 -0.28 20.21 -0.29 C20.76 -0.3 20.76 -0.3 23.5 -0.34 C23.91 -0.28 23.91 -0.28 26 0 C26.33 0.99 26.66 1.98 27 3 C23.06 3.09 19.13 3.14 15.19 3.19 C14.63 3.2 14.63 3.2 11.79 3.26 C10.72 3.27 9.65 3.28 8.54 3.29 C8.05 3.3 8.05 3.3 5.54 3.34 C3 3 3 3 0 0 Z " fill="#351d0e" transform="translate(248,7)"/>
<path d="M0 0 C2.8 2.8 2.79 5.13 3 9 C0 10 0 10 -4 9 C-4.66 9 -5.32 9 -6 9 C-6.33 9.66 -6.66 10.32 -7 11 C-8.62 8.12 -8.62 8.12 -10 5 C-9.34 4.34 -8.68 3.68 -8 3 C-7.5 3.1 -7.5 3.1 -5 3.62 C-4.5 3.69 -4.5 3.69 -2 4 C-1.34 2.68 -0.68 1.36 0 0 Z " fill="#a0a226" transform="translate(268,221)"/>
<path d="M0 0 C0.33 0 0.66 0 1 0 C0.63 11.14 -4.4 20.04 -12 28 C-12.33 26.68 -12.66 25.36 -13 24 C-11.33 22.67 -9.67 21.33 -8 20 C-6.52 16.76 -6.52 16.76 -5.38 13.12 C-3.89 8.52 -2.35 4.24 0 0 Z " fill="#7c4331" transform="translate(205,129)"/>
<path d="M0 0 C0.99 0 1.98 0 3 0 C2.58 6.7 1.47 11.22 -2 17 C-2.66 17 -3.32 17 -4 17 C-5.52 10.58 -4.69 7.38 -1.42 1.69 C-0.95 1.13 -0.48 0.57 0 0 Z " fill="#d27f45" transform="translate(179,123)"/>
<path d="M0 0 C0.47 0.7 0.95 1.4 1.44 2.12 C4.38 5.42 7.46 7.29 11.27 9.47 C11.84 9.98 12.41 10.48 13 11 C12.67 12.32 12.34 13.64 12 15 C9 14 9 14 6 11 C4.76 10.61 3.53 10.22 2.25 9.81 C1.18 9.21 0.1 8.62 -1 8 C-0.94 3.81 -0.94 3.81 0 0 Z " fill="#9d593a" transform="translate(230,143)"/>
<path d="M0 0 C0.55 0.07 0.55 0.07 3.31 0.44 C3.64 1.1 3.97 1.76 4.31 2.44 C3.65 2.44 2.99 2.44 2.31 2.44 C2.31 3.1 2.31 3.76 2.31 4.44 C1.49 4.11 1.49 4.11 -2.69 2.44 C-2.03 4.42 -1.37 6.4 -0.69 8.44 C-1.97 8.4 -3.25 8.36 -4.56 8.31 C-8.69 8.44 -8.69 8.44 -10.69 10.44 C-11.35 8.79 -12.01 7.14 -12.69 5.44 C-11.94 5.54 -11.2 5.64 -10.44 5.75 C-9.98 5.7 -9.98 5.7 -7.69 5.44 C-7.07 4.61 -6.45 3.79 -5.81 2.94 C-3.69 0.44 -3.69 0.44 0 0 Z " fill="#b2b528" transform="translate(357.6875,102.5625)"/>
<path d="M0 0 C4.68 -0.28 4.68 -0.28 7.56 2.25 C8.37 3.16 9.17 4.06 10 5 C10.38 5.38 10.38 5.38 12.31 7.31 C12.87 7.87 13.43 8.43 14 9 C12.68 9 11.36 9 10 9 C10 9.66 10 10.32 10 11 C5.91 8.95 5.07 8.07 2.75 4.38 C2.49 3.97 2.49 3.97 1.17 1.9 C0.79 1.27 0.4 0.65 0 0 Z " fill="#915037" transform="translate(396,197)"/>
<path d="M0 0 C0.33 0.99 0.66 1.98 1 3 C4 2 4 2 6 0 C5.72 1.63 5.42 3.25 5.12 4.88 C4.96 5.78 4.8 6.68 4.63 7.62 C4 10 4 10 2 12 C2 10.35 2 8.7 2 7 C1.67 7.17 1.67 7.17 0 8 C-0.85 10.72 -0.85 10.72 -1.62 14.06 C-1.89 15.17 -2.15 16.27 -2.41 17.41 C-2.61 18.26 -2.8 19.12 -3 20 C-3.66 19.67 -4.32 19.34 -5 19 C-4.61 16.27 -4.61 16.27 -3.75 12.81 C-3.48 11.68 -3.2 10.56 -2.92 9.39 C-2.06 6.22 -1.08 3.11 0 0 Z " fill="#7c4331" transform="translate(293,108)"/>
<path d="M0 0 C0.33 0 0.66 0 1 0 C2.64 6.65 4.4 14.17 3 21 C2.34 21.33 2.34 21.33 -1 23 C-1.03 19.54 -1.05 16.08 -1.06 12.62 C-1.07 11.64 -1.08 10.66 -1.09 9.64 C-1.09 8.7 -1.09 7.76 -1.1 6.79 C-1.1 5.92 -1.11 5.05 -1.11 4.15 C-1 2 -1 2 0 0 Z " fill="#7c4331" transform="translate(285,167)"/>
<path d="M0 0 C2.15 3.23 2.2 4.28 2 8 C2.99 7.67 3.98 7.34 5 7 C4.25 15.75 4.25 15.75 2 18 C-1.17 11.53 -1.75 6.98 0 0 Z " fill="#b6683f" transform="translate(238,68)"/>
<path d="M0 0 C0.72 0.27 1.44 0.54 2.19 0.81 C1.86 2.13 1.53 3.45 1.19 4.81 C5.15 5.14 9.11 5.47 13.19 5.81 C13.19 6.14 13.19 6.47 13.19 6.81 C10.81 6.87 8.44 6.91 6.06 6.94 C4.74 6.96 3.42 6.98 2.05 7.01 C-1.64 6.82 -4.39 6.17 -7.81 4.81 C-3.5 -0.23 -3.5 -0.23 0 0 Z " fill="#915037" transform="translate(21.8125,232.1875)"/>
<path d="M0 0 C5.28 0 10.56 0 16 0 C15.01 0.33 14.02 0.66 13 1 C13.66 2.98 14.32 4.96 15 7 C13 6.33 11 5.67 9 5 C8.21 4.76 7.41 4.52 6.6 4.27 C4.38 3.58 2.19 2.79 0 2 C0 1.34 0 0.68 0 0 Z " fill="#b2b528" transform="translate(404,186)"/>
<path d="M0 0 C0.81 -0.04 1.63 -0.07 2.47 -0.11 C2.8 -0.04 2.8 -0.04 4.5 0.31 C4.83 1.63 5.16 2.95 5.5 4.31 C0.15 6.99 0.15 6.99 -3.5 6.31 C-4.88 3.88 -4.88 3.88 -5.5 1.31 C-3.9 -0.29 -2.2 0.07 0 0 Z " fill="#d5d62d" transform="translate(267.5,44.6875)"/>
<path d="M0 0 C0.33 2.31 0.66 4.62 1 7 C0.22 7.14 -0.57 7.29 -1.38 7.44 C-4 8 -4 8 -6 9 C-7.31 6.75 -7.31 6.75 -8 4 C-5.3 1.15 -3.98 0 0 0 Z M-7 9 C-6.67 9.5 -6.67 9.5 -5 12 C-5.66 12 -6.32 12 -7 12 C-7 11.01 -7 10.02 -7 9 Z " fill="#7c4331" transform="translate(63,224)"/>
<path d="M0 0 C2.5 2.76 4.07 5.92 5.69 9.25 C5.91 9.7 5.91 9.7 7.01 11.95 C7.34 12.63 7.66 13.3 8 14 C6.68 14 5.36 14 4 14 C2.98 11.67 1.99 9.34 1 7 C-0.32 6.67 -1.64 6.34 -3 6 C-2.62 3.56 -2.62 3.56 -2 1 C-1.34 0.67 -0.68 0.34 0 0 Z " fill="#915037" transform="translate(235,105)"/>
<path d="M0 0 C3.65 2.66 5.81 5.06 8 9 C8.33 9 8.66 9 9 9 C9.33 6.36 9.66 3.72 10 1 C10.33 1 10.66 1 11 1 C11.36 9.27 11.36 9.27 9.69 12.62 C9.13 13.08 8.57 13.53 8 14 C5 13 5 13 3.87 11.07 C3.54 10.29 3.21 9.5 2.88 8.69 C2.71 8.3 2.71 8.3 1.87 6.32 C1 4 1 4 0 0 Z " fill="#a0a226" transform="translate(135,148)"/>
<path d="M0 0 C3.28 0.31 4.68 0.67 7.02 3.07 C7.61 3.89 8.2 4.71 8.81 5.56 C9.42 6.39 10.02 7.22 10.64 8.07 C11.09 8.7 11.54 9.34 12 10 C11.34 10.33 11.34 10.33 8 12 C6.11 10.33 6.11 10.33 4.31 7.81 C3.71 6.99 3.11 6.18 2.49 5.33 C1 3 1 3 0 0 Z " fill="#915037" transform="translate(266,71)"/>
<path d="M0 0 C2.33 2.33 4.67 4.67 7 7 C4.01 8.49 1.3 8.12 -2 8 C-2.99 7.67 -3.98 7.34 -5 7 C-3 3 -3 3 0 0 Z " fill="#b2b528" transform="translate(300,236)"/>
<path d="M0 0 C0.66 0.66 1.32 1.32 2 2 C-6.45 9 -6.45 9 -10 9 C-8.12 2.12 -8.12 2.12 -7 1 C-3.56 0.31 -3.56 0.31 0 0 Z " fill="#b6683f" transform="translate(74,214)"/>
<path d="M0 0 C2.94 0.25 2.94 0.25 6 1 C6.33 2.32 6.66 3.64 7 5 C6.01 4.67 5.02 4.34 4 4 C3.67 5.32 3.34 6.64 3 8 C0.62 8.44 0.62 8.44 -2 8 C-2.99 7.01 -3.98 6.02 -5 5 C-3.68 4.34 -2.36 3.68 -1 3 C-0.67 2.01 -0.34 1.02 0 0 Z " fill="#915037" transform="translate(452,226)"/>
<path d="M0 0 C1.71 1.62 3.37 3.29 5 5 C5 5.66 5 6.32 5 7 C-0.75 6.12 -0.75 6.12 -3 5 C-2.67 11.27 -2.34 17.54 -2 24 C-5.12 20.88 -4.37 17.12 -4.38 12.94 C-4.4 12.1 -4.42 11.26 -4.45 10.39 C-4.46 7.96 -4.46 7.96 -4 4 C-2.68 3.67 -1.36 3.34 0 3 C0 2.01 0 1.02 0 0 Z " fill="#915037" transform="translate(202,32)"/>
<path d="M0 0 C0 3.63 0 7.26 0 11 C-0.99 11 -1.98 11 -3 11 C-4.17 9.03 -4.17 9.03 -5.19 6.5 C-5.53 5.66 -5.88 4.83 -6.23 3.97 C-6.48 3.32 -6.74 2.67 -7 2 C-1.12 0 -1.12 0 0 0 Z " fill="#7c4331" transform="translate(329,98)"/>
<path d="M0 0 C2.77 0.01 4.99 2.23 5 4 C4.99 6.77 2.77 8.99 0 9 C-2.21 9 -3.99 7.21 -4 4 C-3.99 1.79 -2.21 0.01 0 0 Z " fill="#939223" transform="translate(138,160.99972405)"/>
<path d="M0 0 C1.32 0 2.64 0 4 0 C4.33 2.31 4.66 4.62 5 7 C5.66 7 6.32 7 7 7 C8.12 10 8.12 10 9 13 C8.34 13.33 8.34 13.33 5 15 C4.81 14.34 4.61 13.67 4.41 12.99 C1.83 4.22 1.83 4.22 0 0 Z " fill="#7c4331" transform="translate(314,73)"/>
<path d="M0 0 C3 1 3 1 5 3 C6.65 3.71 8.32 4.38 10 5 C8.35 6.65 6.7 8.3 5 10 C4.9 9.6 4.9 9.6 4.38 7.56 C3.92 6.72 3.47 5.87 3 5 C-0.12 4.19 -0.12 4.19 -3 4 C-2.01 3.67 -1.02 3.34 0 3 C0 2.01 0 1.02 0 0 Z " fill="#c5c729" transform="translate(361,83)"/>
<path d="M0 0 C1.89 2.39 3.02 4.07 4 7 C1.94 8.81 1.94 8.81 -1 10 C-4.31 9.19 -4.31 9.19 -7 8 C-6.22 7.42 -5.43 6.84 -4.62 6.25 C-2 4 -2 4 0 0 Z " fill="#5e3321" transform="translate(239,222)"/>
<path d="M0 0 C-0.33 2.31 -0.66 4.62 -1 7 C-4.11 5.44 -7.04 3.81 -10 2 C-9.67 1.34 -9.34 0.68 -9 0 C-5.16 -0.96 -3.68 -0.92 0 0 Z " fill="#b6683f" transform="translate(307,48)"/>
<path d="M0 0 C0.38 2.38 0.38 2.38 0 5 C-3.17 6.48 -5.5 7 -9 7 C-8 3 -8 3 -7 1 C-3 0 -3 0 0 0 Z " fill="#d5d62d" transform="translate(304,58)"/>
<path d="M0 0 C2.97 0.33 5.94 0.66 9 1 C7.5 4.06 7.5 4.06 5 7 C0.75 6.88 0.75 6.88 -3 6 C-2.01 5.34 -1.02 4.68 0 4 C0 2.68 0 1.36 0 0 Z " fill="#b2b528" transform="translate(272,45)"/>
<path d="M0 0 C3.15 1.58 5.07 2.75 7.62 5 C8.22 5.52 8.81 6.03 9.41 6.56 C10.64 7.67 11.83 8.83 13 10 C6.16 9.61 6.16 9.61 4 9 C2.51 6.01 1.21 3.1 0 0 Z " fill="#5e3321" transform="translate(387,241)"/>
<path d="M0 0 C1.32 0 2.64 0 4 0 C4.69 2.19 4.69 2.19 5 5 C5.11 5.45 5.11 5.45 5.69 7.75 C5.79 8.49 5.89 9.24 6 10 C5.67 10.16 5.67 10.16 4 11 C3.01 10.34 2.02 9.68 1 9 C0.96 7.33 0.96 5.67 1 4 C0.34 3.67 -0.32 3.34 -1 3 C-0.67 2.01 -0.34 1.02 0 0 Z " fill="#9d593a" transform="translate(150,220)"/>
<path d="M0 0 C1.73 1.14 1.73 1.14 3.62 2.81 C4.26 3.36 4.89 3.9 5.54 4.46 C7 6 7 6 7 8 C2.34 6.79 -1.75 5.28 -6 3 C-4 2 -2 1 0 0 Z " fill="#b6683f" transform="translate(500,230)"/>
<path d="M0 0 C1.32 0.66 1.32 0.66 8 4 C7.34 4.33 7.34 4.33 4 6 C3.25 8.62 3.25 8.62 3 11 C1.68 10.34 0.36 9.68 -1 9 C-1.25 5.88 -0.53 3.11 0 0 Z " fill="#939223" transform="translate(381,181)"/>
<path d="M0 0 C1.03 0.8 2.06 1.61 3.12 2.44 C6.37 4.78 8.95 5.7 13 6 C11.68 6.33 10.36 6.66 9 7 C9 7.66 9 8.32 9 9 C9.99 9.33 10.98 9.66 12 10 C6.59 9.61 3.78 7.87 0 4 C0 2.68 0 1.36 0 0 Z " fill="#351d0e" transform="translate(256,87)"/>
<path d="M0 0 C2.77 0.01 4.99 2.23 5 4 C4.99 6.77 2.77 8.99 0 9 C-2.21 9 -3.99 7.21 -4 4 C-3.99 1.79 -2.21 0.01 0 0 Z " fill="#a0a226" transform="translate(376,195.99972405)"/>
<path d="M0 0 C1.51 0.59 3 1.2 4.5 1.81 C5.34 2.15 6.17 2.49 7.03 2.83 C7.68 3.22 8.33 3.6 9 4 C9 4.99 9 5.98 9 7 C3.71 6.59 0.88 5.65 -3 2 C-2.01 2 -1.02 2 0 2 C0 1.34 0 0.68 0 0 Z " fill="#9d593a" transform="translate(207,37)"/>
<path d="M0 0 C-2.9 2.9 -4.89 4.09 -8.56 5.75 C-9.05 5.97 -9.05 5.97 -11.5 7.11 C-12.33 7.4 -13.15 7.7 -14 8 C-14.66 7.67 -15.32 7.34 -16 7 C-11.25 4 -11.25 4 -9 4 C-9 3.34 -9 2.68 -9 2 C-5.34 -0.75 -4.63 -1.16 0 0 Z " fill="#7c4331" transform="translate(54,230)"/>
<path d="M0 0 C2.21 0.01 3.99 1.79 4 3 C3.99 5.21 2.21 7 0 7 C-1.66 7 -3 5.66 -3 3 C-3 1.34 -1.66 0 0 0 Z " fill="#9d593a" transform="translate(448,223.99977924)"/>
<path d="M0 0 C0.42 0.06 0.42 0.06 2.56 0.38 C3.88 2.88 3.88 2.88 4.56 5.38 C1.59 5.38 -1.38 5.38 -4.44 5.38 C-3.22 0.49 -3.22 0.49 0 0 Z " fill="#d5d62d" transform="translate(255.4375,46.625)"/>
<path d="M0 0 C0.33 0 0.66 0 1 0 C1.8 6.24 -0.12 9.37 -3.59 14.28 C-4.06 14.85 -4.52 15.41 -5 16 C-5.33 16 -5.66 16 -6 16 C-6.19 13.69 -6.19 13.69 -6 11 C-5.01 10.01 -4.02 9.02 -3 8 C-1.97 5.34 -0.97 2.68 0 0 Z " fill="#9d593a" transform="translate(185,125)"/>
<path d="M0 0 C-0.25 0.78 -0.5 1.57 -0.75 2.38 C-0.83 3.24 -0.92 4.11 -1 5 C0.32 5.66 1.64 6.32 3 7 C-1.75 6.53 -5.11 5.83 -9 3 C-9 2.67 -9 2.34 -9 2 C-5.84 0.81 -3.4 0 0 0 Z " fill="#b2b528" transform="translate(361,115)"/>
<path d="M0 0 C0.82 0.33 0.82 0.33 5 2 C0.61 7.47 0.61 7.47 -1 9 C-1.99 9 -2.98 9 -4 9 C-3.09 5.34 -2 3.12 0 0 Z " fill="#b2b528" transform="translate(290,218)"/>
<path d="M0 0 C0 0.66 0 1.32 0 2 C-7.18 6 -7.18 6 -11 6 C-10.34 5.01 -9.68 4.02 -9 3 C-9.66 3 -10.32 3 -11 3 C-11 2.34 -11 1.68 -11 1 C-7.33 -0.08 -3.8 -0.09 0 0 Z " fill="#b2b528" transform="translate(361,84)"/>
<path d="M0 0 C1 3 1 3 -0.44 6.19 C-3.19 10.7 -6.83 14.75 -11 18 C-11.66 17.67 -12.32 17.34 -13 17 C-12.31 16.28 -11.63 15.55 -10.92 14.8 C-10.47 14.32 -10.47 14.32 -8.19 11.88 C-7.29 10.92 -6.4 9.97 -5.48 8.99 C-3.09 6.11 -1.52 3.41 0 0 Z " fill="#915037" transform="translate(146,229)"/>
<path d="M0 0 C2.38 2.38 2.45 3.55 3 6.81 C3.66 10.43 4.44 13.65 6 17 C3 16 3 16 1.31 13.56 C-0.39 8.94 -0.26 4.87 0 0 Z " fill="#915037" transform="translate(249,72)"/>
<path d="M0 0 C1.32 1.65 2.64 3.3 4 5 C1.64 7.1 0.45 7.97 -2.75 8.19 C-3.49 8.13 -4.24 8.06 -5 8 C-4 5 -4 5 -1 3 C-0.67 2.01 -0.34 1.02 0 0 Z " fill="#9d593a" transform="translate(174,200)"/>
<path d="M0 0 C3.3 0 6.6 0 10 0 C9.67 1.32 9.34 2.64 9 4 C6.12 4.5 6.12 4.5 3 4 C2.01 2.68 1.02 1.36 0 0 Z " fill="#b2b528" transform="translate(251,52)"/>
<path d="M0 0 C2.02 0.6 4.02 1.27 6 2 C6.33 2.66 6.66 3.32 7 4 C10.06 4.62 10.06 4.62 13 5 C13 5.33 13 5.66 13 6 C7.91 6.21 3.84 5.58 -1 4 C-0.67 2.68 -0.34 1.36 0 0 Z " fill="#939223" transform="translate(282,241)"/>
<path d="M0 0 C0.33 0.66 0.66 1.32 1 2 C0.01 2.99 -0.98 3.98 -2 5 C-1.34 5.15 -1.34 5.15 2 5.94 C2.66 6.11 2.66 6.11 6 7 C6 7.33 6 7.66 6 8 C4.38 8.05 2.75 8.09 1.12 8.12 C0.22 8.15 -0.68 8.17 -1.62 8.2 C-4 8 -4 8 -6 6 C-4 2 -4 2 0 0 Z " fill="#b2b528" transform="translate(408,172)"/>
<path d="M0 0 C0.33 0.66 0.66 1.32 1 2 C1.76 1.65 2.53 1.3 3.31 0.94 C6 0 6 0 9 1 C8.67 1.99 8.34 2.98 8 4 C5.93 4.29 5.93 4.29 3.44 4.19 C2.71 4.16 2.71 4.16 -1 4 C-1 1 -1 1 0 0 Z " fill="#b6683f" transform="translate(94,251)"/>
<path d="M0 0 C1.32 0 2.64 0 4 0 C4 0.66 4 1.32 4 2 C4.41 2.07 4.41 2.07 6.5 2.44 C7.32 2.62 8.15 2.81 9 3 C9 3.99 9 4.98 9 6 C5.04 5.43 2.33 4.19 -1 2 C-0.67 1.34 -0.34 0.68 0 0 Z " fill="#939223" transform="translate(400,186)"/>
<path d="M0 0 C2.31 -0.19 2.31 -0.19 5 0 C5.99 0.99 6.98 1.98 8 3 C7.69 5.69 7.69 5.69 7 8 C4.35 5.42 2.06 3.08 0 0 Z " fill="#915037" transform="translate(277,71)"/>
<path d="M0 0 C1.66 0 3 1.34 3 3 C3 4.66 1.66 6 0 6 C-1.66 6 -3 4.66 -3 3 C-3 1.34 -1.66 0 0 0 Z " fill="#d5d62d" transform="translate(263,215.99983443)"/>
<path d="M0 0 C0.99 0 1.98 0 3 0 C3.04 1.67 3.04 3.33 3 5 C2 6 2 6 -0.56 6.06 C-0.96 6.05 -0.96 6.05 -3 6 C-2 2 -2 2 0 0 Z " fill="#d5d62d" transform="translate(254,224)"/>
<path d="M0 0 C0.99 0.16 0.99 0.16 6 1 C5.22 1.6 4.43 2.2 3.62 2.81 C1 5 1 5 -1 8 C-2.32 7.34 -3.64 6.68 -5 6 C-4.01 6 -3.02 6 -2 6 C-0.81 3 -0.81 3 0 0 Z " fill="#915037" transform="translate(56,222)"/>
<path d="M0 0 C3.06 -0.25 3.06 -0.25 6 0 C6 1.32 6 2.64 6 4 C3.69 4 1.38 4 -1 4 C-0.67 2.68 -0.34 1.36 0 0 Z " fill="#b6683f" transform="translate(385,186)"/>
<path d="M0 0 C2.21 0.01 3.99 1.79 4 3 C3.99 5.21 2.21 7 0 7 C-1.66 7 -3 5.66 -3 3 C-3 1.34 -1.66 0 0 0 Z " fill="#b2b528" transform="translate(365,106.99977924)"/>
<path d="M0 0 C1.66 0 3 1.34 3 3 C3 4.66 1.66 6 0 6 C-1.66 6 -3 4.66 -3 3 C-3 1.34 -1.66 0 0 0 Z " fill="#939223" transform="translate(265,240.99983443)"/>
<path d="M0 0 C1.66 0 3 1.34 3 3 C3 4.66 1.66 6 0 6 C-1.66 6 -3 4.66 -3 3 C-3 1.34 -1.66 0 0 0 Z " fill="#9d593a" transform="translate(241,128.99983443)"/>
<path d="M0 0 C0.82 0.17 0.82 0.17 5 1 C4.07 3.69 3.07 6.36 2 9 C1.34 9 0.68 9 0 9 C0 6.03 0 3.06 0 0 Z " fill="#9d593a" transform="translate(198,120)"/>
<path d="M0 0 C0.66 0 1.32 0 2 0 C2 5.28 2 10.56 2 16 C1.67 16 1.34 16 1 16 C1 14.02 1 12.04 1 10 C0.34 10 -0.32 10 -1 10 C-0.67 6.7 -0.34 3.4 0 0 Z " fill="#5e3321" transform="translate(202,81)"/>
<path d="M0 0 C0.79 0.29 1.58 0.59 2.39 0.89 C3.19 1.17 3.99 1.46 4.81 1.75 C5.42 2.02 6.02 2.29 6.64 2.57 C6.64 2.9 6.64 3.23 6.64 3.57 C1.79 3.74 -1.97 3.77 -6.36 1.57 C-2.36 -0.43 -2.36 -0.43 0 0 Z " fill="#7c4331" transform="translate(406.359375,249.42578125)"/>
<path d="M0 0 C2.94 -0.31 2.94 -0.31 6 0 C6.88 2.5 6.88 2.5 7 5 C4.62 4.75 4.62 4.75 2 4 C1.34 2.68 0.68 1.36 0 0 Z " fill="#d27f45" transform="translate(452,218)"/>
<path d="M0 0 C1.32 1.32 2.64 2.64 4 4 C2.72 5.71 1.38 7.37 0 9 C-0.66 9 -1.32 9 -2 9 C-1.34 6.03 -0.68 3.06 0 0 Z " fill="#939223" transform="translate(123,207)"/>
<path d="M0 0 C0.66 0 1.32 0 2 0 C1.75 3.44 1.75 3.44 1 7 C-0.32 7.33 -1.64 7.66 -3 8 C-2.45 4.63 -1.95 2.92 0 0 Z " fill="#5e3321" transform="translate(297,103)"/>
<path d="M0 0 C4.19 -0.2 7.22 0.11 11 2 C11 2.33 11 2.66 11 3 C7.75 4.25 7.75 4.25 4 5 C1.56 3.75 1.56 3.75 0 2 C0 1.34 0 0.68 0 0 Z " fill="#a0a226" transform="translate(348,100)"/>
<path d="M0 0 C2 4 2 4 3 8 C0.56 9.75 0.56 9.75 -2 11 C-1.5 7.25 -0.92 3.67 0 0 Z " fill="#915037" transform="translate(228,60)"/>
<path d="M0 0 C3.12 2.52 3.95 3.73 4.75 7.75 C4.83 8.82 4.92 9.89 5 11 C4.01 10.67 3.02 10.34 2 10 C1.27 7.71 1.27 7.71 0.81 4.94 C0.73 4.48 0.73 4.48 0.33 2.15 C0.22 1.44 0.11 0.73 0 0 Z " fill="#6c6717" transform="translate(305,58)"/>
<path d="M0 0 C0.66 0.33 1.32 0.66 2 1 C2.25 3.56 2.25 3.56 1 6 C-2.36 6.48 -5.63 6.28 -9 6 C-5 4 -5 4 -2.25 3.56 C-1.88 3.47 -1.88 3.47 0 3 C0 2.01 0 1.02 0 0 Z " fill="#b2b528" transform="translate(115,166)"/>
<path d="M0 0 C0.33 0 0.66 0 1 0 C1 3.63 1 7.26 1 11 C0.01 11 -0.98 11 -2 11 C-2.33 10.01 -2.66 9.02 -3 8 C-2.67 7.67 -2.34 7.34 -2 7 C-1.66 5.33 -1.33 3.67 -1 2 C-0.67 1.34 -0.34 0.68 0 0 Z " fill="#c5c729" transform="translate(144,146)"/>
<path d="M0 0 C1.66 0 3 1.34 3 3 C3 4.66 1.66 6 0 6 C-1.66 6 -3 4.66 -3 3 C-3 1.34 -1.66 0 0 0 Z " fill="#915037" transform="translate(325,93.99983442999999)"/>
<path d="M0 0 C3 1 3 1 4.75 4.38 C6 8 6 8 5 11 C5 10.34 5 9.68 5 9 C4.01 8.67 3.02 8.34 2 8 C0.55 5.1 0 3.26 0 0 Z " fill="#351d0e" transform="translate(311,70)"/>
<path d="M0 0 C2.97 0 5.94 0 9 0 C8.67 0.99 8.34 1.98 8 3 C3.94 3.19 3.94 3.19 0 3 C0 2.01 0 1.02 0 0 Z " fill="#939223" transform="translate(261,52)"/>
<path d="M0 0 C-1.62 2.04 -3.29 4.04 -5 6 C-5.66 6 -6.32 6 -7 6 C-7.62 3.5 -7.62 3.5 -8 1 C-2.25 -1.12 -2.25 -1.12 0 0 Z " fill="#915037" transform="translate(314,45)"/>
<path d="M0 0 C2.21 0.01 3.99 1.79 4 3 C3.99 5.21 2.21 7 0 7 C-1.66 7 -3 5.66 -3 3 C-3 1.34 -1.66 0 0 0 Z " fill="#d5d62d" transform="translate(297,226.99977924)"/>
<path d="M0 0 C0.99 0 1.98 0 3 0 C2.94 2.25 2.94 2.25 2 5 C-1.44 7.38 -1.44 7.38 -5 9 C-5.66 8.67 -6.32 8.34 -7 8 C-6.52 7.71 -6.52 7.71 -4.06 6.25 C-1 4 -1 4 0 0 Z " fill="#b6683f" transform="translate(61,213)"/>
<path d="M0 0 C2.62 -0.25 2.62 -0.25 5 0 C5 0.33 5 0.66 5 1 C7.31 1.33 9.62 1.66 12 2 C12 2.33 12 2.66 12 3 C7.38 3.33 2.76 3.66 -2 4 C-1.34 2.68 -0.68 1.36 0 0 Z " fill="#351d0e" transform="translate(258,42)"/>
<path d="M0 0 C1.65 0 3.3 0 5 0 C4.67 1.98 4.34 3.96 4 6 C2.68 5.34 1.36 4.68 0 4 C0 2.68 0 1.36 0 0 Z " fill="#d5d62d" transform="translate(417,187)"/>
<path d="M0 0 C1.99 2.99 2.94 5.6 4 9 C2.35 9.33 0.7 9.66 -1 10 C-0.67 6.7 -0.34 3.4 0 0 Z " fill="#915037" transform="translate(225,71)"/>
<path d="M0 0 C2.21 0.01 3.99 1.79 4 4 C3.99 6.21 2.21 8 0 8 C-2.21 8 -3.99 6.21 -4 4 C-3.99 1.79 -2.21 0.01 0 0 Z " fill="#b2b528" transform="translate(257,225.99977924)"/>
<path d="M0 0 C0.66 0 1.32 0 2 0 C1.41 6.93 1.41 6.93 1 9 C0.67 9.16 0.67 9.16 -1 10 C-0.67 8.68 -0.34 7.36 0 6 C-0.66 6 -1.32 6 -2 6 C-1.12 3 -1.12 3 0 0 Z " fill="#5e3321" transform="translate(272,179)"/>
<path d="M0 0 C2.31 0 4.62 0 7 0 C7 0.99 7 1.98 7 3 C4.62 3.94 4.62 3.94 2 4 C1.34 2.68 0.68 1.36 0 0 Z " fill="#d5d62d" transform="translate(116,178)"/>
<path d="M0 0 C0.58 0.03 0.58 0.03 3.5 0.19 C3.83 0.85 4.16 1.51 4.5 2.19 C3.84 2.19 3.18 2.19 2.5 2.19 C2.5 2.85 2.5 3.51 2.5 4.19 C1.68 3.86 1.68 3.86 -2.5 2.19 C-2.83 2.85 -3.16 3.51 -3.5 4.19 C-3.83 3.2 -4.16 2.21 -4.5 1.19 C-3.5 0.19 -3.5 0.19 0 0 Z " fill="#c5c729" transform="translate(357.5,102.8125)"/>
<path d="M0 0 C1.66 0 3 1.34 3 3 C3 4.66 1.66 6 0 6 C-1.66 6 -3 4.66 -3 3 C-3 1.34 -1.66 0 0 0 Z " fill="#915037" transform="translate(200,60.99983443)"/>
<path d="M0 0 C2.21 0.01 3.99 1.79 4 3 C3.99 5.21 2.21 7 0 7 C-1.66 7 -3 5.66 -3 3 C-3 1.34 -1.66 0 0 0 Z " fill="#9d593a" transform="translate(17,231.99977924)"/>
<path d="M0 0 C1.66 0 3 1.34 3 2 C3 3.66 1.66 5 0 5 C-1.11 5 -2 4.11 -2 2 C-2 0.89 -1.11 0 0 0 Z " fill="#915037" transform="translate(368,221.99983443)"/>
<path d="M0 0 C0.66 0.33 1.32 0.66 2 1 C1.34 2.32 0.68 3.64 0 5 C-2.62 5.25 -2.62 5.25 -5 5 C-4.67 4.01 -4.34 3.02 -4 2 C-2.68 1.34 -1.36 0.68 0 0 Z " fill="#7c4331" transform="translate(268,203)"/>
<path d="M0 0 C0.99 0.16 0.99 0.16 6 1 C4.35 2.69 2.69 4.35 1 6 C0.67 6 0.34 6 0 6 C0 4.02 0 2.04 0 0 Z " fill="#a0a226" transform="translate(365,191)"/>
<path d="M0 0 C1.32 0.33 2.64 0.66 4 1 C-1.75 6 -1.75 6 -4 6 C-2 2 -2 2 0 0 Z " fill="#351d0e" transform="translate(280,101)"/>
<path d="M0 0 C6.84 -0.49 6.84 -0.49 9 0 C10.29 2.52 10.29 2.52 11 5 C9.16 4.36 7.33 3.71 5.5 3.06 C4.48 2.7 3.46 2.34 2.41 1.97 C1.61 1.65 0.82 1.33 0 1 C0 0.67 0 0.34 0 0 Z " fill="#915037" transform="translate(264,64)"/>
<path d="M0 0 C1.65 0.33 3.3 0.66 5 1 C4.01 2.98 3.02 4.96 2 7 C1.67 6.01 1.34 5.02 1 4 C0.34 4 -0.32 4 -1 4 C-0.67 2.68 -0.34 1.36 0 0 Z " fill="#7c4331" transform="translate(234,53)"/>
<path d="M0 0 C4 2 4 2 5.25 5.12 C5.5 6.07 5.75 7.02 6 8 C5.01 7.34 4.02 6.68 3 6 C3 5.01 3 4.02 3 3 C2.34 3 1.68 3 1 3 C1 3.66 1 4.32 1 5 C0.34 4.67 -0.32 4.34 -1 4 C-0.67 2.68 -0.34 1.36 0 0 Z " fill="#9d593a" transform="translate(446,216)"/>
<path d="M0 0 C3 3.75 3 3.75 3 6 C1.68 6 0.36 6 -1 6 C-1.33 6.66 -1.66 7.32 -2 8 C-1.12 1.12 -1.12 1.12 0 0 Z " fill="#9d593a" transform="translate(228,156)"/>
<path d="M0 0 C2.21 0.01 3.99 1.79 4 4 C3.99 6.21 2.21 8 0 8 C-2.21 8 -3.99 6.21 -4 4 C-3.99 1.79 -2.21 0.01 0 0 Z " fill="#351d0e" transform="translate(183,155.99977924)"/>
<path d="M0 0 C1.49 4.46 0.18 7.48 -1 12 C-1.33 12 -1.66 12 -2 12 C-2.05 10.38 -2.09 8.75 -2.12 7.12 C-2.15 6.22 -2.17 5.32 -2.2 4.38 C-2 2 -2 2 0 0 Z " fill="#7c4331" transform="translate(188,123)"/>
<path d="M0 0 C0.33 0 0.66 0 1 0 C1.33 3.63 1.66 7.26 2 11 C0.68 10.01 -0.64 9.02 -2 8 C-1.78 5.09 -0.92 2.77 0 0 Z " fill="#7c4331" transform="translate(325,60)"/>
<path d="M0 0 C0.33 1.32 0.66 2.64 1 4 C-0.32 4.33 -1.64 4.66 -3 5 C-5.25 3.56 -5.25 3.56 -7 2 C-4.69 1.34 -2.38 0.68 0 0 Z " fill="#a0a226" transform="translate(114,185)"/>
<path d="M0 0 C0.33 0.66 0.66 1.32 1 2 C-0.81 4.12 -0.81 4.12 -3 6 C-3.66 6 -4.32 6 -5 6 C-4.75 3.56 -4.75 3.56 -4 1 C-2.68 0.67 -1.36 0.34 0 0 Z " fill="#9d593a" transform="translate(152,162)"/>
<path d="M0 0 C3 4 3 4 2.81 6.69 C2 9 2 9 0 10 C0 6.7 0 3.4 0 0 Z " fill="#7c4331" transform="translate(286,87)"/>
<path d="M0 0 C-0.33 1.32 -0.66 2.64 -1 4 C-1.99 3.83 -1.99 3.83 -7 3 C-7 2.34 -7 1.68 -7 1 C-3 0 -3 0 0 0 Z " fill="#0e0302" transform="translate(272,93)"/>
<path d="M0 0 C1.32 0.33 2.64 0.66 4 1 C4.33 2.32 4.66 3.64 5 5 C3.68 5 2.36 5 1 5 C0.25 2.5 0.25 2.5 0 0 Z " fill="#d27f45" transform="translate(297,76)"/>
<path d="M0 0 C1.44 0.12 2.89 0.25 4.38 0.38 C4.78 0.41 4.78 0.41 6.84 0.59 C9 1 9 1 11 3 C7.19 3.19 7.19 3.19 3 3 C2.01 2.01 1.02 1.02 0 0 Z " fill="#b6683f" transform="translate(260,61)"/>
<path d="M0 0 C0.66 0.33 1.32 0.66 2 1 C2.31 4 2.31 4 2 7 C1.01 7.33 0.02 7.66 -1 8 C-2 4 -2 4 0 0 Z " fill="#b2b528" transform="translate(266,218)"/>
<path d="M0 0 C1.66 0 3 1.34 3 2 C3 3.66 1.66 5 0 5 C-1.11 5 -2 4.11 -2 2 C-2 0.89 -1.11 0 0 0 Z " fill="#9d593a" transform="translate(335,208.99983443)"/>
<path d="M0 0 C0 0.33 0 0.66 0 1 C-1.66 1.4 -3.33 1.75 -5 2.06 C-5.93 2.24 -6.86 2.42 -7.81 2.6 C-8.17 2.66 -8.17 2.66 -10 3 C-10 2.34 -10 1.68 -10 1 C-5.64 -1.18 -4.53 -1.03 0 0 Z " fill="#939223" transform="translate(101,193)"/>
<path d="M0 0 C0.66 0 1.32 0 2 0 C1.01 2.97 0.02 5.94 -1 9 C-1.66 7.68 -2.32 6.36 -3 5 C-1.75 2.25 -1.75 2.25 0 0 Z " fill="#351d0e" transform="translate(270,185)"/>
<path d="M0 0 C0.99 0 1.98 0 3 0 C3.99 0.99 4.98 1.98 6 3 C6 3.66 6 4.32 6 5 C2 4 2 4 -1 3 C-0.67 2.01 -0.34 1.02 0 0 Z " fill="#d5d62d" transform="translate(105,181)"/>
<path d="M0 0 C1.71 1.62 3.37 3.29 5 5 C5 5.66 5 6.32 5 7 C3.68 6.67 2.36 6.34 1 6 C0.25 2.94 0.25 2.94 0 0 Z " fill="#5e3321" transform="translate(266,127)"/>
<path d="M0 0 C0.33 0 0.66 0 1 0 C1.4 1.66 1.75 3.33 2.06 5 C2.24 5.93 2.42 6.86 2.6 7.81 C2.73 8.53 2.86 9.26 3 10 C1.68 9.34 0.36 8.68 -1 8 C-1.32 4.89 -1.41 2.82 0 0 Z " fill="#9d593a" transform="translate(301,91)"/>
<path d="M0 0 C1.66 0 3 1.34 3 3 C3 4.66 1.66 6 0 6 C-1.66 6 -3 4.66 -3 3 C-3 1.34 -1.66 0 0 0 Z " fill="#d27f45" transform="translate(310,88.99983442999999)"/>
<path d="M0 0 C3.91 1.27 5.79 2.51 8 6 C5.69 5.81 5.69 5.81 3 5 C1.19 2.44 1.19 2.44 0 0 Z " fill="#b6683f" transform="translate(273,65)"/>
<path d="M0 0 C4 4.62 4 4.62 4 8 C3.01 8.33 2.02 8.66 1 9 C0.67 6.03 0.34 3.06 0 0 Z " fill="#7c4331" transform="translate(309,62)"/>
<path d="M0 0 C0.99 0.16 0.99 0.16 6 1 C6 1.99 6 2.98 6 4 C3.56 4.25 3.56 4.25 1 4 C0.67 2.68 0.34 1.36 0 0 Z " fill="#915037" transform="translate(210,40)"/>
<path d="M0 0 C1.06 4.24 0.96 5.28 -1 9 C-1.66 9 -2.32 9 -3 9 C-3.12 6.56 -3.12 6.56 -3 4 C-2.34 3.67 -1.68 3.34 -1 3 C-0.67 2.01 -0.34 1.02 0 0 Z " fill="#b2b528" transform="translate(279,221)"/>
<path d="M0 0 C0.66 1.32 1.32 2.64 2 4 C1.18 4.5 1.18 4.5 -3 7 C-3 3.48 -2.18 2.63 0 0 Z " fill="#9d593a" transform="translate(161,208)"/>
<path d="M0 0 C5.42 -0.37 5.42 -0.37 8.38 1.5 C8.91 2 9.45 2.49 10 3 C3.07 2.41 3.07 2.41 1 2 C0.67 1.34 0.34 0.68 0 0 Z " fill="#d27f45" transform="translate(423,200)"/>
<path d="M0 0 C1.65 0 3.3 0 5 0 C4.67 1.32 4.34 2.64 4 4 C2.68 3.67 1.36 3.34 0 3 C0 2.01 0 1.02 0 0 Z " fill="#c5c729" transform="translate(155,170)"/>
<path d="M0 0 C1.65 0 3.3 0 5 0 C4.69 2.5 4.69 2.5 4 5 C3.01 5 2.02 5 1 5 C0.31 2.5 0.31 2.5 0 0 Z " fill="#7c4331" transform="translate(191,107)"/>
<path d="M0 0 C0.33 0 0.66 0 1 0 C1.33 2.97 1.66 5.94 2 9 C-0.12 7.88 -0.12 7.88 -2 6 C-1.31 2.81 -1.31 2.81 0 0 Z " fill="#9d593a" transform="translate(304,103)"/>
<path d="M0 0 C2.5 0.88 2.5 0.88 5 2 C5 2.66 5 3.32 5 4 C2.69 4 0.38 4 -2 4 C-1.34 2.68 -0.68 1.36 0 0 Z " fill="#b2b528" transform="translate(256,236)"/>
<path d="M0 0 C2.44 -0.25 2.44 -0.25 5 0 C5.33 1.32 5.66 2.64 6 4 C4.68 4 3.36 4 2 4 C1.34 2.68 0.68 1.36 0 0 Z " fill="#7c4331" transform="translate(453,227)"/>
<path d="M0 0 C1.32 0.66 1.32 0.66 8 4 C7.67 4.99 7.34 5.98 7 7 C4.63 5.39 2.29 3.72 0 2 C0 1.34 0 0.68 0 0 Z " fill="#915037" transform="translate(414,210)"/>
<path d="M0 0 C1.66 0 3 1.34 3 2 C3 3.66 1.66 5 0 5 C-1.11 5 -2 4.11 -2 2 C-2 0.89 -1.11 0 0 0 Z " fill="#a0a226" transform="translate(355,199.99983443)"/>
<path d="M0 0 C1 3 1 3 -0.25 5.75 C-0.83 6.49 -1.41 7.24 -2 8 C-2.99 7.67 -3.98 7.34 -5 7 C-3.35 4.69 -1.7 2.38 0 0 Z " fill="#351d0e" transform="translate(236,193)"/>
<path d="M0 0 C3 0.88 3 0.88 6 2 C6 2.66 6 3.32 6 4 C3.56 4.25 3.56 4.25 1 4 C0.67 2.68 0.34 1.36 0 0 Z " fill="#a0a226" transform="translate(409,189)"/>
<path d="M0 0 C0.99 0 1.98 0 3 0 C3.19 2.44 3.19 2.44 3 5 C2.01 5.33 1.02 5.66 0 6 C0 4.02 0 2.04 0 0 Z " fill="#939223" transform="translate(384,164)"/>
<path d="M0 0 C0.66 0.33 1.32 0.66 2 1 C2.12 3.56 2.12 3.56 2 6 C1.01 6 0.02 6 -1 6 C-1.33 4.68 -1.66 3.36 -2 2 C-1.34 2 -0.68 2 0 2 C0 1.34 0 0.68 0 0 Z " fill="#915037" transform="translate(288,127)"/>
<path d="M0 0 C2.5 1.38 2.5 1.38 5 3 C5 3.66 5 4.32 5 5 C3.02 5.33 1.04 5.66 -1 6 C-0.67 4.02 -0.34 2.04 0 0 Z " fill="#915037" transform="translate(222,84)"/>
</svg>
