<svg xmlns="http://www.w3.org/2000/svg" viewBox="-260 -360 520 620" width="520" height="620"><defs></defs><path data-vector-id="glass-interior" data-name="glass-interior" data-ink-role="literal" d="M-1.408 -269.324 C-0.488 -269.324 0.432 -269.328 1.352 -269.328 C8.544 -269.34 15.644 -269.148 22.8 -268.4 C23.372 -268.344 23.944 -268.292 24.532 -268.236 C40.64 -266.668 61.224 -264.308 72.4 -251.2 C75.668 -246.516 76.296 -241.212 75.412 -235.612 C74.216 -231.104 71.376 -227.224 67.448 -224.748 C65.56 -223.66 63.664 -222.62 61.696 -221.684 C60.072 -220.576 59.816 -219.792 59.276 -217.924 C59.196 -217.656 59.196 -217.656 58.8 -216.304 C58.668 -215.808 58.536 -215.312 58.4 -214.8 C58.3 -214.448 58.2 -214.096 58.1 -213.732 C57.888 -212.9 57.74 -212.048 57.6 -211.2 C57.528 -210.904 57.46 -210.612 57.384 -210.308 C57.224 -209.228 57.212 -208.632 57.6 -207.6 C58.732 -206.552 59.928 -205.712 61.2 -204.844 C63.408 -203.288 64.36 -201.744 64.848 -199.076 C64.872 -198.908 64.872 -198.908 64.976 -198.056 C65.2 -197.2 65.2 -197.2 66.4 -196.4 C67.428 -196.364 67.428 -196.364 68.624 -196.424 C72.616 -196.484 76.16 -195.324 79.088 -192.548 C80.684 -190.8 82.044 -188.868 81.96 -186.416 C82.4 -185.2 82.4 -185.2 83.216 -184.732 C84.376 -184.288 85.536 -183.908 86.724 -183.548 C87.144 -183.412 87.564 -183.276 88 -183.136 C88.828 -182.868 89.66 -182.604 90.492 -182.344 C91.784 -181.944 93.068 -181.512 94.348 -181.076 C95.032 -180.848 95.716 -180.624 96.4 -180.4 C96.932 -180.196 97.464 -179.988 98.012 -179.776 C100.72 -178.872 103.548 -178.92 106.376 -178.836 C109.36 -178.676 110.764 -178.224 112.8 -176 C114.488 -173.436 114.336 -170.164 114 -167.2 C113.312 -165.704 113.072 -165.312 111.524 -164.676 C111.152 -164.584 110.784 -164.492 110.4 -164.4 C110.74 -164.012 111.076 -163.624 111.424 -163.224 C111.884 -162.684 112.344 -162.144 112.8 -161.6 C113.032 -161.328 113.26 -161.06 113.5 -160.78 C115.904 -157.848 118.5 -154.304 118.236 -150.336 C117.472 -146.656 116.1 -142.844 113.6 -140 C111.8 -139.1 109.544 -139.32 107.6 -139.6 C106.472 -140.636 106.16 -141.056 105.6 -142.4 C105.456 -142.74 105.316 -143.08 105.168 -143.428 C104.844 -144.228 104.52 -145.028 104.2 -145.828 C101.228 -152.644 96.8 -158.72 91.6 -164 C91.224 -164.384 90.852 -164.768 90.464 -165.164 C87.952 -167.612 85.408 -169.34 82.252 -170.88 C80.8 -171.6 80.8 -171.6 79.648 -172.344 C75.956 -174.636 71.756 -174.428 67.6 -173.6 C66.224 -173.076 65.04 -172.472 63.776 -171.724 C62.32 -170.94 61.212 -170.956 59.6 -171.2 C58 -171.8 58 -171.8 56.8 -172.4 C56.944 -165.5 58.552 -158.78 62 -152.8 C62.196 -152.412 62.396 -152.024 62.6 -151.624 C68.92 -139.276 81.256 -132.492 92.904 -126.028 C104.02 -119.836 114.672 -112.516 124.304 -104.196 C125.7 -102.992 127.112 -101.824 128.548 -100.676 C132.816 -97.204 136.728 -93.3 140.624 -89.424 C140.88 -89.168 141.14 -88.916 141.404 -88.652 C143.148 -86.9 144.788 -85.076 146.4 -83.2 C146.744 -82.808 147.084 -82.42 147.44 -82.016 C150.644 -78.3 153.528 -74.376 156.4 -70.4 C156.54 -70.208 156.54 -70.208 157.252 -69.236 C159.288 -66.408 161.044 -63.408 162.8 -60.4 C163.092 -59.9 163.388 -59.4 163.688 -58.888 C170.144 -47.684 175.328 -35.416 178.568 -22.892 C178.808 -21.968 179.056 -21.052 179.308 -20.132 C182.228 -9.408 184.452 1.74 184.468 12.884 C184.468 13.3 184.472 13.716 184.472 14.144 C184.476 15.48 184.476 16.816 184.476 18.152 C184.476 18.608 184.476 19.064 184.472 19.536 C184.456 30.324 183.844 40.62 181.6 51.2 C181.524 51.58 181.444 51.964 181.364 52.356 C179.424 61.848 176.704 71.664 172.532 80.436 C172 81.604 171.52 82.788 171.048 83.98 C165.42 98.092 156.264 111.98 146.008 123.116 C145.304 123.888 144.624 124.676 143.948 125.476 C140.676 129.232 137.048 132.836 133.2 136 C132.876 136.272 132.548 136.544 132.212 136.824 C126.884 141.236 121.392 145.336 115.448 148.896 C115.076 149.12 114.704 149.344 114.32 149.576 C113.592 150.012 112.864 150.448 112.128 150.872 C108.864 152.836 106.4 155.092 105.2 158.8 C104.744 160.792 104.384 162.796 104.028 164.808 C103.104 169.64 100.904 173.328 96.924 176.252 C94.848 177.636 92.712 178.664 90.4 179.6 C89.94 179.792 89.48 179.988 89.008 180.188 C84.504 181.992 79.944 183.028 75.2 184 C74.644 184.116 74.092 184.228 73.52 184.348 C71.672 184.728 69.824 185.1 67.976 185.476 C67.828 185.504 67.828 185.504 67.072 185.656 C61.42 186.796 55.812 187.66 50.076 188.224 C49.072 188.324 48.068 188.424 47.068 188.528 C46.832 188.552 46.832 188.552 45.656 188.668 C44.656 188.772 43.66 188.896 42.664 189.024 C41.016 189.224 39.384 189.304 37.724 189.376 C35.348 189.484 32.984 189.644 30.612 189.888 C21.172 190.856 11.712 190.876 2.232 190.876 C0.872 190.876 -0.488 190.876 -1.848 190.884 C-29.356 190.992 -59.016 190.032 -85.2 180.8 C-85.516 180.688 -85.828 180.58 -86.152 180.464 C-92.712 178.104 -98.508 174.756 -101.656 168.256 C-102.096 166.9 -102.32 165.556 -102.552 164.152 C-103.048 161.428 -103.648 158.92 -104.8 156.4 C-104.932 156.1 -105.064 155.796 -105.196 155.488 C-106.904 152.324 -110.136 150.752 -113.108 148.948 C-117.164 146.46 -121.036 143.708 -124.8 140.8 C-125.252 140.456 -125.708 140.108 -126.172 139.752 C-128.944 137.62 -131.576 135.384 -134.132 132.996 C-135.02 132.168 -135.924 131.364 -136.852 130.576 C-139.872 127.952 -142.62 125.056 -145.2 122 C-145.488 121.668 -145.78 121.332 -146.08 120.988 C-152.212 113.808 -157.436 105.856 -162 97.6 C-162.1 97.42 -162.1 97.42 -162.616 96.5 C-171.772 80.004 -177.62 61.764 -180.8 43.2 C-180.872 42.792 -180.948 42.38 -181.024 41.96 C-181.244 40.644 -181.428 39.324 -181.6 38 C-181.676 37.432 -181.748 36.868 -181.828 36.284 C-183.708 20.268 -182.552 3.324 -179.2 -12.4 C-179.112 -12.816 -179.024 -13.232 -178.932 -13.66 C-175.712 -28.568 -170.512 -42.956 -163.524 -56.5 C-163.296 -56.944 -163.068 -57.384 -162.836 -57.84 C-161.36 -60.656 -159.756 -63.348 -158 -66 C-157.788 -66.32 -157.576 -66.64 -157.356 -66.972 C-151.112 -76.312 -144.028 -84.788 -136.1 -92.748 C-135.82 -93.032 -135.544 -93.312 -135.256 -93.6 C-133.664 -95.188 -132.032 -96.7 -130.328 -98.168 C-129.36 -99.008 -128.416 -99.88 -127.476 -100.748 C-125.312 -102.716 -123.084 -104.576 -120.8 -106.4 C-120.328 -106.788 -119.856 -107.172 -119.388 -107.56 C-108.352 -116.492 -95.888 -123.84 -83.564 -130.812 C-79.448 -133.148 -75.612 -135.74 -72 -138.8 C-71.636 -139.104 -71.276 -139.408 -70.9 -139.72 C-61.736 -147.688 -56.744 -159.272 -55.6 -171.2 C-55.576 -171.4 -55.576 -171.4 -55.456 -172.408 C-55.376 -173.476 -55.376 -173.476 -55.6 -175.2 C-56.876 -176.1 -56.876 -176.1 -58.4 -176.8 C-60.648 -179.048 -61.644 -181.436 -61.776 -184.6 C-61.728 -186.784 -61.032 -188.104 -60 -190 C-60.132 -190.528 -60.264 -191.056 -60.4 -191.6 C-61.196 -194.792 -61.132 -197.84 -59.6 -200.8 C-58.748 -201.832 -57.864 -202.78 -56.8 -203.6 C-56.536 -203.6 -56.272 -203.6 -56 -203.6 C-56.628 -208.572 -57.416 -213.288 -59.2 -218 C-59.352 -218.424 -59.504 -218.844 -59.66 -219.28 C-60.676 -220.816 -61.976 -221.288 -63.624 -221.948 C-69.608 -224.576 -73.196 -228.296 -75.6 -234.4 C-76.824 -239.3 -76.308 -244.668 -73.796 -249.056 C-66.188 -260.612 -51.096 -264.12 -38.4 -266.8 C-35.896 -267.284 -33.392 -267.612 -30.856 -267.872 C-29.98 -267.96 -29.108 -268.06 -28.232 -268.164 C-19.308 -269.208 -10.384 -269.32 -1.408 -269.324 Z" fill="#f4efdb" stroke="none" stroke-width="0" fill-rule="nonzero" stroke-linecap="round" stroke-linejoin="round" opacity="1"/></svg>