<?xml version="1.0" encoding="UTF-8"?>
<!-- Generated by @neplex/vectorizer (Using visioncortex VTracer) -->
<svg xmlns="http://www.w3.org/2000/svg" width="332" height="428" viewBox="2 2 332 428" preserveAspectRatio="xMidYMid meet">
<path d="M0 0 C0.68 -0 0.68 -0 4.12 -0.03 C26.86 0.05 49.28 7.73 66.01 23.68 C67.77 25.33 69.61 26.71 71.56 28.12 C80.16 34.55 86.37 40.7 91.76 50.07 C93.54 53.01 95.44 55.47 97.69 58.06 C106.8 69.01 111.75 82.4 113.25 96.38 C113.38 97.56 113.51 98.74 113.64 99.97 C114.75 110.67 115.2 121.36 115.48 132.12 C115.61 137.3 116.02 142.41 116.57 147.55 C116.69 150.35 116.34 152.76 115.81 155.5 C115.76 157.95 115.76 157.95 116.69 160.25 C119.58 162.25 122.52 163.79 125.7 165.29 C136.1 170.18 142.31 178.29 147.69 188.25 C148.2 189.19 148.71 190.13 149.23 191.1 C158.56 211.33 150.99 235.97 144.06 255.77 C139.35 269.33 137.59 280.06 139.69 294.25 C139.81 295.39 139.93 296.52 140.06 297.69 C140.9 304.51 142.58 311.14 144.19 317.81 C148.62 336.25 153.79 358.34 143.29 375.55 C132.51 390.83 115.08 399.78 97.69 405.25 C97.26 405.41 97.26 405.41 95.07 406.22 C89.23 408.19 83.86 408.3 77.75 408.12 C65.53 407.79 53.89 410.26 41.95 412.62 C17.13 417.42 -8.81 417.51 -33.96 415.37 C-37.55 415.24 -40.77 415.69 -44.31 416.25 C-60.43 417.48 -77.09 414.19 -92.6 409.96 C-95.82 409.12 -99.05 408.47 -102.31 407.81 C-121.45 403.72 -142.3 396.43 -154.31 380.19 C-157 376.02 -158.89 372.03 -160.31 367.25 C-160.59 366.33 -160.87 365.41 -161.15 364.46 C-165.3 349.07 -163.24 335.63 -159.56 320.52 C-157.85 313.47 -156.84 306.49 -156.31 299.25 C-156.25 298.5 -156.18 297.75 -156.11 296.98 C-154.36 275.07 -160.42 253.41 -165.23 232.19 C-169.24 214.26 -168.36 196.18 -158.45 180.26 C-150.67 169.12 -140.84 161.74 -127.35 158.55 C-126.68 158.45 -126.01 158.35 -125.31 158.25 C-125.47 157.08 -125.63 155.91 -125.79 154.71 C-129.77 118.49 -125.87 79.05 -102.52 49.75 C-100.2 47.12 -97.93 44.58 -95.31 42.25 C-94.65 42.25 -93.99 42.25 -93.31 42.25 C-92.65 40.93 -91.99 39.61 -91.31 38.25 C-66.76 11.56 -35.43 0.19 0 0 Z M-36.31 80.25 C-36.78 80.62 -36.78 80.62 -39.13 82.5 C-53.32 94.51 -58.08 107.57 -61.31 125.25 C-61.52 126.35 -61.72 127.45 -61.93 128.59 C-62.54 132.83 -62.41 136.97 -62.31 141.25 C-62.34 142.31 -62.37 143.37 -62.4 144.46 C-62.38 147.61 -62.25 150.24 -61.31 153.25 C-57.95 154.96 -55.89 155.58 -52.31 156.25 C-50.73 156.79 -49.17 157.38 -47.62 158 C-46.79 158.33 -45.96 158.67 -45.11 159.01 C-40.65 160.99 -36.38 163.33 -32.1 165.66 C-23.11 169.43 -14.23 169.51 -4.62 169 C-3.48 168.94 -2.33 168.88 -1.15 168.82 C1.12 168.7 3.39 168.57 5.66 168.43 C8.14 168.28 10.63 168.18 13.12 168.08 C23.82 167.31 32.75 163.13 42.34 158.66 C47.04 156.47 51.76 154.84 56.69 153.25 C58.64 151.3 57.86 147.7 57.88 145.12 C57.63 122.29 52.62 100.25 36.09 83.64 C22.27 71.51 7.76 67.66 -10.23 67.95 C-20.84 68.74 -28.22 73.65 -36.31 80.25 Z " fill="#161c17" transform="translate(175.3125,7.75)"/>
<path d="M0 0 C9.04 1.31 16.31 5.21 23.56 10.69 C31.16 15.8 39.17 16.45 48.12 16.25 C49.12 16.24 50.12 16.23 51.14 16.21 C74.75 15.84 74.75 15.84 79 13 C80.57 12.65 82.16 12.37 83.75 12.12 C88.5 11.25 91.86 9.53 96 7 C98.66 5.99 101.33 4.99 104 4 C104.85 3.46 105.69 2.93 106.56 2.38 C109.67 0.62 112.48 0.34 116 0 C116.25 2.25 116.25 2.25 116 5 C114.67 6.33 113.33 7.67 112 9 C111.5 11.62 111.5 11.62 112 14 C121.69 18.85 132.38 18.61 143 19 C144.18 19.05 145.35 19.11 146.56 19.16 C156.59 19.43 168.25 18.29 177 13 C177.94 10.31 177.94 10.31 178 8 C188.81 13.41 194.16 19.4 200 30 C200.66 30.99 201.32 31.98 202 33 C204.5 42.04 207.2 57.34 202.39 65.86 C198.95 69.4 195.62 71.32 191 73 C191.05 72.02 191.09 71.04 191.14 70.03 C191.45 58.55 191.21 45.88 183 37 C181.07 35.27 181.07 35.27 179.12 33.81 C178.49 33.32 177.85 32.84 177.2 32.33 C171.09 28.63 165.52 28.77 158.62 29.12 C157.62 29.17 156.61 29.22 155.57 29.27 C139.65 30.22 124.16 33.4 108.68 37.13 C99.34 39.31 89.88 40.53 80.37 41.74 C79.18 41.9 77.99 42.05 76.77 42.2 C75.7 42.33 74.64 42.46 73.54 42.6 C71 43 71 43 69 44 C67.1 44.04 65.21 44.01 63.31 43.95 C62.15 43.91 60.98 43.87 59.78 43.83 C59.16 43.81 59.16 43.81 56 43.69 C54.73 43.64 53.46 43.59 52.16 43.54 C25.76 42.42 25.76 42.42 13.92 38.01 C9.55 36.5 5.08 35.64 0.56 34.73 C-4.99 33.59 -10.49 32.29 -16 31 C-16 31.66 -16 32.32 -16 33 C-14.01 33.39 -12.02 33.78 -10.03 34.17 C-4.8 35.6 0.03 38.05 4.94 40.34 C12.48 43.42 20.36 44.43 28.38 45.56 C37.61 46.87 37.61 46.87 41 48 C63.33 49.55 86.74 48 107.88 40.4 C116.87 37.34 125.44 36.52 134.88 35.94 C137.29 35.78 139.7 35.63 142.12 35.46 C143.18 35.4 144.23 35.33 145.32 35.27 C148 35 148 35 151 34 C154.12 33.85 157.2 33.77 160.31 33.75 C161.15 33.73 162 33.71 162.87 33.69 C169.16 33.65 173.06 35.01 178.31 38.56 C180.85 42.23 181.62 46.57 181 51 C179.68 51.66 178.36 52.32 177 53 C175.11 51.77 175.11 51.77 173.19 49.81 C168.49 45.41 164.73 43.09 158.12 42.88 C152.74 44.34 148.84 46.95 145 51 C142.96 55.21 142.39 58.32 143 63 C144.74 66.51 146.84 69.73 149 73 C149.49 73.86 149.98 74.73 150.49 75.62 C152 78 152 78 155.31 80.94 C156.2 81.95 157.09 82.96 158 84 C157.06 88.55 154.76 92.48 152.62 96.57 C148.41 104.76 146.36 110.56 147.07 119.92 C146.95 125.25 144.03 128.8 141 133 C137.04 139.36 136.68 143.85 137.15 151.14 C137 154 137 154 134 157 C131.8 157.52 131.8 157.52 129.31 157.81 C121.29 159.28 116.75 163.53 112 170 C108.16 176.36 107.88 182.74 109 190 C109.66 190.66 110.32 191.32 111 192 C111.44 194.44 111.44 194.44 111 197 C108.88 198.62 108.88 198.62 106 200 C105.13 200.52 104.27 201.03 103.38 201.56 C100.25 202.89 97.76 203.46 94.44 204 C90.22 204.69 87.61 205.69 84 208 C81.52 208.84 79.02 209.56 76.5 210.25 C74 211 74 211 71.71 212.11 C67.91 213.36 64.66 212.98 60.69 212.69 C59.25 212.59 57.81 212.49 56.32 212.39 C52 212 52 212 48 211.32 C43.37 210.95 39.73 211.89 35.38 213.25 C27.19 215.65 19.15 216.97 10.65 217.66 C4.51 218.3 1.03 220.1 -3.93 223.71 C-8.77 226.73 -14.27 224.92 -19.51 223.72 C-20.25 223.55 -20.99 223.37 -21.75 223.19 C-22.5 223.02 -23.26 222.86 -24.04 222.69 C-28.16 221.71 -29.92 221.08 -33 218 C-32.74 213.99 -31.82 211.65 -30 208 C-29.55 200.68 -29.55 200.68 -32 197 C-32.99 196.67 -33.98 196.34 -35 196 C-35.7 193.49 -35.7 193.49 -36.25 190.31 C-37.72 183.84 -39.5 181.64 -45 178 C-45.95 177.36 -46.9 176.72 -47.88 176.06 C-53.65 174.1 -58.32 175.3 -63.75 177.56 C-67.73 180.55 -70.1 183.4 -72 188 C-72.87 194.17 -71.58 198.94 -68 204 C-64.19 208.09 -60.06 210.64 -55 213 C-51.16 215.31 -49.81 217.94 -48 222 C-55.6 223.2 -61.39 217.85 -67.25 213.69 C-76.07 205.07 -79.24 194.58 -80.32 182.39 C-79.76 174.74 -77.48 167.45 -75.49 160.06 C-73.63 152.82 -72.66 146.34 -72.98 138.86 C-73 135.92 -72.58 133.37 -71.94 130.5 C-70.12 121.6 -71.39 113.11 -74.25 104.59 C-75.43 100.53 -75.88 96.4 -76.46 92.22 C-76.96 89.22 -77.68 86.46 -78.56 83.56 C-81.83 71.94 -81.52 62.19 -77 51 C-76.64 50.08 -76.27 49.16 -75.9 48.21 C-72.95 41.58 -68.59 36.29 -62 33 C-60.29 32.86 -58.58 32.77 -56.87 32.72 C-55.84 32.68 -54.8 32.64 -53.73 32.61 C-53.19 32.59 -53.19 32.59 -50.44 32.5 C-43.24 32.26 -36.15 31.9 -29 31 C-29 30.34 -29 29.68 -29 29 C-33.7 28.9 -38.39 28.83 -43.09 28.78 C-44.68 28.76 -46.28 28.73 -47.87 28.7 C-64.6 28.34 -64.6 28.34 -71 33 C-78.4 40.71 -81.63 51.2 -84.04 61.36 C-84.36 62.23 -84.67 63.1 -85 64 C-85.99 64 -86.98 64 -88 64 C-91.42 53.74 -88.36 42.86 -85 33 C-86.32 32.67 -87.64 32.34 -89 32 C-88.92 31.34 -88.83 30.67 -88.75 29.99 C-88.64 29.11 -88.54 28.22 -88.44 27.31 C-88.33 26.44 -88.23 25.57 -88.12 24.68 C-88 22 -88 22 -88.71 19.39 C-88.76 18.99 -88.76 18.99 -89 17 C-84.43 11.46 -76.61 7.59 -70 5 C-69.01 5 -68.02 5 -67 5 C-67.67 7.67 -68.33 10.33 -69 13 C-67.63 13.65 -66.25 14.3 -64.88 14.94 C-64.11 15.3 -63.34 15.66 -62.55 16.03 C-46.04 22.32 -18.08 18.98 -2.2 12.12 C0 11 0 11 1 10 C1.32 6.04 0.87 4.75 -1 1 C-0.67 0.67 -0.34 0.34 0 0 Z " fill="#e0b772" transform="translate(115,170)"/>
<path d="M0 0 C0.99 0.99 1.98 1.98 3 3 C2.97 5.45 2.97 5.45 2.5 8.12 C2.03 10.82 2.03 10.82 2 13 C2.99 13.33 3.98 13.66 5 14 C4.51 16.18 4.02 18.36 3.54 20.54 C3.45 20.95 3.45 20.95 3 23 C2.82 23.78 2.63 24.55 2.45 25.36 C1.89 28.64 1.83 31.8 1.81 35.12 C1.81 35.73 1.81 35.73 1.77 38.82 C2 42 2 42 4 45 C4.36 43.74 4.73 42.49 5.1 41.2 C12.06 17.76 12.06 17.76 22 11 C26.14 8.94 29.57 8.75 34.16 8.77 C35.53 8.77 36.9 8.77 38.31 8.78 C39.74 8.79 41.16 8.8 42.62 8.81 C44.06 8.81 45.49 8.81 46.96 8.81 C57.58 8.86 57.58 8.86 61 10 C61 10.66 61 11.32 61 12 C52.93 14.38 44.97 14.35 36.62 14.39 C28.71 14.57 24.91 15.97 19.33 21.78 C16.81 25.27 15.29 28.55 13.75 32.56 C13.25 33.84 12.75 35.12 12.23 36.44 C8.22 48 10.78 59.11 14.09 70.59 C14.84 73.4 15.32 75.93 15.56 78.81 C15.92 82.2 16.44 84.59 17.5 87.75 C20.48 97.26 20.24 106.19 18.46 115.9 C18.03 118.78 17.99 121.29 18.12 124.19 C18.36 134.93 14.73 146.29 11.52 156.45 C9.52 166.35 12.11 177.37 16.66 186.23 C21.93 194.07 28.86 199.85 38.19 201.94 C39.12 201.96 40.04 201.98 41 202 C38.15 196.29 34.04 194.06 28.5 191.19 C23.16 187.85 18.54 183.31 17 177 C16.15 170.61 17.52 167.01 21.23 161.98 C25.36 157.34 30.41 155.18 36.59 154.7 C43.09 155.51 48.73 160.29 53 165 C54.46 168.37 55.01 170.63 54.88 174.31 C54.92 175.2 54.96 176.09 55 177 C56.32 177.33 57.64 177.66 59 178 C61.64 181.95 61.35 184.31 61 189 C60.02 191.01 59.02 193.01 58 195 C58.06 197.75 58.06 197.75 59 200 C62.75 201.87 65.75 202.75 69.81 203.62 C70.99 203.89 72.18 204.15 73.39 204.41 C82.55 205.9 82.55 205.9 86.08 203.71 C86.81 203.18 87.54 202.65 88.29 202.1 C93.22 198.54 97.41 197.92 103.38 197.44 C110.81 196.66 117.62 195.4 124.75 193.19 C132.95 190.74 139.64 191.02 148.05 192.39 C154.05 193.32 158.81 193.42 164.5 191.19 C165.44 190.82 166.38 190.46 167.36 190.08 C170.59 188.76 173.79 187.38 177 186 C180.47 184.72 183.73 183.85 187.38 183.12 C192.13 182.08 195.88 180.62 200 178 C200.62 175.38 200.62 175.38 200 173 C199.34 172.34 198.68 171.68 198 171 C196.64 162.16 197.73 155.58 202.99 148.35 C207.76 142.77 212.57 138.42 220.12 137.5 C224 137 224 137 226 135 C225.94 133.1 225.8 131.2 225.62 129.31 C225.41 119.48 230.71 111.94 236 104 C235.86 102.08 235.66 100.16 235.44 98.25 C235.19 89.34 239.12 82.53 243.26 74.82 C243.77 73.87 244.27 72.91 244.79 71.93 C245.26 71.08 245.73 70.22 246.22 69.34 C246.48 68.57 246.73 67.8 247 67 C245 63 245 63 242.12 60.25 C238.63 56.89 237.02 53.39 235 49 C234.42 48.15 233.85 47.31 233.25 46.44 C231.06 42.16 231.54 38.49 232.94 34 C236.79 28.39 241.52 24.72 248.06 22.81 C254.76 23.13 259 25.98 263.81 30.31 C264.34 30.76 264.34 30.76 267 33 C267.5 32.84 267.5 32.84 270 32 C270.47 28.56 269.94 25.33 269 22 C266.07 18.88 264.04 17.35 260 16 C256.82 15.9 253.68 15.86 250.5 15.88 C249.63 15.87 248.76 15.87 247.87 15.86 C244.35 15.87 241.36 15.88 238 17 C236.16 17.16 234.31 17.27 232.47 17.36 C217.65 18.17 203.93 19.63 189.9 24.77 C183.7 27.01 177.61 27.96 171.06 28.69 C169.94 28.81 168.82 28.94 167.66 29.07 C151.96 30.67 135.42 31.87 120.03 27.79 C116.76 26.94 113.54 26.45 110.19 26 C100.89 24.61 92.99 21.22 84.43 17.4 C81 16 81 16 77.07 14.94 C76.06 14.63 75.04 14.32 74 14 C74 13.34 74 12.68 74 12 C80.01 12.49 85.45 13.57 91.24 15.25 C93.86 15.96 96.45 16.51 99.12 17 C102.33 17.6 104.91 18.34 108 19.5 C119.72 23.51 133.24 23.22 145.5 23.75 C146.68 23.81 147.86 23.86 149.08 23.92 C155.13 24.14 160.58 23.94 166.48 22.57 C169.29 21.94 172.08 21.51 174.93 21.11 C185.36 19.61 195.65 18.01 205.88 15.44 C219.86 11.95 233.79 9.94 248.19 9.06 C249.13 8.99 250.08 8.92 251.05 8.85 C259.38 8.46 266.11 10.74 272.38 16.38 C279.52 23.1 281.75 32.52 282.19 42.11 C282.19 45.75 282.13 49.37 282 53 C285.82 50.48 289.47 47.91 293 45 C292.17 58.88 287.18 71.64 281 84 C278.1 106.44 280.61 127.65 287.14 149.16 C291.01 161.97 292.33 175.26 287.27 187.97 C285.82 190.29 284.27 191.51 282 193 C282.33 191.35 282.66 189.7 283 188 C278.98 190.94 276.4 193.74 273.69 197.94 C266.68 208.29 255.47 212.23 243.62 214.62 C236.27 215.92 228.91 216.71 221.48 217.35 C215.19 217.91 215.19 217.91 213 219 C209.15 219.2 205.3 219.35 201.45 219.43 C196.37 219.62 192.07 220.38 187.3 222.17 C181.18 224.38 175.66 225.29 169.17 225.27 C168.74 225.28 168.74 225.28 166.57 225.29 C163.75 225.3 160.94 225.3 158.12 225.3 C156.15 225.3 154.17 225.31 152.2 225.31 C148.06 225.32 143.93 225.32 139.79 225.32 C134.52 225.31 129.26 225.33 123.99 225.35 C119.91 225.36 115.83 225.37 111.75 225.36 C109.81 225.36 107.87 225.37 105.93 225.38 C94.86 225.43 84.79 224.84 74 222 C71.63 221.52 69.26 221.04 66.89 220.57 C28.58 212.92 28.58 212.92 18 202 C16.04 200.61 14.06 199.24 12 198 C12 198.99 12 199.98 12 201 C4.74 197.37 -0.04 189.3 -2.83 181.76 C-3.46 179.16 -3.76 176.67 -4 174 C-4.12 172.83 -4.23 171.66 -4.36 170.46 C-4.95 158.59 -2.35 147.85 0.42 136.35 C2.71 126.75 4.03 117.89 4 108 C4.02 107.53 4.02 107.53 4.14 105.14 C4.64 92.69 1.17 80.41 -1.88 68.44 C-13.3 23.4 -13.3 23.4 -3.69 5.83 C-2.51 3.85 -1.28 1.91 0 0 Z " fill="#c3995a" transform="translate(25,189)"/>
<path d="M0 0 C1.52 0.3 3.04 0.57 4.56 0.81 C15.6 2.96 28.36 7.24 35 16.88 C37.25 20.88 37.76 24.44 38 29 C38.66 29 39.32 29 40 29 C39.95 28.29 39.91 27.58 39.86 26.85 C39.82 25.93 39.79 25.01 39.75 24.06 C39.7 23.15 39.66 22.23 39.61 21.29 C39.74 20.53 39.87 19.78 40 19 C40.66 18.84 40.66 18.84 44 18 C52.99 24.25 59.69 33.2 66 42 C66.65 42.89 67.3 43.78 67.96 44.7 C71.47 49.59 74.62 54.63 77.66 59.83 C79 62 79 62 81.12 64.56 C85.81 70.65 87.55 76.39 87 84 C86.34 84 85.68 84 85 84 C83.25 80.88 81.66 77.72 80.1 74.51 C78.03 70.42 77.24 69.12 73 67 C74.04 71.15 75.53 74.71 77.25 78.62 C77.56 79.34 77.88 80.05 78.2 80.78 C80.29 85.51 82.51 90.14 84.96 94.69 C93.52 113.64 90.22 138.65 90 159 C89.01 159 88.02 159 87 159 C87.33 156.36 87.66 153.72 88 151 C84.98 152.51 84.42 155.14 83.1 158.09 C82 160 82 160 79 162 C76.72 162.26 76.72 162.26 74.07 162.27 C73.11 162.27 72.15 162.27 71.16 162.27 C70.16 162.27 69.16 162.26 68.12 162.25 C67.13 162.26 66.14 162.27 65.11 162.27 C64.15 162.27 63.19 162.27 62.2 162.27 C61.76 162.26 61.76 162.26 59.54 162.26 C54.48 161.74 54.48 161.74 52 160 C51.42 156.74 51.19 153.96 51.14 150.67 C51.13 150.2 51.13 150.2 51.05 147.82 C50.94 144.8 50.88 141.77 50.81 138.75 C50.71 134.81 50.58 130.86 50.46 126.92 C50.43 125.97 50.4 125.02 50.37 124.04 C49.96 112.72 48.83 102.32 44 92 C43.47 90.8 42.94 89.6 42.39 88.37 C37.39 77.26 32.66 68.54 23 61 C22.2 60.34 21.4 59.68 20.57 59 C5.37 47.09 -9.75 45.24 -28.38 46.75 C-28.84 46.79 -28.84 46.79 -31.19 46.97 C-44.7 48.28 -54.96 54.72 -63.57 65.17 C-64.82 66.77 -66.07 68.39 -67.31 70 C-67.87 70.66 -68.43 71.32 -69 72 C-69.66 72 -70.32 72 -71 72 C-70.53 67.34 -70 63.26 -68 59 C-68.99 59 -69.98 59 -71 59 C-72 61.31 -72 61.31 -73 65 C-73.24 65.84 -73.47 66.67 -73.72 67.53 C-74.9 71.74 -75.98 75.89 -76.81 80.19 C-78.05 86.05 -80.39 91.57 -82.56 97.13 C-85.2 104.24 -86.28 110.18 -86.27 117.7 C-86.29 119.56 -86.31 121.43 -86.34 123.3 C-86.36 126.22 -86.38 129.14 -86.38 132.06 C-86.39 134.9 -86.42 137.73 -86.46 140.57 C-86.46 141.44 -86.45 142.31 -86.45 143.21 C-86.51 147.13 -86.76 149.63 -88.87 152.98 C-97.34 161.02 -106.82 162.21 -117.98 162.09 C-129.26 161.74 -129.26 161.74 -132 159 C-132.26 155.78 -132.4 152.64 -132.45 149.42 C-132.47 148.45 -132.49 147.49 -132.52 146.49 C-132.56 144.44 -132.6 142.39 -132.63 140.34 C-132.69 137.24 -132.76 134.14 -132.83 131.04 C-133.37 105.59 -133.37 105.59 -130 94 C-129.83 92.09 -129.68 90.17 -129.56 88.25 C-128.47 74.47 -122.66 63.87 -116 52 C-115.42 50.94 -114.84 49.88 -114.25 48.79 C-106.27 35.16 -94.18 26.13 -81 18 C-79.92 17.29 -78.84 16.58 -77.72 15.85 C-65.95 8.26 -54.3 2.56 -40.21 1.39 C-37.09 1.01 -34.87 0.19 -32 -1 C-21.67 -2.63 -9.9 -3.58 0 0 Z " fill="#9e8d76" transform="translate(191,20)"/>
<path d="M0 0 C0.99 0.99 1.98 1.98 3 3 C2.97 5.45 2.97 5.45 2.5 8.12 C2.03 10.82 2.03 10.82 2 13 C2.99 13.33 3.98 13.66 5 14 C4.51 16.18 4.02 18.36 3.54 20.54 C3.45 20.95 3.45 20.95 3 23 C2.82 23.78 2.63 24.55 2.45 25.36 C1.89 28.64 1.83 31.8 1.81 35.12 C1.81 35.73 1.81 35.73 1.77 38.82 C2 42 2 42 4 45 C4.36 43.74 4.73 42.49 5.1 41.2 C12.06 17.76 12.06 17.76 22 11 C26.14 8.94 29.57 8.75 34.16 8.77 C35.53 8.77 36.9 8.77 38.31 8.78 C39.74 8.79 41.16 8.8 42.62 8.81 C44.06 8.81 45.49 8.81 46.96 8.81 C57.58 8.86 57.58 8.86 61 10 C61 10.66 61 11.32 61 12 C52.93 14.38 44.97 14.35 36.62 14.39 C28.71 14.57 24.91 15.97 19.33 21.78 C16.81 25.27 15.29 28.55 13.75 32.56 C13.25 33.84 12.75 35.12 12.23 36.44 C8.22 48 10.78 59.11 14.09 70.59 C14.84 73.4 15.32 75.93 15.56 78.81 C15.92 82.2 16.44 84.59 17.5 87.75 C20.48 97.26 20.24 106.19 18.46 115.9 C18.03 118.78 17.99 121.29 18.12 124.19 C18.36 134.93 14.73 146.29 11.52 156.45 C9.52 166.35 12.11 177.37 16.66 186.23 C22.13 194.37 29.74 199.8 39 203 C41.95 203.54 44.9 203.94 47.87 204.34 C51 205 51 205 54.32 206.46 C58.53 208.22 62.58 209.02 67.06 209.62 C67.97 209.75 68.88 209.88 69.82 210.01 C81.48 211.43 93.25 211.52 104.99 211.71 C105.79 211.72 106.6 211.74 107.43 211.75 C109.64 211.79 111.85 211.81 114.07 211.84 C124.25 212.25 124.25 212.25 126 214 C128.08 214.13 130.17 214.18 132.25 214.19 C132.82 214.19 132.82 214.19 135.7 214.23 C139.02 214 140.96 213.26 144 212 C147.08 211.33 150.15 210.7 153.25 210.12 C154.88 209.82 156.51 209.51 158.14 209.2 C159.04 209.02 159.95 208.85 160.88 208.67 C163.19 208.17 165.48 207.6 167.76 206.99 C179 204.02 189.41 203.49 201 203.69 C202.74 203.7 204.49 203.71 206.23 203.72 C218.82 203.82 218.82 203.82 220 205 C225.39 205.38 229.33 204.81 234.46 202.91 C237.38 201.86 240.33 201.04 243.31 200.19 C255.33 196.45 264.66 191.82 271.34 180.79 C276.35 171.22 275.37 162.21 273.25 152.06 C273.16 151.62 273.16 151.62 272.71 149.38 C271.78 145.01 270.77 140.91 268.94 136.81 C264.14 125.86 263.72 113.84 263.62 102.06 C263.61 101.02 263.6 99.98 263.58 98.91 C263.63 91.08 265.15 84.53 268.09 77.31 C269.29 74.27 269.86 71.21 270.5 68 C271.34 63.77 272.33 59.97 274 56 C276.07 45.84 275.98 34.68 272 25 C268.83 20.51 265.31 17.54 260 16 C256.79 15.74 253.6 15.77 250.38 15.81 C249.52 15.81 248.66 15.81 247.77 15.81 C244.29 15.84 241.33 15.89 238 17 C236.16 17.16 234.31 17.27 232.47 17.36 C217.65 18.17 203.93 19.63 189.9 24.77 C183.7 27.01 177.61 27.96 171.06 28.69 C169.94 28.81 168.82 28.94 167.66 29.07 C151.96 30.67 135.42 31.87 120.03 27.79 C116.76 26.94 113.54 26.45 110.19 26 C100.89 24.61 92.99 21.22 84.43 17.4 C81 16 81 16 77.07 14.94 C76.06 14.63 75.04 14.32 74 14 C74 13.34 74 12.68 74 12 C80.01 12.49 85.45 13.57 91.24 15.25 C93.86 15.96 96.45 16.51 99.12 17 C102.33 17.6 104.91 18.34 108 19.5 C119.72 23.51 133.24 23.22 145.5 23.75 C146.68 23.81 147.86 23.86 149.08 23.92 C155.13 24.14 160.58 23.94 166.48 22.57 C169.29 21.94 172.08 21.51 174.93 21.11 C185.36 19.61 195.65 18.01 205.88 15.44 C219.86 11.95 233.79 9.94 248.19 9.06 C249.13 8.99 250.08 8.92 251.05 8.85 C259.38 8.46 266.11 10.74 272.38 16.38 C279.52 23.1 281.75 32.52 282.19 42.11 C282.19 45.75 282.13 49.37 282 53 C285.82 50.48 289.47 47.91 293 45 C292.17 58.88 287.18 71.64 281 84 C278.1 106.44 280.61 127.65 287.14 149.16 C291.01 161.97 292.33 175.26 287.27 187.97 C285.82 190.29 284.27 191.51 282 193 C282.33 191.35 282.66 189.7 283 188 C278.98 190.94 276.4 193.74 273.69 197.94 C266.68 208.29 255.47 212.23 243.62 214.62 C236.27 215.92 228.91 216.71 221.48 217.35 C215.19 217.91 215.19 217.91 213 219 C209.15 219.2 205.3 219.35 201.45 219.43 C196.37 219.62 192.07 220.38 187.3 222.17 C181.18 224.38 175.66 225.29 169.17 225.27 C168.74 225.28 168.74 225.28 166.57 225.29 C163.75 225.3 160.94 225.3 158.12 225.3 C156.15 225.3 154.17 225.31 152.2 225.31 C148.06 225.32 143.93 225.32 139.79 225.32 C134.52 225.31 129.26 225.33 123.99 225.35 C119.91 225.36 115.83 225.37 111.75 225.36 C109.81 225.36 107.87 225.37 105.93 225.38 C94.86 225.43 84.79 224.84 74 222 C71.63 221.52 69.26 221.04 66.89 220.57 C28.58 212.92 28.58 212.92 18 202 C16.04 200.61 14.06 199.24 12 198 C12 198.99 12 199.98 12 201 C4.74 197.37 -0.04 189.3 -2.83 181.76 C-3.46 179.16 -3.76 176.67 -4 174 C-4.12 172.83 -4.23 171.66 -4.36 170.46 C-4.95 158.59 -2.35 147.85 0.42 136.35 C2.71 126.75 4.03 117.89 4 108 C4.02 107.53 4.02 107.53 4.14 105.14 C4.64 92.69 1.17 80.41 -1.88 68.44 C-13.3 23.4 -13.3 23.4 -3.69 5.83 C-2.51 3.85 -1.28 1.91 0 0 Z " fill="#976e3f" transform="translate(25,189)"/>
<path d="M0 0 C3.23 1.82 5.23 3.43 7.49 6.4 C8.14 7.22 8.78 8.04 9.45 8.88 C14.29 15.21 17.87 20.69 18.93 28.71 C19.49 31.4 19.49 31.4 21.55 32.84 C23.49 34.4 23.49 34.4 23.99 37.34 C23.42 41.99 22.08 45.99 20.5 50.39 C19.6 53.07 18.96 55.64 18.43 58.4 C17.54 62.18 16.8 63.5 14.49 66.4 C12.13 76.21 14.48 87.09 18.53 96.16 C20.15 99.92 20.95 103.33 21.49 107.4 C19.99 111.17 17.53 113.74 14.49 116.4 C11.61 117.36 9.61 117.57 6.6 117.65 C5.64 117.68 4.69 117.71 3.7 117.75 C1.7 117.81 -0.3 117.87 -2.31 117.92 C-7.49 118.1 -11.59 118.69 -16.51 120.4 C-25.88 121.04 -36.5 121.37 -45.51 118.4 C-47.76 116.03 -47.76 116.03 -49.51 113.4 C-52.1 111.85 -54.76 110.67 -57.51 109.4 C-58.51 108.4 -58.51 108.4 -58.7 104.81 C-58.51 100.41 -57.75 97.07 -56.38 92.9 C-56.16 92.21 -56.16 92.21 -55.02 88.72 C-54.02 85.81 -52.96 82.93 -51.84 80.05 C-51.57 79.35 -51.29 78.64 -51.01 77.91 C-50.24 75.94 -49.44 73.98 -48.64 72.02 C-47.43 68.17 -47.02 65.41 -47.51 61.4 C-49.12 59.1 -49.12 59.1 -51.26 57.09 C-58.2 49.91 -60.91 40.87 -60.79 30.94 C-59.54 19.76 -53.04 10.37 -44.51 3.4 C-31.23 -5.96 -14.7 -6.75 0 0 Z " fill="#e0b772" transform="translate(187.5078125,246.59765625)"/>
<path d="M0 0 C9.04 1.31 16.31 5.21 23.56 10.69 C31.16 15.8 39.17 16.45 48.12 16.25 C49.12 16.24 50.12 16.23 51.14 16.21 C74.75 15.84 74.75 15.84 79 13 C80.57 12.65 82.16 12.37 83.75 12.12 C88.5 11.25 91.86 9.53 96 7 C98.66 5.99 101.33 4.99 104 4 C104.85 3.46 105.69 2.93 106.56 2.38 C109.67 0.62 112.48 0.34 116 0 C116.25 2.25 116.25 2.25 116 5 C114.67 6.33 113.33 7.67 112 9 C111.5 11.62 111.5 11.62 112 14 C121.69 18.85 132.38 18.61 143 19 C144.18 19.05 145.35 19.11 146.56 19.16 C156.59 19.43 168.25 18.29 177 13 C177.94 10.31 177.94 10.31 178 8 C188.81 13.41 194.16 19.4 200 30 C200.66 30.99 201.32 31.98 202 33 C204.5 42.04 207.2 57.34 202.39 65.86 C198.95 69.4 195.62 71.32 191 73 C191.05 72.02 191.09 71.04 191.14 70.03 C191.45 58.55 191.21 45.88 183 37 C181.07 35.27 181.07 35.27 179.12 33.81 C178.49 33.32 177.85 32.84 177.2 32.33 C171.09 28.63 165.52 28.77 158.62 29.12 C157.62 29.17 156.61 29.22 155.57 29.27 C139.65 30.22 124.16 33.4 108.68 37.13 C99.34 39.31 89.88 40.53 80.37 41.74 C79.18 41.9 77.99 42.05 76.77 42.2 C75.7 42.33 74.64 42.46 73.54 42.6 C71 43 71 43 69 44 C67.1 44.04 65.21 44.01 63.31 43.95 C62.15 43.91 60.98 43.87 59.78 43.83 C59.16 43.81 59.16 43.81 56 43.69 C54.73 43.64 53.46 43.59 52.16 43.54 C25.71 42.41 25.71 42.41 13.94 38.01 C9.43 36.46 4.8 35.6 0.13 34.66 C-3 34 -3 34 -6.88 32.81 C-11.17 31.7 -15.92 30.96 -20 33 C-23.56 33.31 -23.56 33.31 -27 33 C-27.16 32.34 -27.16 32.34 -28 29 C-31.2 28.48 -31.2 28.48 -35.47 28.47 C-36.23 28.46 -36.99 28.46 -37.76 28.46 C-39.37 28.45 -40.98 28.46 -42.59 28.48 C-45.03 28.5 -47.47 28.48 -49.9 28.45 C-51.47 28.46 -53.03 28.46 -54.6 28.47 C-56.02 28.47 -57.43 28.48 -58.89 28.48 C-64.7 29.21 -69.18 31.1 -73.31 35.41 C-78.64 43.58 -81.8 51.89 -84.04 61.36 C-84.36 62.23 -84.67 63.1 -85 64 C-85.99 64 -86.98 64 -88 64 C-91.42 53.74 -88.36 42.86 -85 33 C-86.32 32.67 -87.64 32.34 -89 32 C-88.92 31.34 -88.83 30.67 -88.75 29.99 C-88.64 29.11 -88.54 28.22 -88.44 27.31 C-88.33 26.44 -88.23 25.57 -88.12 24.68 C-88 22 -88 22 -88.71 19.39 C-88.76 18.99 -88.76 18.99 -89 17 C-84.43 11.46 -76.61 7.59 -70 5 C-69.01 5 -68.02 5 -67 5 C-67.67 7.67 -68.33 10.33 -69 13 C-67.63 13.65 -66.25 14.3 -64.88 14.94 C-64.11 15.3 -63.34 15.66 -62.55 16.03 C-46.04 22.32 -18.08 18.98 -2.2 12.12 C0 11 0 11 1 10 C1.32 6.04 0.87 4.75 -1 1 C-0.67 0.67 -0.34 0.34 0 0 Z " fill="#f2d199" transform="translate(115,170)"/>
<path d="M0 0 C5.28 3.48 9.3 7.77 11 14 C11.82 21.41 11.66 28.36 8 35 C5.92 36.78 3.84 38.38 1.55 39.87 C0 42 0 42 0.09 46.18 C0.83 50.87 2.21 55.23 3.81 59.69 C4.35 61.26 4.89 62.83 5.43 64.4 C5.69 65.17 5.96 65.94 6.23 66.74 C7.37 70.08 8.42 73.44 9.44 76.81 C9.77 77.89 10.09 78.97 10.43 80.08 C11.04 83.22 11.06 84.99 10 88 C7.97 88.66 7.97 88.66 5.29 88.71 C4.32 88.74 3.35 88.77 2.34 88.8 C1.3 88.8 0.26 88.81 -0.81 88.81 C-1.87 88.84 -2.92 88.86 -4 88.88 C-7 88.95 -10 88.98 -13 89 C-14.26 89.03 -15.51 89.05 -16.81 89.08 C-23.21 89.18 -29.66 88.96 -36 88 C-37 87 -37 87 -37.05 85.06 C-36.45 76.25 -33.78 68.33 -31 60 C-30.16 57.37 -29.34 54.75 -28.59 52.1 C-28.05 50.17 -27.4 48.27 -26.75 46.38 C-27 43 -27 43 -28.84 41 C-30.47 39.61 -32.11 38.24 -33.76 36.88 C-37.62 33.64 -38.8 31 -39.3 26.02 C-39.66 16.92 -37.95 12.14 -32.69 4.75 C-23.85 -4.29 -11.1 -5.55 0 0 Z " fill="#161c17" transform="translate(180,259)"/>
<path d="M0 0 C9.04 1.31 16.31 5.21 23.56 10.69 C31.16 15.8 39.17 16.45 48.12 16.25 C49.12 16.24 50.12 16.23 51.14 16.21 C74.75 15.84 74.75 15.84 79 13 C80.57 12.65 82.16 12.37 83.75 12.12 C88.5 11.25 91.86 9.53 96 7 C98.66 5.99 101.33 4.99 104 4 C104.85 3.46 105.69 2.93 106.56 2.38 C109.67 0.62 112.48 0.34 116 0 C116.25 2.25 116.25 2.25 116 5 C114.67 6.33 113.33 7.67 112 9 C111.5 11.62 111.5 11.62 112 14 C121.71 18.85 132.37 18.56 143 19 C143 19.33 143 19.66 143 20 C138.05 20 133.1 20 128 20 C128 20.66 128 21.32 128 22 C128.99 22.33 129.98 22.66 131 23 C131 23.66 131 24.32 131 25 C129.09 25.71 129.09 25.71 126.43 26.37 C125.45 26.61 124.48 26.86 123.48 27.11 C122.44 27.36 121.39 27.61 120.31 27.88 C113.86 29.48 107.48 31.09 101.19 33.25 C94.54 35.39 87.8 35.98 80.87 36.61 C77 37 77 37 73 38 C71.1 38.09 69.19 38.13 67.28 38.13 C66.18 38.13 65.09 38.14 63.96 38.14 C62.82 38.13 61.68 38.13 60.5 38.12 C59.36 38.13 58.22 38.13 57.04 38.14 C56.49 38.14 56.49 38.14 53.72 38.13 C52.72 38.13 51.72 38.13 50.69 38.13 C48 38 48 38 44 37 C42.19 36.85 40.38 36.73 38.56 36.64 C17.1 35.4 17.1 35.4 7 30 C-3.45 25.37 -13.04 22.88 -24.41 21.56 C-27.81 21.03 -30.8 20.26 -34 19 C-34 18.67 -34 18.34 -34 18 C-33.32 17.96 -33.32 17.96 -29.86 17.74 C-4.91 15.91 -4.91 15.91 1 10 C1.32 6.04 0.87 4.75 -1 1 C-0.67 0.67 -0.34 0.34 0 0 Z " fill="#c3995a" transform="translate(115,170)"/>
<path d="M0 0 C9.25 4.76 16.81 9.92 23.59 17.93 C23.95 18.31 23.95 18.31 25.72 20.22 C32.54 27.95 38.96 38.94 39.09 49.49 C38.19 57.48 38.19 57.48 37.59 60.93 C35.34 57.55 33.58 54 31.78 50.37 C31.42 49.65 31.06 48.93 30.68 48.19 C29.16 45.15 27.68 42.13 26.34 39 C23.1 31.53 17.87 26.98 11.59 21.93 C10.8 21.28 10 20.63 9.18 19.96 C-5.62 8.71 -20.91 7.23 -38.78 8.68 C-39.71 8.75 -40.64 8.83 -41.59 8.9 C-55.11 10.21 -65.36 16.65 -73.98 27.1 C-75.23 28.7 -76.48 30.32 -77.72 31.93 C-78.28 32.59 -78.83 33.25 -79.41 33.93 C-80.07 33.93 -80.73 33.93 -81.41 33.93 C-80.93 29.27 -80.41 25.19 -78.41 20.93 C-79.4 20.93 -80.39 20.93 -81.41 20.93 C-82.41 23.24 -82.41 23.24 -83.41 26.93 C-83.64 27.77 -83.88 28.6 -84.12 29.46 C-85.31 33.67 -86.39 37.82 -87.22 42.12 C-88.46 47.98 -90.8 53.5 -92.97 59.06 C-95.61 66.17 -96.69 72.11 -96.68 79.62 C-96.7 81.49 -96.72 83.36 -96.74 85.23 C-96.76 88.15 -96.78 91.07 -96.79 93.99 C-96.8 96.83 -96.83 99.66 -96.87 102.5 C-96.86 103.37 -96.86 104.24 -96.85 105.14 C-96.92 109.06 -97.17 111.55 -99.28 114.91 C-107.74 122.95 -117.22 124.14 -128.39 124.02 C-139.66 123.67 -139.66 123.67 -142.41 120.93 C-142.49 118.26 -142.49 115.59 -142.41 112.93 C-142.09 113.25 -142.09 113.25 -140.47 114.87 C-136.49 117.55 -133.18 118.27 -128.41 117.93 C-119.46 113.72 -114.74 104.95 -111.31 96.09 C-108.71 88.55 -108.01 81.59 -107.67 73.65 C-107.32 68.71 -106.2 64.53 -104.41 59.93 C-104.06 59.02 -103.7 58.12 -103.34 57.18 C-100.51 50.17 -97.34 43.31 -94.09 36.48 C-93.07 34.34 -92.09 32.18 -91.16 30 C-88.61 24.19 -85.78 21.32 -80.59 17.71 C-78.22 15.78 -77.05 14 -75.53 11.37 C-72.09 5.77 -67.26 3.57 -61.41 0.93 C-61.08 0.76 -61.08 0.76 -59.43 -0.08 C-53.48 -3.01 -48.1 -3.84 -41.53 -4.26 C-39.68 -4.39 -37.83 -4.53 -35.98 -4.68 C-35.17 -4.73 -34.36 -4.78 -33.53 -4.84 C-21.7 -6.14 -11.05 -5.38 0 0 Z " fill="#715f4c" transform="translate(201.40625,58.0703125)"/>
<path d="M0 0 C0.99 0.99 1.98 1.98 3 3 C2.97 5.45 2.97 5.45 2.5 8.12 C2.03 10.82 2.03 10.82 2 13 C2.99 13.33 3.98 13.66 5 14 C4.51 16.18 4.02 18.36 3.54 20.54 C3.45 20.95 3.45 20.95 3 23 C2.82 23.78 2.63 24.55 2.45 25.36 C1.89 28.64 1.83 31.8 1.81 35.12 C1.81 35.73 1.81 35.73 1.77 38.82 C2 42 2 42 4 45 C4.36 43.74 4.73 42.49 5.1 41.2 C12.06 17.76 12.06 17.76 22 11 C26.14 8.94 29.57 8.75 34.16 8.77 C35.53 8.77 36.9 8.77 38.31 8.78 C39.74 8.79 41.16 8.8 42.62 8.81 C44.06 8.81 45.49 8.81 46.96 8.81 C57.58 8.86 57.58 8.86 61 10 C61 10.66 61 11.32 61 12 C52.93 14.38 44.97 14.35 36.62 14.39 C28.71 14.57 24.91 15.97 19.33 21.78 C16.81 25.27 15.29 28.55 13.75 32.56 C13.25 33.84 12.75 35.12 12.23 36.44 C8.22 48 10.78 59.11 14.09 70.59 C14.84 73.4 15.32 75.93 15.56 78.81 C15.92 82.2 16.44 84.59 17.5 87.75 C20.62 97.69 21.09 108.98 18 119 C17.51 119.16 17.51 119.16 15 120 C14.23 122.82 14.23 122.82 13.62 126.69 C12.63 132.63 11.45 138.43 10.01 144.28 C6.03 160.58 5.85 173.12 12.62 188.75 C15.6 192.81 19.14 195.74 23.05 198.89 C23.69 199.58 24.34 200.28 25 201 C24.67 202.32 24.34 203.64 24 205 C19.45 203.86 17.49 202.04 14 199 C13.34 198.67 12.68 198.34 12 198 C12 198.99 12 199.98 12 201 C4.74 197.37 -0.04 189.3 -2.83 181.76 C-3.46 179.16 -3.76 176.67 -4 174 C-4.12 172.83 -4.23 171.66 -4.36 170.46 C-4.95 158.59 -2.35 147.85 0.42 136.35 C2.71 126.75 4.03 117.89 4 108 C4.02 107.53 4.02 107.53 4.14 105.14 C4.64 92.69 1.17 80.41 -1.88 68.44 C-13.3 23.4 -13.3 23.4 -3.69 5.83 C-2.51 3.85 -1.28 1.91 0 0 Z " fill="#b48a50" transform="translate(25,189)"/>
<path d="M0 0 C5.91 6.06 7.55 15.85 7.98 24.04 C7.9 29.29 6.74 34.17 5.45 39.24 C5.23 40.12 5.02 41 4.8 41.9 C2.65 50.61 0.24 59.07 -3.38 67.29 C-9.55 85.24 -3.52 108.07 3.76 124.8 C6.41 137.41 8.93 154.26 1.94 165.81 C-2.65 172.33 -7.22 177.04 -14.24 180.8 C-14.92 181.19 -15.6 181.58 -16.3 181.98 C-23.88 186.06 -30.81 187.07 -39.24 186.8 C-39.24 186.14 -39.24 185.48 -39.24 184.8 C-37.02 183.97 -34.76 183.24 -32.49 182.55 C-19.05 178.2 -8.59 173.46 -1.8 160.49 C2.01 151.48 0.95 143.15 -0.99 133.87 C-1.08 133.42 -1.08 133.42 -1.54 131.18 C-2.46 126.81 -3.47 122.72 -5.3 118.62 C-10.1 107.66 -10.52 95.65 -10.62 83.87 C-10.63 82.83 -10.64 81.78 -10.66 80.71 C-10.61 72.89 -9.09 66.34 -6.15 59.12 C-4.95 56.07 -4.38 53.01 -3.74 49.8 C-2.9 45.57 -1.91 41.78 -0.24 37.8 C1.83 27.65 1.74 16.48 -2.24 6.8 C-5.41 2.32 -8.93 -0.66 -14.24 -2.2 C-17.46 -2.45 -20.65 -2.43 -23.87 -2.38 C-24.73 -2.38 -25.58 -2.38 -26.47 -2.38 C-29.95 -2.36 -32.92 -2.3 -36.24 -1.2 C-38.08 -1.04 -39.93 -0.92 -41.77 -0.84 C-56.59 -0.02 -70.32 1.43 -84.34 6.57 C-90.55 8.81 -96.64 9.77 -103.18 10.49 C-104.3 10.62 -105.43 10.74 -106.58 10.87 C-122.28 12.47 -138.82 13.67 -154.21 9.59 C-157.48 8.74 -160.7 8.26 -164.05 7.8 C-173.35 6.42 -181.25 3.02 -189.81 -0.79 C-193.24 -2.2 -193.24 -2.2 -197.17 -3.25 C-198.19 -3.56 -199.2 -3.88 -200.24 -4.2 C-200.24 -4.86 -200.24 -5.52 -200.24 -6.2 C-194.23 -5.7 -188.8 -4.62 -183 -2.95 C-180.38 -2.23 -177.79 -1.69 -175.12 -1.2 C-171.92 -0.6 -169.34 0.14 -166.24 1.3 C-154.52 5.31 -141 5.03 -128.74 5.55 C-127.56 5.61 -126.38 5.67 -125.16 5.73 C-119.11 5.95 -113.66 5.75 -107.76 4.37 C-104.96 3.74 -102.16 3.31 -99.32 2.91 C-88.89 1.41 -78.59 -0.18 -68.37 -2.76 C-17.05 -15.62 -17.05 -15.62 0 0 Z " fill="#161c17" transform="translate(299.2421875,207.1953125)"/>
<path d="M0 0 C3.23 1.82 5.23 3.43 7.49 6.4 C8.14 7.22 8.78 8.04 9.45 8.88 C16.54 18.14 19.67 25.39 18.13 37.18 C16.12 47.59 10.12 56.17 2.49 63.4 C2.16 63.07 2.16 63.07 0.49 61.4 C1.54 57.21 2.53 55.94 5.3 52.78 C11.1 45.67 14.37 38.72 13.92 29.4 C12.88 22.12 11.25 15.19 5.96 9.84 C3.22 7.79 0.48 6.06 -2.51 4.4 C-3.6 3.74 -4.69 3.08 -5.82 2.4 C-16.6 -0.52 -28.55 1 -38.52 5.88 C-47.77 11.29 -52.21 18.46 -55.2 28.78 C-56.39 38.78 -54.57 45.26 -48.51 53.4 C-47.96 53.87 -47.96 53.87 -45.2 56.21 C-42.51 59.4 -42.51 59.4 -42.45 63.53 C-42.76 65.16 -43.12 66.79 -43.51 68.4 C-43.7 69.3 -43.89 70.2 -44.09 71.12 C-45.42 76.9 -47.18 82.43 -49.13 88.03 C-51.14 93.95 -52.51 99.13 -52.51 105.4 C-49.27 107.56 -48.38 107.65 -44.64 107.66 C-43.66 107.67 -42.67 107.67 -41.65 107.68 C-40.58 107.68 -39.51 107.67 -38.41 107.67 C-37.86 107.67 -37.86 107.67 -35.06 107.67 C-32.72 107.68 -30.38 107.67 -28.04 107.66 C-24.48 107.65 -20.93 107.66 -17.37 107.68 C-15.09 107.67 -12.81 107.67 -10.54 107.67 C-9.48 107.67 -8.43 107.68 -7.34 107.68 C-0.81 107.64 5.18 107.14 11.49 105.4 C13.93 97.11 8.15 86.98 5.33 79.19 C4.49 76.4 4.49 76.4 4.49 72.4 C5.15 72.4 5.81 72.4 6.49 72.4 C11.98 81.92 17.99 94.57 17.28 105.69 C16.49 108.4 16.49 108.4 13.37 110.71 C5.86 113.98 -1.76 113.51 -9.79 113.39 C-10.97 113.37 -12.14 113.35 -13.35 113.34 C-15.83 113.3 -18.3 113.26 -20.78 113.22 C-24.56 113.15 -28.34 113.11 -32.13 113.07 C-34.54 113.03 -36.95 112.99 -39.36 112.95 C-40.48 112.94 -41.61 112.93 -42.77 112.92 C-54.24 112.67 -54.24 112.67 -58.51 108.4 C-58.82 102.75 -58.14 98.26 -56.38 92.9 C-56.16 92.21 -56.16 92.21 -55.02 88.72 C-54.02 85.81 -52.96 82.93 -51.84 80.05 C-51.57 79.35 -51.29 78.64 -51.01 77.91 C-50.24 75.94 -49.44 73.98 -48.64 72.02 C-47.43 68.17 -47.02 65.41 -47.51 61.4 C-49.12 59.1 -49.12 59.1 -51.26 57.09 C-58.2 49.91 -60.91 40.87 -60.79 30.94 C-59.54 19.76 -53.04 10.37 -44.51 3.4 C-31.23 -5.96 -14.7 -6.75 0 0 Z " fill="#161c17" transform="translate(187.5078125,246.59765625)"/>
<path d="M0 0 C0.16 0.66 0.16 0.66 1 4 C-0.99 5.92 -3.18 7.1 -5.56 8.5 C-8 10 -8 10 -11 13 C-12.99 13.85 -12.99 13.85 -15.31 14.62 C-28.25 19.55 -39.59 28.84 -49.77 38.05 C-51.86 39.88 -54.01 41.55 -56.25 43.19 C-60.33 46.19 -63.73 49.59 -67.13 53.35 C-67.91 54.18 -68.69 55.02 -69.5 55.88 C-70.23 56.68 -70.96 57.48 -71.72 58.3 C-74 60 -74 60 -76.72 59.88 C-79 59 -79 59 -80 57 C-79.83 46 -74 38.28 -66.66 30.44 C-60.42 24.72 -53.02 20.62 -45.61 16.61 C-44.89 16.22 -44.16 15.82 -43.41 15.41 C-42 14.65 -40.58 13.91 -39.15 13.18 C-35 10.96 -33.42 9.46 -32 5 C-28.62 2.62 -28.62 2.62 -25 1 C-21 2 -21 2 -18 3 C-15.65 2.04 -13.32 1.04 -11 0 C-7.07 -1.15 -3.95 -1.17 0 0 Z " fill="#e1c9a6" transform="translate(162,26)"/>
<path d="M0 0 C5.74 2.44 10.86 5.27 15 10 C17.27 16.81 17.12 24.58 14.12 31.06 C9.55 35.36 4.84 38.72 -1.59 39.19 C-8.06 38.71 -14.69 37.31 -19.38 32.62 C-22.98 26.81 -23.95 21.81 -23 15 C-20.89 8.62 -17.13 4.43 -11.38 1.04 C-7.44 -0.68 -4.11 -1.02 0 0 Z " fill="#161c17" transform="translate(68,211)"/>
<path d="M0 0 C-2.48 4.96 -3.87 5.21 -9 7 C-14.71 8.57 -20.23 9.23 -26.12 9.81 C-33.35 10.61 -39.67 12.3 -46.48 14.77 C-50.71 16.25 -54.96 17.32 -59.32 18.32 C-62 19 -62 19 -64.78 20.02 C-69.56 21.47 -74.42 21.77 -79.37 22.21 C-82.7 22.54 -85.73 22.9 -88.89 24.03 C-94.18 25.68 -99.45 25.09 -104.94 24.88 C-106.09 24.85 -107.25 24.83 -108.44 24.8 C-115.18 24.56 -119.23 23.71 -125 20 C-129.22 18.51 -133.56 17.43 -137.88 16.29 C-142.58 14.98 -145.91 14.04 -149 10 C-145.16 9.02 -142.26 9.07 -138.37 9.74 C-137.31 9.92 -136.26 10.1 -135.18 10.29 C-134.09 10.48 -133 10.67 -131.88 10.88 C-130.78 11.06 -129.68 11.25 -128.55 11.44 C-120.49 12.84 -120.49 12.84 -117 14 C-94.67 15.55 -71.26 14 -50.12 6.4 C-41.13 3.34 -32.56 2.52 -23.12 1.94 C-20.71 1.78 -18.3 1.63 -15.88 1.46 C-14.82 1.4 -13.77 1.33 -12.68 1.27 C-8.27 0.83 -4.54 -0.09 0 0 Z " fill="#f2d199" transform="translate(273,204)"/>
<path d="M0 0 C10.61 6.2 10.61 6.2 12.28 10.93 C12.36 11.87 12.44 12.82 12.53 13.8 C12.6 14.55 12.68 15.29 12.75 16.06 C13.13 22.6 11.86 26.85 7.53 31.8 C4.01 34.6 0.97 35.37 -3.47 35.8 C-4.9 35.99 -6.32 36.17 -7.79 36.36 C-13.1 36.31 -15.93 33.64 -19.59 30.02 C-23.13 25.86 -24.26 22.26 -25.04 16.93 C-24.28 11.41 -22.18 7.91 -18.47 3.8 C-12.66 -0.14 -6.8 -3.3 0 0 Z " fill="#161c17" transform="translate(66.47265625,345.19921875)"/>
<path d="M0 0 C4.81 3.1 9.23 6.65 10.58 12.44 C10.82 18.24 9.52 22.22 6 26.94 C1.94 30.75 -0.68 32.81 -6.31 33.12 C-11.44 32.86 -14.65 32.07 -18.62 28.75 C-22.2 24.52 -24.75 20.96 -25.44 15.38 C-24.64 9.07 -22.38 6.02 -17.5 2.12 C-11.43 -2.46 -7.21 -2.55 0 0 Z " fill="#161c17" transform="translate(282,214.0625)"/>
<path d="M0 0 C2.5 1.06 2.5 1.06 5 3 C6.09 8.72 3.91 13.67 2.01 18.99 C1.11 21.67 0.47 24.23 -0.06 27 C-0.95 30.78 -1.7 32.1 -4 35 C-6.36 44.81 -4.01 55.69 0.04 64.76 C1.65 68.52 2.45 71.93 3 76 C1.49 79.76 -0.96 82.34 -4 85 C-6.89 85.96 -8.89 86.16 -11.89 86.25 C-12.85 86.28 -13.81 86.31 -14.79 86.35 C-16.79 86.41 -18.8 86.46 -20.8 86.52 C-25.98 86.7 -30.08 87.28 -35 89 C-44.37 89.64 -55 89.97 -64 87 C-66.75 84.44 -66.75 84.44 -68 82 C-68 81.67 -68 81.34 -68 81 C-67.37 81 -66.74 81.01 -66.09 81.01 C-59.51 81.06 -52.92 81.09 -46.33 81.11 C-43.88 81.12 -41.42 81.13 -38.97 81.15 C-35.43 81.18 -31.89 81.19 -28.35 81.2 C-27.81 81.2 -27.81 81.2 -25.06 81.23 C-9.69 81.23 -9.69 81.23 -3.31 77.38 C-1.32 73.78 -2.11 70.82 -3 67 C-3.18 66.17 -3.36 65.34 -3.54 64.49 C-5.16 57.8 -7.78 51.83 -10.79 45.65 C-12 43 -12 43 -12 41 C-12.99 41.33 -13.98 41.66 -15 42 C-15.66 38.37 -16.32 34.74 -17 31 C-16.34 31 -15.68 31 -15 31 C-7.29 21.36 -2.3 12.05 0 0 Z " fill="#c3995a" transform="translate(206,278)"/>
<path d="M0 0 C3.46 2.09 5.56 3.57 7.84 6.99 C9.21 13 9.64 18.66 6.31 24.12 C2.48 28.97 -1.08 32.62 -7.43 33.38 C-12.77 33.16 -16.28 32.54 -20.85 29.68 C-24.78 25.11 -25.79 21.47 -25.68 15.66 C-24.48 9.41 -19.77 5.22 -14.91 1.49 C-10.05 -1.17 -5.26 -2.46 0 0 Z " fill="#161c17" transform="translate(281.1640625,350.01171875)"/>
<path d="M0 0 C7.25 8.92 12.22 16.32 13 28 C13.13 29.48 13.26 30.96 13.39 32.48 C14.1 44.05 14.1 44.05 11.39 48.86 C7.95 52.4 4.62 54.32 0 56 C0.02 55.51 0.02 55.51 0.14 53.03 C0.45 41.58 0.23 28.84 -8 20 C-10.14 18.2 -10.14 18.2 -12.25 16.69 C-12.96 16.18 -13.66 15.66 -14.39 15.14 C-14.92 14.76 -15.45 14.39 -16 14 C-15.01 13.34 -14.02 12.68 -13 12 C-12.34 10.68 -11.68 9.36 -11 8 C-8.75 6.79 -6.49 6 -4.09 5.12 C-2 4 -2 4 0 0 Z " fill="#c3995a" transform="translate(306,187)"/>
<path d="M0 0 C0.99 0 1.98 0 3 0 C3.8 12.36 0.22 24.74 -3.48 36.45 C-5.48 46.35 -2.89 57.37 1.66 66.23 C7.13 74.37 14.74 79.8 24 83 C26.95 83.54 29.9 83.94 32.87 84.34 C36 85 36 85 39.32 86.46 C43.53 88.22 47.58 89.02 52.06 89.62 C52.52 89.69 52.52 89.69 54.81 90.01 C66.51 91.43 78.3 91.52 90.07 91.71 C90.48 91.72 90.48 91.72 92.52 91.75 C94.74 91.79 96.96 91.81 99.18 91.84 C102.55 91.98 105.69 92.35 109 93 C109 93.99 109 94.98 109 96 C86.95 96.46 65.74 96.3 44 92 C43.56 91.92 43.56 91.92 41.33 91.5 C23.89 88.19 6.56 83.32 -4 68 C-11.22 52.79 -9.52 38.01 -5.62 22.06 C-5.47 21.38 -5.47 21.38 -4.66 17.95 C-3.8 14.29 -2.93 10.64 -2 7 C-1.7 5.7 -1.39 4.4 -1.08 3.06 C-0.72 2.05 -0.37 1.04 0 0 Z " fill="#161c17" transform="translate(40,309)"/>
<path d="M0 0 C14.29 17.54 9.23 49.7 9 71 C8.01 71 7.02 71 6 71 C6.33 68.36 6.66 65.72 7 63 C3.98 64.51 3.42 67.14 2.1 70.09 C1 72 1 72 -2 74 C-4.28 74.26 -4.28 74.26 -6.93 74.27 C-7.89 74.27 -8.85 74.27 -9.84 74.27 C-10.84 74.27 -11.84 74.26 -12.88 74.25 C-13.37 74.25 -13.37 74.25 -15.89 74.27 C-16.85 74.27 -17.81 74.27 -18.8 74.27 C-19.24 74.26 -19.24 74.26 -21.46 74.26 C-24.29 73.97 -26.45 73.23 -29 72 C-29 71.67 -29 71.34 -29 71 C-28.09 70.97 -27.19 70.95 -26.25 70.92 C-18.55 70.56 -12.76 69.78 -6 66 C-4.62 63.24 -5.02 61.08 -5.12 58 C-5.18 52.66 -4.47 48.55 -2.73 43.54 C-1.61 39.64 -1.5 35.72 -1.25 31.68 C-0.96 28.58 0.02 25.95 1 23 C1.36 15.31 0.61 7.66 0 0 Z " fill="#715f4c" transform="translate(272,108)"/>
<path d="M0 0 C1.37 0 2.74 0 4.15 0.01 C5.57 0.02 6.99 0.03 8.46 0.04 C9.89 0.04 11.32 0.04 12.8 0.04 C23.41 0.09 23.41 0.09 26.84 1.23 C26.84 1.89 26.84 2.55 26.84 3.23 C18.77 5.61 10.81 5.58 2.46 5.62 C-5.45 5.8 -9.25 7.2 -14.84 13.01 C-17.36 16.5 -18.87 19.78 -20.41 23.79 C-20.91 25.07 -21.41 26.35 -21.93 27.67 C-25.94 39.24 -23.38 50.34 -20.07 61.82 C-19.32 64.63 -18.84 67.16 -18.6 70.04 C-18.25 73.43 -17.72 75.82 -16.66 78.98 C-14.16 86.87 -12.78 95.46 -16.16 103.23 C-16.82 103.23 -17.48 103.23 -18.16 103.23 C-19.19 99.12 -19.58 95.26 -19.98 91.04 C-21.11 80.16 -23.66 69.73 -26.54 59.19 C-26.76 58.34 -26.99 57.49 -27.23 56.62 C-27.67 54.99 -28.13 53.36 -28.59 51.74 C-32.19 38.62 -28.28 24.07 -21.73 12.36 C-16.13 3.66 -10.3 -0.03 0 0 Z " fill="#161c17" transform="translate(59.1640625,197.76953125)"/>
<path d="M0 0 C3.56 2.36 6.97 4.97 10 8 C10.57 12.94 10.51 16.91 8.38 21.44 C5.63 24.4 3.86 25.76 0 27 C-5.33 27.14 -9.69 26.29 -14 23 C-17.33 19.67 -17.45 19.19 -17.5 14.75 C-17.34 8.89 -15.99 6.25 -12 2 C-7.88 -1.47 -5.11 -1.53 0 0 Z " fill="#7f6f5c" transform="translate(68,217)"/>
<path d="M0 0 C3.57 2.4 5.62 4.43 8 8 C8.76 13.16 8.88 17.56 6.12 22.06 C1.88 24.7 -1.98 25.96 -7 26 C-11.55 24.12 -14.41 22.15 -17 18 C-17.92 13.73 -17.97 9.65 -15.72 5.83 C-11.04 0.28 -7.17 -1.1 0 0 Z " fill="#ae9c84" transform="translate(65,350)"/>
<path d="M0 0 C5.35 3.69 5.35 3.69 7 7 C7.35 12.3 7.38 15.78 4 20 C1.48 22.61 0.23 22.97 -3.44 23.38 C-8.06 22.89 -10.4 21.49 -13.75 18.38 C-15.68 14.72 -16.25 11.12 -16 7 C-12.27 0.51 -7.18 -0.76 0 0 Z " fill="#ae9c84" transform="translate(279,218)"/>
<path d="M0 0 C3.06 1.94 3.06 1.94 5 5 C5.71 9.49 6.1 12.2 3.71 16.1 C1.71 18.49 -0.18 20.59 -3 22 C-8.29 22.35 -11.77 22.36 -16 19 C-18.4 15.4 -18.64 14.25 -18 10 C-13.6 2.54 -9.12 -1.5 0 0 Z " fill="#7f6f5c" transform="translate(279,355)"/>
<path d="M0 0 C0.99 0.99 1.98 1.98 3 3 C2.97 5.45 2.97 5.45 2.5 8.12 C2.03 10.82 2.03 10.82 2 13 C2.99 13.33 3.98 13.66 5 14 C4.51 16.18 4.02 18.36 3.54 20.54 C3.45 20.95 3.45 20.95 3 23 C2.91 23.39 2.91 23.39 2.47 25.34 C1.88 28.66 1.66 31.95 1.44 35.31 C1.35 36.57 1.27 37.82 1.18 39.11 C1.12 40.07 1.06 41.02 1 42 C-0.32 41.34 -1.64 40.68 -3 40 C-4.05 39.5 -5.1 39.01 -6.19 38.5 C-9.22 35.8 -9.49 35.31 -10 31.5 C-10.45 19.17 -6.75 10.12 0 0 Z " fill="#c3995a" transform="translate(25,189)"/>
<path d="M0 0 C1.38 0.01 2.76 0.01 4.18 0.02 C16.13 0.11 16.13 0.11 20 1.25 C20 1.91 20 2.57 20 3.25 C16.07 4.52 12 4.36 7.9 4.44 C-2.95 4.67 -13.48 5.89 -24.19 7.69 C-24.84 7.8 -24.84 7.8 -28.15 8.35 C-37.45 9.98 -37.45 9.98 -42 12.25 C-45.45 12.45 -45.45 12.45 -49.25 12.38 C-50.51 12.36 -51.78 12.34 -53.08 12.32 C-54.04 12.3 -55.01 12.27 -56 12.25 C-56 11.26 -56 10.27 -56 9.25 C-53.73 8.41 -53.73 8.41 -50.55 7.75 C-49.39 7.5 -48.23 7.25 -47.04 7 C-45.81 6.75 -44.58 6.5 -43.31 6.25 C-40.93 5.75 -38.55 5.25 -36.18 4.75 C-34.98 4.51 -33.78 4.26 -32.54 4.01 C-30.27 3.52 -28.01 2.99 -25.77 2.4 C-17.1 0.14 -8.93 -0.14 0 0 Z " fill="#161c17" transform="translate(222,392.75)"/>
<path d="M0 0 C6.73 5.13 6.73 5.13 7.37 9.52 C7.55 17.11 7.55 17.11 5.12 21.06 C0.89 23.69 -2.99 24.99 -8 25 C-10.81 24.01 -12.57 22.8 -15 21 C-12 19 -12 19 -9.44 17.69 C-6.51 15.66 -6.18 14.3 -5 11 C-4.32 10.2 -3.64 9.39 -2.94 8.56 C-0.73 5.64 -0.34 3.6 0 0 Z " fill="#7f6f5c" transform="translate(66,351)"/>
<path d="M0 0 C1 1 1 1 1.44 3.62 C0.89 7.82 -0.58 9.33 -3.42 12.32 C-5 14 -5 14 -7 16.88 C-9.57 19.6 -11.31 19.84 -15 20 C-15.66 19.67 -16.32 19.34 -17 19 C-17.91 13.99 -17.72 9.34 -14.81 5.06 C-9.86 -0.33 -7.31 -1.69 0 0 Z " fill="#ae9c84" transform="translate(68,217)"/>
<path d="M0 0 C0.62 0 0.62 0 3.77 0.03 C4.24 0.03 4.24 0.03 6.62 0.06 C6.3 1.38 5.97 2.7 5.62 4.06 C2.89 4.53 2.89 4.53 -0.69 4.56 C-10.66 5.01 -19.8 7.23 -27.38 14.06 C-30.94 18.44 -34.06 22.93 -36.19 28.19 C-36.38 28.66 -36.38 28.66 -37.38 31.06 C-38.03 31.06 -38.69 31.06 -39.38 31.06 C-39.1 23.7 -36.78 17.99 -32.38 12.06 C-22.86 3.24 -12.86 -0.12 0 0 Z " fill="#e1c9a6" transform="translate(171.375,246.9375)"/>
<path d="M0 0 C-0.67 2.67 -1.33 5.33 -2 8 C-0.63 8.65 0.75 9.3 2.12 9.94 C2.89 10.3 3.66 10.66 4.45 11.03 C10.36 13.28 16.62 13.28 22.88 13.56 C23.75 13.61 24.63 13.65 25.54 13.69 C27.69 13.8 29.85 13.9 32 14 C22.41 20.39 6.34 16.8 -4.44 15.44 C-7.67 15.04 -10.75 14.92 -14 15 C-13.81 12.75 -13.81 12.75 -13 10 C-11.34 8.66 -9.67 7.33 -8 6 C-8 4.68 -8 3.36 -8 2 C-5.13 0.45 -3.27 0 0 0 Z " fill="#c3995a" transform="translate(48,175)"/>
<path d="M0 0 C3.66 2.93 4.91 4.26 5.5 9 C4.88 13.92 3.64 16.3 0.25 19.81 C-3 21.53 -5.37 21.38 -9 21 C-13.6 18.8 -13.6 18.8 -15 16 C-14.46 15.81 -14.46 15.81 -11.75 14.88 C-7.51 12.75 -6.32 11.05 -4 7 C-3.44 6.28 -2.89 5.56 -2.31 4.81 C-1 3 -1 3 0 0 Z " fill="#7f6f5c" transform="translate(281,220)"/>
<path d="M0 0 C1.32 0.33 2.64 0.66 4 1 C6.73 9.64 2.99 18.24 -1 26 C-1.66 26.33 -1.66 26.33 -5 28 C-8.3 23.05 -6.91 17.7 -6 12 C-4.67 7.51 -3.35 3.35 0 0 Z " fill="#e1c9a6" transform="translate(76,88)"/>
<path d="M0 0 C0.66 0.33 1.32 0.66 2 1 C3.16 9.07 1.15 16.87 -0.88 24.62 C-1.41 26.76 -1.95 28.9 -2.49 31.04 C-2.62 31.54 -2.62 31.54 -3.28 34.09 C-3.95 36.81 -4.52 39.53 -5.07 42.27 C-5.38 43.5 -5.68 44.73 -6 46 C-6.66 46 -7.32 46 -8 46 C-10.86 37.43 -7.75 28.81 -5.62 20.38 C-5.47 19.73 -5.47 19.73 -4.66 16.45 C-3.29 10.88 -1.87 5.42 0 0 Z " fill="#e1c9a6" transform="translate(44,313)"/>
<path d="M0 0 C0.33 0 0.66 0 1 0 C0.77 3.91 0.43 6.4 -1.88 9.62 C-7.3 13.75 -13.41 16.35 -20 18 C-23.14 15.53 -25.25 12.58 -27 9 C-26.67 8.01 -26.34 7.02 -26 6 C-24.8 6.33 -23.61 6.66 -22.38 7 C-14.78 8.74 -11.02 7.84 -4.17 4.39 C-2 3 -2 3 0 0 Z " fill="#c3995a" transform="translate(81,241)"/>
<path d="M0 0 C-0.52 4.69 -2.46 7.5 -5.25 11.25 C-6.02 12.31 -6.79 13.36 -7.58 14.45 C-10.16 17.17 -11.33 17.77 -15 18 C-14.67 16.68 -14.34 15.36 -14 14 C-14.99 13.67 -15.98 13.34 -17 13 C-16.34 11.68 -15.68 10.36 -15 9 C-14.34 9 -13.68 9 -13 9 C-13.04 8.54 -13.04 8.54 -13.25 6.19 C-13 3 -13 3 -11.56 1.12 C-7.66 -0.59 -4.24 -0.19 0 0 Z " fill="#ae9c84" transform="translate(279,355)"/>
<path d="M0 0 C1.32 0.66 2.64 1.32 4 2 C4.56 5.44 4.56 5.44 4 9 C-3.18 15.31 -13.07 14.09 -21.94 13.62 C-22.57 13.6 -22.57 13.6 -25.74 13.45 C-28.83 13.31 -31.92 13.16 -35 13 C-35 12.67 -35 12.34 -35 12 C-34.35 11.95 -34.35 11.95 -31.08 11.7 C-8.43 9.83 -8.43 9.83 -2 6 C-0.66 2.86 -0.66 2.86 0 0 Z " fill="#c3995a" transform="translate(293,178)"/>
<path d="M0 0 C0.76 0.64 1.53 1.28 2.31 1.94 C6.07 4.82 8.84 5.09 13.44 5.31 C18.64 5.73 18.64 5.73 21.69 8 C23 10 23 10 23 11 C15.92 11.11 9 11.13 2 10 C0 8 0 8 -0.12 3.88 C-0.1 3.24 -0.1 3.24 0 0 Z " fill="#624e36" transform="translate(59,171)"/>
<path d="M0 0 C2 0.78 4 1.58 6 2.38 C7.11 2.82 8.23 3.26 9.38 3.71 C10.24 4.14 11.11 4.56 12 5 C12 5.66 12 6.32 12 7 C13.66 7.37 15.33 7.71 17 8 C17 8.33 17 8.66 17 9 C16.46 9.07 16.46 9.07 13.75 9.44 C10 10 10 10 6 11 C1.96 9.05 -0.49 7.76 -3 4 C-2.34 4 -1.68 4 -1 4 C-0.67 2.68 -0.34 1.36 0 0 Z " fill="#976e3f" transform="translate(50,390)"/>
<path d="M0 0 C5.01 7.52 7.34 16.01 6 25 C4.92 28.47 3.59 31.73 2 35 C1 31 1 31 2 28 C2.37 22.31 2.35 16.75 1 11.19 C0.06 7.27 -0.17 4 0 0 Z " fill="#b48a50" transform="translate(196,259)"/>
<path d="M0 0 C1.26 0.09 2.51 0.18 3.8 0.28 C5.07 0.35 6.33 0.42 7.62 0.5 C8.63 0.74 9.64 0.97 10.68 1.21 C11.01 2.53 11.34 3.85 11.68 5.21 C6.83 6.86 3.67 7.32 -1.32 6.21 C-2.64 6.21 -3.96 6.21 -5.32 6.21 C-5.65 5.22 -5.98 4.23 -6.32 3.21 C-3.32 0.21 -3.32 0.21 0 0 Z " fill="#b48a50" transform="translate(80.3203125,399.78515625)"/>
<path d="M0 0 C0.66 0.33 1.32 0.66 2 1 C2.73 7.2 2.07 13.88 1 20 C0.01 20.33 -0.98 20.66 -2 21 C-2.05 18.44 -2.09 15.88 -2.12 13.31 C-2.15 11.89 -2.17 10.46 -2.2 8.99 C-2.02 5.4 -1.59 3.17 0 0 Z " fill="#443626" transform="translate(66,128)"/>
<path d="M0 0 C1.46 0.01 2.92 0.02 4.42 0.03 C4.98 0.03 4.98 0.03 7.81 0.06 C7.81 0.72 7.81 1.38 7.81 2.06 C4.68 2.23 4.68 2.23 -11.19 3.06 C-11.19 2.4 -11.19 1.74 -11.19 1.06 C-7.35 -0.22 -4.04 -0.03 0 0 Z " fill="#f2d199" transform="translate(172.1875,347.9375)"/>
<path d="M0 0 C0.66 0.99 1.32 1.98 2 3 C0.71 4.37 -0.63 5.71 -2 7 C-1 9 -1 9 1 10 C0.67 10.99 0.34 11.98 0 13 C-0.99 13.33 -1.98 13.66 -3 14 C-4.43 11.13 -4.31 9.19 -4 6 C-2 2.62 -2 2.62 0 0 Z " fill="#9e8d76" transform="translate(265,359)"/>
<path d="M0 0 C0 0.99 0 1.98 0 3 C-3.5 4.69 -3.5 4.69 -7 6 C-7.33 4.68 -7.66 3.36 -8 2 C-5.09 0.74 -3.2 0 0 0 Z " fill="#c79d5d" transform="translate(48,175)"/>
<path d="M0 0 C3.73 0.5 5.81 0.87 9 3 C5.33 3 1.67 3 -2 3 C-1.34 2.67 -0.68 2.34 0 2 C0 1.34 0 0.68 0 0 Z " fill="#b48a50" transform="translate(58,396)"/>
<path d="M0 0 C1.99 3.99 2.23 5.47 2.12 9.75 C2.11 10.73 2.09 11.72 2.07 12.73 C2.06 13.11 2.06 13.11 2 15 C1.67 15 1.34 15 1 15 C-0.48 9.57 -1.43 5.56 0 0 Z " fill="#b48a50" transform="translate(200,269)"/>
<path d="M0 0 C3 4 3 4 3.07 6.58 C2.95 7.46 2.82 8.34 2.69 9.25 C2.63 9.7 2.63 9.7 2.32 11.95 C2.22 12.63 2.11 13.3 2 14 C1.67 14 1.34 14 1 14 C0.67 9.38 0.34 4.76 0 0 Z " fill="#715f4c" transform="translate(272,108)"/>
<path d="M0 0 C0.33 0 0.66 0 1 0 C1 2.97 1 5.94 1 9 C0.01 9 -0.98 9 -2 9 C-1.12 1.12 -1.12 1.12 0 0 Z " fill="#624e36" transform="translate(280,170)"/>
</svg>
