<?xml version="1.0" encoding="UTF-8"?>
<!-- Generated by @neplex/vectorizer (Using visioncortex VTracer) -->
<svg xmlns="http://www.w3.org/2000/svg" width="172" height="181" viewBox="2 2 172 181" preserveAspectRatio="xMidYMid meet">
<path d="M0 0 C4.21 3.31 8.02 6.53 11 11 C15 9 15 9 17.44 7 C22.17 3.31 26.38 2.43 32.3 2.55 C38.64 3.6 43.45 7.48 47.94 11.88 C52.76 19.18 53.42 25.5 53 34 C53.8 33.51 54.61 33.01 55.44 32.5 C59.79 30.67 63.4 30.1 68 31 C76.73 34.67 80.84 41.74 84.31 50.19 C87.92 64.95 85.49 79.33 83 94 C81.39 103.93 81.39 103.93 83.62 107.88 C84.02 108.23 84.02 108.23 86 110 C95.85 119.49 102.9 128.69 103.44 142.56 C103.26 149.69 101.53 154.02 96.88 159.5 C95 161 95 161 93 161 C93 161.66 93 162.32 93 163 C84.7 163.49 84.7 163.49 81.79 161.46 C79.38 158.15 79.12 155.36 78.56 151.31 C77.17 143.04 75.1 137.5 69.56 131.25 C68.72 130.84 67.87 130.43 67 130 C62.58 131.76 59.68 134.07 56.38 137.44 C50.58 142.78 44.41 145.76 36.45 146.11 C29.82 145.61 25.15 143.5 20.75 138.62 C17.76 134.91 16 131.86 16 127 C14.95 127.31 13.9 127.62 12.81 127.94 C1.57 131.07 -10.42 131.64 -21.12 126.5 C-26.97 121.42 -30.51 114.7 -31.31 107 C-30.87 101.33 -28.96 96.32 -27 91 C-27.93 91.08 -28.86 91.17 -29.81 91.25 C-37.8 90.77 -45.53 87.99 -51 82 C-55.36 75.23 -57.96 68.57 -56.55 60.43 C-54.94 54.22 -52.63 49.16 -46.9 45.75 C-44.97 44.77 -42.99 43.87 -41 43 C-41.45 41.68 -41.91 40.36 -42.38 39 C-45.85 28.48 -47.4 20.37 -43 10 C-39.42 3.36 -33.82 -2.19 -26.75 -5 C-17.25 -7.62 -8.05 -5.37 0 0 Z " fill="#d79f51" transform="translate(65,14)"/>
<path d="M0 0 C4.21 3.31 8.02 6.53 11 11 C15 9 15 9 17.44 7 C22.17 3.31 26.38 2.43 32.3 2.55 C38.64 3.6 43.45 7.48 47.94 11.88 C52.76 19.18 53.42 25.5 53 34 C53.8 33.51 54.61 33.01 55.44 32.5 C59.79 30.67 63.4 30.1 68 31 C76.73 34.67 80.84 41.74 84.31 50.19 C87.92 64.95 85.49 79.33 83 94 C81.39 103.93 81.39 103.93 83.62 107.88 C84.02 108.23 84.02 108.23 86 110 C95.85 119.49 102.9 128.69 103.44 142.56 C103.26 149.69 101.53 154.02 96.88 159.5 C95 161 95 161 93 161 C93 161.66 93 162.32 93 163 C84.7 163.49 84.7 163.49 81.79 161.46 C79.38 158.15 79.12 155.36 78.56 151.31 C77.17 143.04 75.1 137.5 69.56 131.25 C68.72 130.84 67.87 130.43 67 130 C62.58 131.76 59.68 134.07 56.38 137.44 C50.58 142.78 44.41 145.76 36.45 146.11 C29.82 145.61 25.15 143.5 20.75 138.62 C17.76 134.91 16 131.86 16 127 C14.95 127.31 13.9 127.62 12.81 127.94 C1.57 131.07 -10.42 131.64 -21.12 126.5 C-26.97 121.42 -30.51 114.7 -31.31 107 C-30.87 101.33 -28.96 96.32 -27 91 C-27.93 91.08 -28.86 91.17 -29.81 91.25 C-37.8 90.77 -45.53 87.99 -51 82 C-55.36 75.23 -57.96 68.57 -56.55 60.43 C-54.94 54.22 -52.63 49.16 -46.9 45.75 C-44.97 44.77 -42.99 43.87 -41 43 C-41.45 41.68 -41.91 40.36 -42.38 39 C-45.85 28.48 -47.4 20.37 -43 10 C-39.42 3.36 -33.82 -2.19 -26.75 -5 C-17.25 -7.62 -8.05 -5.37 0 0 Z M-32.31 11.62 C-35.82 16.56 -35.54 21.07 -35 27 C-33.65 32.51 -31.69 37.34 -28.25 41.88 C-25.97 45.05 -25.43 46.21 -26 50 C-26.66 50.03 -26.66 50.03 -30 50.19 C-36.28 50.89 -40.77 53.56 -45 58.19 C-46.56 62.57 -46.97 66.43 -46 71 C-42.65 76.87 -38.4 79.9 -32 82 C-28.08 82.43 -24.19 82.51 -20.25 82.56 C-18.19 82.6 -16.14 82.64 -14.08 82.69 C-13.17 82.7 -12.27 82.72 -11.34 82.73 C-9 83 -9 83 -6 85 C-6 86.32 -6 87.64 -6 89 C-7.93 89.96 -9.86 90.92 -11.82 91.79 C-15.91 94.06 -18.92 97.83 -21 102 C-21.55 107.72 -20.64 110.57 -17 115 C-11.04 120.38 -5.95 120.44 1.87 120.43 C7.48 119.84 11.83 117.77 16.88 115.35 C20.99 113.57 23.62 113.23 28 114 C28.33 114.99 28.66 115.98 29 117 C28.34 117.99 27.68 118.98 27 120 C26.7 122.34 26.7 122.34 26.69 124.94 C26.68 125.36 26.68 125.36 26.64 127.53 C27.07 130.5 27.94 131.84 30 134 C34.73 135.58 38.84 135.97 43.5 133.87 C48.83 130.76 53.42 127.12 58 123 C62.49 120.01 66.75 120.17 72 121 C80.17 125.2 83.85 134.84 87 143 C87.79 145.66 88.41 148.29 89 151 C89.99 150.67 90.98 150.34 92 150 C94.73 144.41 94.11 139.66 92.34 133.83 C89.28 126.45 83.75 121.16 78.17 115.62 C77.52 114.97 76.87 114.31 76.2 113.64 C75.61 113.06 75.02 112.48 74.41 111.88 C71.08 107.44 71.64 101.32 72 96 C72.52 92.96 73.26 89.99 74 87 C76.98 73.89 78.61 58.95 71.75 46.78 C69.18 43.25 67.33 42.07 63.06 41.19 C57.64 42.27 55.78 43.99 52 48 C51.67 49.32 51.34 50.64 51 52 C48 52.88 48 52.88 45 53 C43.74 50.48 43.84 48.66 43.79 45.84 C43.76 44.8 43.73 43.76 43.7 42.68 C43.65 40.5 43.61 38.32 43.57 36.14 C43.34 28.35 42.74 22.14 37.44 16.06 C33.27 12.54 30.45 12.59 25 13 C19.61 16.06 16.88 21.18 15.06 27 C14.89 27.33 14.89 27.33 14 29 C11.58 28.91 11.58 28.91 9 28 C7.7 26.03 7.7 26.03 6.69 23.5 C3.02 15.52 -2.14 8.75 -10.57 5.59 C-19.63 3.39 -26.02 4.48 -32.31 11.62 Z " fill="#3c1e13" transform="translate(65,14)"/>
<path d="M0 0 C11.19 7.96 20.86 17.8 30.83 27.2 C46.01 41.51 46.01 41.51 49 43 C49.1 41.76 49.21 40.53 49.31 39.25 C49.94 35.36 50.22 33.67 53 31 C53.66 31 54.32 31 55 31 C55.53 33.25 55.94 35.53 56.31 37.81 C58.54 49.42 61.26 56.55 70.99 63.64 C71.65 64.09 72.32 64.54 73 65 C73.16 64.67 73.16 64.67 74 63 C74.17 63.83 74.33 64.65 74.5 65.5 C76.28 69.64 78.56 71.73 81.77 74.81 C88.86 81.79 95.72 89.96 96.08 100.37 C95.74 103.9 94.98 106.03 93 109 C92.34 109 91.68 109 91 109 C90.33 106.9 89.77 104.77 89.25 102.62 C86.55 92.77 82.62 84.8 74 79 C71.23 78.27 68.89 78.1 66 78 C66.66 77.5 66.66 77.5 70 75 C69.48 74.6 68.96 74.2 68.43 73.79 C66.05 71.97 63.68 70.14 61.31 68.31 C60.5 67.69 59.68 67.06 58.84 66.42 C58.44 66.11 58.44 66.11 56.43 64.55 C55.7 63.99 54.97 63.43 54.22 62.85 C52 61 52 61 49.66 58.32 C46.27 55.36 44.41 55.35 39.95 55.29 C38.61 55.26 37.27 55.23 35.9 55.21 C35.2 55.2 35.2 55.2 31.69 55.19 C30.28 55.16 28.87 55.14 27.42 55.11 C23.95 55.05 20.47 55.02 17 55 C18 52 18 52 19.97 50.83 C25.96 48.42 30.55 47.58 37 48 C33.18 43.56 29.28 39.21 25.26 34.94 C19.54 28.84 14.02 22.7 9 16 C8.56 15.42 8.13 14.84 7.68 14.25 C1.37 5.81 1.37 5.81 -1 2 C-0.67 1.34 -0.34 0.68 0 0 Z " fill="#a96e35" transform="translate(63,56)"/>
<path d="M0 0 C0.67 0.25 0.67 0.25 4.06 1.5 C8.18 2.89 11.64 3.18 16 3 C16.66 3.33 17.32 3.66 18 4 C18.33 3.34 18.66 2.68 19 2 C19.08 2.41 19.08 2.41 19.5 4.5 C21.28 8.64 23.56 10.73 26.77 13.81 C33.86 20.79 40.72 28.96 41.08 39.37 C40.74 42.9 39.98 45.03 38 48 C37.34 48 36.68 48 36 48 C35.33 45.9 34.77 43.77 34.25 41.62 C31.55 31.77 27.62 23.8 19 18 C16.23 17.27 13.89 17.1 11 17 C12.32 16.01 13.64 15.02 15 14 C14 13.24 13 12.48 11.97 11.7 C10.67 10.7 9.37 9.69 8.06 8.69 C7.4 8.19 6.74 7.69 6.06 7.17 C1.11 3.34 1.11 3.34 0 0 Z " fill="#9d6431" transform="translate(118,117)"/>
<path d="M0 0 C0.67 0.25 0.67 0.25 4.06 1.5 C8.18 2.89 11.64 3.18 16 3 C16.66 3.33 17.32 3.66 18 4 C18.33 3.34 18.66 2.68 19 2 C19.23 2.89 19.45 3.77 19.69 4.69 C21 8 21 8 23.69 10.62 C24.45 11.41 25.21 12.19 26 13 C25.67 14.32 25.34 15.64 25 17 C20.24 18.51 15.86 17.75 11 17 C12.32 16.01 13.64 15.02 15 14 C14 13.24 13 12.48 11.97 11.7 C10.67 10.7 9.37 9.69 8.06 8.69 C7.4 8.19 6.74 7.69 6.06 7.17 C1.11 3.34 1.11 3.34 0 0 Z " fill="#9d6431" transform="translate(118,117)"/>
<path d="M0 0 C0.66 0 1.32 0 2 0 C2.82 3.14 2.82 3.14 3.56 7.25 C4.29 11.2 5.02 15.1 6 19 C3.81 19.31 3.81 19.31 1 19 C-1.52 16.82 -3.51 14.99 -5 12 C-4.51 9.94 -4.51 9.94 -3.69 7.56 C-3.42 6.78 -3.16 6 -2.89 5.19 C-2 3 -2 3 0 0 Z " fill="#c28b47" transform="translate(116,87)"/>
<path d="M0 0 C0.66 0 1.32 0 2 0 C2.89 3.14 2.89 3.14 3.69 7.25 C3.96 8.6 4.23 9.94 4.51 11.33 C5 15 5 15 4 19 C1.03 16.36 -1.94 13.72 -5 11 C-4.34 10.67 -3.68 10.34 -3 10 C-2.65 8 -2.31 6 -2 4 C-1.34 2.68 -0.68 1.36 0 0 Z " fill="#ce974e" transform="translate(93,68)"/>
<path d="M0 0 C-0.99 0.66 -1.98 1.32 -3 2 C-3 2.99 -3 3.98 -3 5 C-2.01 5.17 -2.01 5.17 3 6 C3 6.33 3 6.66 3 7 C-3.93 7 -10.86 7 -18 7 C-17 4 -17 4 -14.96 2.83 C-9.78 0.79 -5.67 -0.49 0 0 Z " fill="#b57d3e" transform="translate(98,104)"/>
<path d="M0 0 C2.5 2.31 2.5 2.31 5 5 C5 5.99 5 6.98 5 8 C2.88 9.5 2.88 9.5 0 10 C-3.31 7.62 -3.31 7.62 -6 5 C-4 3 -4 3 -1 2 C-0.67 1.34 -0.34 0.68 0 0 Z " fill="#8a592f" transform="translate(144,131)"/>
<path d="M0 0 C2.77 0.01 4.99 2.23 5 4 C4.99 6.77 2.77 8.99 0 9 C-2.21 9 -3.99 7.21 -4 4 C-3.99 1.79 -2.21 0.01 0 0 Z " fill="#161c17" transform="translate(124,137.99972405)"/>
<path d="M0 0 C1.32 0.66 2.64 1.32 4 2 C4.75 6.12 4.75 6.12 5 10 C2.36 8.02 -0.28 6.04 -3 4 C-2.34 3.67 -1.68 3.34 -1 3 C-0.67 2.01 -0.34 1.02 0 0 Z " fill="#c28b47" transform="translate(92,76)"/>
<path d="M0 0 C1.66 0 3 1.34 3 3 C3 4.66 1.66 6 0 6 C-1.66 6 -3 4.66 -3 3 C-3 1.34 -1.66 0 0 0 Z " fill="#a96e35" transform="translate(138,121.99983442999999)"/>
<path d="M0 0 C0.66 0 1.32 0 2 0 C2 0.66 2 1.32 2 2 C7.94 2 13.88 2 20 2 C20 2.33 20 2.66 20 3 C13.07 3 6.14 3 -1 3 C-0.67 2.01 -0.34 1.02 0 0 Z " fill="#c28b47" transform="translate(81,108)"/>
<path d="M0 0 C0.99 0.16 0.99 0.16 6 1 C6 1.99 6 2.98 6 4 C3.5 4.69 3.5 4.69 1 5 C0.84 4.18 0.84 4.18 0 0 Z " fill="#161c17" transform="translate(42,10)"/>
<path d="M0 0 C1.66 0 3 1.34 3 3 C3 4.66 1.66 6 0 6 C-1.66 6 -3 4.66 -3 3 C-3 1.34 -1.66 0 0 0 Z " fill="#161c17" transform="translate(112,49.99983443)"/>
<path d="M0 0 C0.99 0.33 1.98 0.66 3 1 C3.33 2.32 3.66 3.64 4 5 C1.69 5.19 1.69 5.19 -1 5 C-1.99 4.01 -2.98 3.02 -4 2 C-2.68 1.34 -1.36 0.68 0 0 Z " fill="#b57d3e" transform="translate(118,101)"/>
</svg>
