<?xml version="1.0" encoding="UTF-8"?>
<!-- Generated by @neplex/vectorizer (Using visioncortex VTracer) -->
<svg xmlns="http://www.w3.org/2000/svg" width="176" height="312" viewBox="2 2 176 312" preserveAspectRatio="xMidYMid meet">
<path d="M0 0 C0.8 0.38 1.6 0.76 2.42 1.15 C10.88 5.48 18.3 11.38 22.18 20.24 C24.56 28.26 23.8 35.14 20.19 42.62 C18.33 46.04 16.78 48.22 14 51 C12.69 62.78 14.49 75.28 15.44 87.06 C17.04 107.28 17.04 107.28 17.25 115.71 C17.27 116.79 17.3 117.87 17.32 118.98 C17.36 120.89 17.37 122.81 17.36 124.73 C17.4 127.21 17.4 127.21 18 131 C20.34 132.38 20.34 132.38 23 133 C31.77 141.42 32.86 151.95 33.24 163.71 C33.27 165.79 33.29 167.86 33.31 169.94 C33.34 170.97 33.37 172 33.4 173.07 C33.46 180.09 32.41 184.83 29 191 C28.24 191.5 27.47 191.99 26.69 192.5 C26.13 193 25.57 193.49 25 194 C25.13 201.82 27.82 207.57 31.25 214.5 C39.07 230.89 47.28 250.38 41.09 268.61 C37.98 275.4 32.92 279.81 26.18 282.84 C-12.57 296.92 -66.64 298.35 -105.22 282.34 C-112.84 278.66 -116.87 274.89 -120 267 C-124.96 247.39 -116.69 229.25 -108.54 211.9 C-105.8 206.01 -103.73 200.27 -102 194 C-103.32 193.34 -104.64 192.68 -106 192 C-114.38 182.84 -112.41 171.95 -112.14 160.14 C-111.68 149.83 -109.62 140.34 -101.88 133.06 C-99 131 -99 131 -97 131 C-96.56 123.79 -96.14 116.57 -95.72 109.36 C-95.58 106.92 -95.43 104.47 -95.28 102.03 C-94.49 88.89 -93.82 75.75 -93.59 62.59 C-93.56 61.51 -93.52 60.43 -93.48 59.32 C-93.44 54.27 -93.47 51.78 -96.38 47.51 C-97.25 46.68 -98.11 45.85 -99 45 C-103.28 37.75 -105.07 31.22 -102.94 22.94 C-98.92 11.4 -89.67 4.93 -79.25 -0.75 C-55.57 -11.97 -23.38 -11.45 0 0 Z " fill="#161c17" transform="translate(129,16)"/>
<path d="M0 0 C2.96 2.83 5.41 5.64 7.06 9.44 C6.96 13.44 5.75 16.44 4 20 C2.68 20 1.36 20 0 20 C-0.66 19.01 -1.32 18.02 -2 17 C-2.66 17 -3.32 17 -4 17 C-4.33 31.78 -3.28 46.34 -2.06 61.06 C-1.7 65.57 -1.33 70.09 -0.97 74.6 C-0.93 75.14 -0.93 75.14 -0.71 77.87 C2.02 112.06 2.02 112.06 1 117 C-2.55 119.97 -6.4 120.73 -10.88 121.62 C-12.05 121.86 -13.22 122.1 -14.43 122.35 C-22.99 123.91 -31.3 124.22 -39.98 124.24 C-42.33 124.25 -44.69 124.28 -47.05 124.31 C-57.56 124.39 -67.81 123.75 -78 121 C-78.75 120.83 -79.49 120.66 -80.26 120.49 C-82.48 119.76 -82.48 119.76 -86 117 C-86.98 112.35 -86.53 107.84 -86.16 103.13 C-86.08 101.74 -86.01 100.35 -85.93 98.93 C-85.72 95.22 -85.48 91.52 -85.22 87.82 C-84.96 84.13 -84.76 80.44 -84.54 76.76 C-84.21 71.08 -83.86 65.41 -83.49 59.73 C-83.06 53.12 -82.69 46.51 -82.38 39.89 C-82.34 39.08 -82.3 38.28 -82.26 37.44 C-81.96 30.96 -81.89 24.49 -82 18 C-82.99 18 -83.98 18 -85 18 C-85.33 18.49 -85.33 18.49 -87 21 C-91 19 -91 19 -92.31 16.81 C-93.39 12.39 -93.16 9.11 -90.93 5.05 C-82.37 -6.37 -66.23 -10.46 -52.88 -12.69 C-34.75 -14.15 -14.41 -12.14 0 0 Z " fill="#442a20" transform="translate(132,34)"/>
<path d="M0 0 C2.77 0.25 5.39 0.87 8.11 1.46 C11 2 11 2 15.31 1.88 C19 3 19 3 20.65 5.55 C21.68 7.7 22.68 9.87 23.64 12.05 C26.52 18.31 32.02 21.91 38 25 C46.54 27.13 55.1 26.95 63 23 C68.63 19.53 72.62 16.09 74.78 9.69 C75.65 7.18 76.45 5.16 78 3 C81.26 1.51 84.45 1.27 88 1 C88.85 0.87 89.7 0.74 90.58 0.61 C92.71 0.29 94.86 0.13 97 0 C99 2 99 2 100.06 6.06 C101.49 11.16 103.82 15.58 106.38 20.19 C112.61 31.61 118.2 43.67 116 57 C113.44 62.52 109.58 63.73 104.12 65.75 C101.76 66.53 99.38 67.28 97 68 C95.92 68.34 94.84 68.69 93.73 69.04 C63.51 76.82 15.16 79.3 -13.11 63.26 C-15.96 61.36 -17.5 60.14 -19 57 C-21.51 43.26 -14.04 29.59 -7.86 17.79 C-5.7 13.38 -4.16 8.97 -2.79 4.26 C-2 2 -2 2 0 0 Z " fill="#c29b7a" transform="translate(41,215)"/>
<path d="M0 0 C2.46 0.78 4.68 1.85 7.01 2.96 C21.6 9.67 38.93 9.58 54.69 9.5 C55.6 9.5 56.51 9.5 57.45 9.5 C90.92 9.4 90.92 9.4 103.86 1.7 C104.9 1.14 105.93 0.58 107 0 C111 2 111 2 112.19 4.44 C114.3 13.69 116.37 26.78 112.95 35.74 C107.71 41.81 96.3 43.08 88.62 43.88 C84.34 44.17 84.34 44.17 82 43 C81.59 41.97 81.17 40.94 80.75 39.88 C77.24 32.1 72.79 28.29 65 25 C64.03 24.59 63.06 24.18 62.06 23.75 C53.66 21.69 46.63 23.2 39 27 C33.84 30.35 30.86 34.02 28 39.44 C26.53 42 26.53 42 25 44 C21.45 44.89 20.41 44.83 17 44 C15.88 43.74 14.77 43.48 13.62 43.21 C7.27 41.55 1.36 39.86 -4 36 C-7.46 25.62 -5 12.27 -2 2 C-1.34 1.34 -0.68 0.68 0 0 Z " fill="#bd9775" transform="translate(35,161)"/>
<path d="M0 0 C4.5 2.59 7.71 5.26 9.86 10.09 C10.69 14.83 10.85 19.08 8.68 23.47 C6.02 27.2 3.23 30.53 -1.14 32.09 C-6.44 32.73 -10.71 32.76 -15.58 30.46 C-20.54 25.87 -22.88 21.6 -23.58 14.9 C-23.52 10.11 -21.98 7.35 -18.91 3.75 C-13.8 -1.06 -6.58 -2.8 0 0 Z " fill="#f5b13c" transform="translate(96.14453125,196.9140625)"/>
</svg>
